<svg xmlns="http://www.w3.org/2000/svg" baseProfile="full" viewBox="0 0 328.056 481.536">
  <defs>
    <style>
      .polygon,path{fill:none;stroke:#000;stroke-width:1px;stroke-linejoin:round}
    </style>
  </defs>
  <g transform="matrix(1 0 0 -1 231.867 3738.758)">
    <g id="national-park" class="name reference">
      <path id="E26000001" fill-rule="evenodd" d="m-215.754 3286.494-.212.45-.624.206-.55.408-1.434.25-1.125-.259-1.28.172-.26-.104-.503-.508-.624-.146-.322-.214-.15.074.037.142-.091.068-.317-.098-.198.128-.828-.392-.36-.552-.801-.712-1.545-1.814-.172-.584-.227-.313-.136-.625-.037-.332.108-.602-.238-.912-.178-.21-.282-.042-.403.26-.088-.338-.418-.245-.299-1.025-.171-.15.151-.137-.04-.193.133-.23-.528.04-.814-.433-1.218-1.659-.069-.357.108-.657.627-.156.231-.346.617-.328.686-1.716-.195-.22-.036-.249.198.078.153-.174-.128-.199.204-.014-.183-.215.08-.06-.09-.176.068-.078-.394-.204.33-.302.243-.644-.117-.141.055-.122-.505-.162.298-.578-.221-.125-.107-.394-.128-.005-.044-.16.086-.172-.223-.276-.687-.305-.331.044-.093-.188.408-.29-.077-.215.194-.067.025.296.395.204-.09.098 1.087.075.162-.086-.103-.163.515-.21-.094-.093.297-.133.108-.488-.325-.373.504.137.129-.047.03-.168.128.074.07-.228-.066-.171.093-.018-.06-.133.164-.196-.306-.767-.209-.265-.115.104-.098-.14-.405.075.323-.63-.108-.81.127.042.043-.291.175-.014.247.216.058.624.472.207.445-.159.199-.4.104.181.449-.209.059-.187-.069-.174.186-.189.092-.325-.066-.356.066-.131.466.003.407.34.716-.483.196.146-.26.255-.017.194.498.502-.134.187-.493.157.02.492.126.205.505-.225.766-1.021.452.326-.048.4.175.086.14-.276.68-.304.154-.238.126-.34-.062-.22.116-.046-.212-.238.183-.079-.032-.096.115-.121-.194-.514.42-.3.1-.276-.112-.24.234-.316-.016-.212.27-.552.614-.135 1.46-1.19.758.29.406-.217.827-.154.532.178.173-.215.51.216.317.223-.055.146.87.612.364.534.53.49 1.068.398.845.789.349.747.038.434.228.337.159 1.72.145.398.238.448.672.434-.058.333.138-.064-.043.162.23.507-.165.778.112.292.487.341.629.81 1.022.93 1.285 1.05.679.219.332.528.563.384-.113.346.134.152.048.422-.202 1.08-.133.119-.023.242-.323.042-.25.358-.02.221-.89.737.33.084.244.631.513.123.358-.103.338.152.7-.138 1.81 1.163-.069.255-.33.28.074.243-.135.38.024.21.246.382-.098.513-.266.501.163.303-.17.272.032.449-.215.366.052.144-.12.343-.428.135-.05.187-.791.867-.116.214-.016.33-.458-.046-.094.211-.673.587-.927.329-.278.315-.513.233.004.52-.46.273-.282.423-1.05-.241-.133.252-.282.193-.378-.005-1.273-.621-.806-.22-2.202.308-.736-.255-1.142.284.279.531z" class="national-park"/>
      <path id="E26000002" fill-rule="evenodd" d="m-216.81 3324.622.002-.25.477-.747-.157-.15.551-.092.13-.375.18-.107-.015-.52.18-.14.122-.462.383-.45.08-1.325-.202-.436-.023-.326.518.318.086-.147.71.13.306-.338.599-.28.472-.047-.061-.095.1-.203-.076-.231.192-.54.03-.5.568-.037.17-.44.476-.392.103.081.016-.154.376-.305.424.397.06-.546.108-.034.088.111 1.631-.136.565-.344.423.337.559-.518.682-.196.058-.241.241.176.102-.172.801.314.698.002 2.105-.791.658-.087.932.303 1.018.037.53-.179.762-.54.036-.147h.302l-.014.144.692-.584.403-.826.156.085.207-.14.368.227-.026.224.46.02.438.356 1.138.329.383-.275.463.76-.096.589 1.31.2.48.252-.12.197.381.776-.129.155.072.226-.375.217.221.344.108.581-.03.545.876.458.595-.052.362.611.551.214 1.502.162 2.422-.408.312.15.333.475.67.117-.502 1.502-.969.593-.033.2-.548.38-.46.762-.51.361-.488-.293-.284.287-.52-.402-.158.443-1.065-.407-.13.304-.404-.016.014.489-.314.14.187.332-.046.527-.147.281-.66.02.15.207.012.332-.352.072.113.304-.127.383-.682.532-.265.168-.2-.044-.04.211-.378.244-.27-.429-.459.268-.157-.173-.255.076.098.135-.076.074-.534.08-.07-.096-.134.282-.253-.008-.085.276-.14-.243-.376.192-.156-.096.223.263-.015.845.151.133.155.002.047-.193.443-.088.142.022-.012.163.146-.075-.076.156.134.246.388-.106-.409.514.048.109-.753.488-.55-.072-1.991.763-1.095.112-.895-.22-.143-.289-.403-.368-1.126-.24-.531-.347-.297.034.044.12-.218.055-.263.372-.32.19-.065-.034.1-.1-.186-.145-2.44.402-.91.346-.826-.013-.694.349-2.21.17-.476.263-.53.524-.515-.255-.119-.397-.738-.646-.57.017-.469.262-1.23-.011-.572-.318-.602-.028-.137-.267-.383.093-.238-.248-.421-.172-.37.174-.214.287-1.29.208-.098-.195-.6-.093-.44-.58-.382-.167-.908-.078-.346.14-.342-.2-1.005.046-.4-.218-.332.11-.53-.202-.191.075-.298-.197-.065-.292-.441-.095-.056-.193.233-.142.073.116.407-.07-.124-.112.707-.134 1.19-.083.81-.456.42-.482.126-.444-.15-.334.16-.183.044-.471.516-.585.232-.057-.012-.234.524.1.702.365.758-.468-.038-.494.278-.247 1.343-.06z" class="national-park"/>
      <path id="E26000004" fill-rule="evenodd" d="m-141.986 3680.671.326.122.462-.315.166-.69.225.155.075-.69 1.61-.242 3.078.71.66-.002-.02.1.444.094.878-.13 2.498.343.192-.13.157.066-.096.136.45.28 1.337.203 1.955.638 1.38.268-.133.448-.376.505.446.152-.047.566 1.514.168 1.56.416 2.234-.233-.04.331.509-.147.295.087.005.138-.6.214-.28.91-.24.105-.581-.128-.093.183-1.29-.061-.24-.286-.194.305-.42-.128-.449 1.042-.16.945-.172.223.013.416-3.755.032.206.417.546.37.086.924.504.35-.055.09.109.194-.205.56.725-.015.589 1.167-.122.111.093.114-.136.088.029.54.229.436.487-.136.502.792-.58.417-.199.38-.009.239-.812.333.139.115-.126.088.065.008.014.305.114-.015-.015.2.2.6.403-.058-.117.23.017-.008.557-.49.064-.307.234-.345.098.202-.244.56-.002.373.089.116-.066.152.193.025.629-.46.172-.597.132-.085 1.083.353.924 1.32.438.323-.15.663-.213.409.383.11.602-.112-.261 1.253-1.195 2.372-.468.507-.184.638-.643 1.107-.007.182.246.51.9-.145.884.48.441-.199.087-.157-.19-.248.032-.246-.091.06-.595-.366.385.029.147-.365.208.214.775.264.347.634.656.351.196-.24-.001-.263.18.003 1.334-.916.116-.38-.178.122-.245-.396.173-.352.21.019-.084-.427.352.234-.022-.35-.15-.228 1.043-.136 2.019-.892 1.986 1.152.103 1.106-.16.272-.484.13.084.408.67-.179.544.095 1.042.89.55.044.686-.233.117.184.1.6.268.535.188-.206.644.062.803-.214.356-.263.428.155.347-.232.714.76-.483 1.003.195.214.39.98.103.747-1.05-.284-.25.23-.505-.311-.454-.03-.05.281-.372.391-.058.442-.205.236-1.016.375-.919-.18-.433-.414-.601-.118-.134-.228-1.1-.7-.52.334.093.234-.465-.3-.077.113.112.105-.114.081-.384-.22-.119.162.075.32-.056.126.085.256-.038.207.115.182-.26.086-.12.322-.473.338.043.112-.18.153.008.178-.225.159.033.4-.188.016.06.201-.245.391-.931.246-.906.594-.243-.01-.093-.164-.276.597-.382.177.623.866.011.254-.161.134-.005.176.548-.174 1.433.768 1.748.462.95-.02.86.88.04.33.296.683-.38-.015.068.266-.2.307.266.199-.2.313 1.108.508.108-.157.289.157.11.333.286.229.986 1.434-.14.373.32.472.023.294-.179.294-.396-.063.014.153.2.051.002.29-.234.561.052.412-.171 1.261.136.3-1.368 2.203-.09-.153-.514-.056-.093.464-.222.399-.533.21.265.266.013.206.313.257-.153.13.001.227-.365.117-.064.334-.149.17-.462-.15-.27.023.896.32.27.539-.066.216-1.12.175.14.162-.065.27.077.277-.144.279-.222.03.134.407v.34l-.587.358-.33.007.061.111-.647.42-.04.262-1.322.335-.837.387-1.466-.27-.349.164-.566-.012-.141.109-.3.752-.347.42-1.61 1.033-.702.084-1.885-.71-.154-.335.028-.264.113-.13-.225-.657-.302-.584-.24-.2.421-.543.406-.089-.014-.305.481-.776-.088-.401.034-1.095.313-.119.181-.551-.134-.335-.129-.934.054-.184.48-.228.922-1.57.03-.151-.226-.675.286-.605 1.528-.28.453-.396-1.038-.411-.302-.29.071-.464-.216-.381-.139-.775-.601-.696-.86-.424-.125-.184-.377-.07-.064-.215-.632.362-1.001.08-.092-.426-.469.097-.182-.351-.344-.015-.217-.296-.587-.233.04-.192-.137-.374-.908-.472-.038-.3-.813.122-.25.182-.182-.168.129-.548-.648-.325.526-.659.045-.93.26-.186-.903-.791.487-.58-.97-.454-1-.736-.338-.436.004-.138-.773-.17-.358.075-.175.623-.698.425-.507-.025-.289-.205-.796.268-.977-.59-.906.11.26-.514.466-.196-.023-.348.26-.488.36-.053 2.08-1.26 2.053-.397.726-.418 1.093-.97.191-.301-.012-.286.178-.393-.035-.419.194-.48.052-.578.397-.509.016-.25.553-1.16-.006-.26-.188-.195-.45.02.64-2.217-1.685-.536.317-.556-.263-.381.01-.453-.284-.454-.223-.108-.223-.445.073-.11-.015-.329-.32-.192-.941-.12-.252-.398-.983.131-.189-.805-.45-.538.102-.125-.27-.583-.484.282-.368.546-.221.09-.24.005-.476-.211-.09.353-.203.091-.55-.213-.1-.29.274-.4.568.137.077.15.141-.033.06.19.221-.091-.04.224.136.042.627-.371.096-.237-.108-.096-.238.113-.545-.873.063-.05.347.557.565-.355-.007-.138-.62-.299-.237-.446.304.196.61.02.024.167-.094.067.095.09 1.518.002-.308-.184-.007-.368.122.006.087-.584.495-.138.15.335.78.236.2-.215.532-.068-.05-.256.136-.135-.183-.4-.985-.473-.24-.483-.162-.002.12-.126-.023-.193-.235-.154-.177.072.122-.34-.387-.506-.283.073-.14-.22-.178-.028-.227.138-.307-.093-.684.158-.119-.322.053-.107-.198-.054.055-.112-.319.03-.05-.12-.076.082-.854-.297-1.793-.01.105-.135-.272-.587-.285-1.06.046-.196-.192-.378.247-.39.427-.141.057-.171-.066-.03.242-.065.022-.16-.476.034-.129-.427-.23-.203.39-.358.106-.343-.089-.215-.567-.335.225-.046-.154-.12.106-.403.188-.025.163-.32.14.18.064-.041-.196-.374.38-.277-.038-.15.309-.281.007-.275-.614-.33-.657-.032-.053-.108.144-.15-.04-.094-.263.132.038.132-.084.042-.13-.244-.208.079.02-.097-.194-.084-.428.013-.039-.375-.249.126-.112-.206-.308.06-.71-.753-.251-.139-.095.121-.374-.082-.142-.277-.296-.105.078-.188-.168-.29.163-.274-.087-.185.21.009.24.354.216-.118-.128-.446.713-.69z" class="national-park"/>
      <path id="E26000005" fill-rule="evenodd" d="m-72.94 3615.932 1.027.008.472-.512.17-.01-.044-.213.162-.46-1.065-.36.075-.54.775-.073.077-.176-.124-.495.16-1.461-.156-.12.076-.444.448-.115.384-.447.742.448.355-.975-.006-.353-.192-.006.213-.41-.06-.391.594-.368.145-.853.155-.128.01-.22.141.053.092-.318.174-.124-.583-.184-.214-.846.605-.563.735-.277.442-.93.791-.815-.11-.422.17.1-.01-.27.242.162-.122-.379.866.477.67.122.34.682.69-.044.213.218.297-.158.349.088.507.378.318-.076.942.205 2.515-.053.506.204-.63.322-.458.441-.087.586.037.574.102.153.189 1.11-.134.605-.14.224.957.057 1.01.31.046.824-.063.296.18.225.047.402-.45.731-.199.869.197.018.196-.197.484.095-.008-.166.07.19.833.353.245-.641.24.102.05-.096-.07-.112.157-.073.32-.57.572-.307.004.277.309-.096-.438.561.094.77.456.285.227.546.563.532.575-.788.259.122.593-.505.26-.734.245-.194.162.097.404-.383.049-.138-.092-.12.468.097.28-.547.093-.467 1.302-.316.4.072.093.145.2-.063.029.2.15.1-.124.335.225.674.011.33.47.352.075.498.143.276-.049.144.405.435 1.788-.326.434.043 1.115.43.119.553-.027.468 1.04-.262.206-.724.019-.887-.267-.417-.518-2.04-.274-.186-.028-.478.146.014.07.254.624-.02.48.298.582.126-.207-.202.303-.634.24-.173-1.025-.82-.1-.225.05-.1-.13-.812 2.088-.56.59-.026-.314 1.018.007.228.227.421.544.021.731.457.572.09.935.565 1.225 1.951.259-.026.153-.384 1.595-.353.447.24.092-.24.436.096.126-.491.725-.485.368-.655.874-.904-.072-.07.573-.667.482.262.99.175.87.639.527.208.21.928.814 1.392.527.435.185.584-.126.174.026.364.204.452-.238.338-.594.024-.442 1.627.25.349-.408.975-.06.401.836.712.166.015.354-.248.379.066-.136-.566.257-.606 1.252.62-.26.703-.485.024.124.417-.162.518-.344.653-.367.157.022.522-.178.733-.286.375-.943 2.01-.257.317-.139-.096-.338.341-.302.49-.178.075.128.067-.11-.017.046.164-.082-.004-.133-.209-.157-.072.093.084-.429-.05.072.047-.115.021.195.066-.23.054.177.027-.167.009.084.055-.091.098-.439.066-.164.33.005-.105-.413.263-.022.519-.032-.2-.026.255-.134-.05-.108.267.047.225.214.166-.243-.04.209.165-.26-.022.129.17-.19.013.578.712-.02.364.086.072-.072.196-.184.073.02.14-.166.217-.21-.074-.207.573-.065-.133-.172.057-.152.385-.162.002-.006.165-.312-.058-.387.37-.42 1.053-.466.615-.308.194-.414-.017-.048.153.167.113-.3.281-.186-.085-.14-.278-.037-.497-.332-.228.165-.681.105-.091-.177-.302-.048-.437-1.24.797-.154-.176-.427-.079-.166-.245-1.365-.48-.045-.184.218-.06-.127-.131.233-.216-.074-.188.082-.07-.995-.452-.138.625.29.005-.076.337.194.109.003.163.207.067.06.195-.35.405.548.425.073.248-.051.237.622.363-.12.154.026.224.337.615-1.014.088-.065.03.045.293-.206.148-.16-.246-.216.343.014.17-.437.492.196-.063-.023.208.26.035-.01.33.11.16-.364.253.084.14-.13.122.012.242-.614.2-.195-.113-.553.616-.165.512.153-.001-.598.284-.28.035.04-.133-.079.047.071-.1.05-.098-.153.172.1-.253-.083-.09-.335.056-.302-.199-.753-.06-.209.389.243.413-.226.163-.114.395-.304.176-.27-.06-.135.227-.16.022.097.307-.328.347-.113-.048-.045.01.079.068-.082.118.09.08-.126-.007.107.098-.312.23-.096-.123-.107.154.01.18-.194.028-.256-.28-.121.355-.126-.155-.414.007-.074-.155-.03.139-.135-.002-.207-.173-.011.123-.166.001.107.097-.446.182-.286-.123-.345.423-1.059.47-.332-.604-.266-1.114-.154-.281.123-.227-.14-.394.29-.686-.166-.549-.505.206-.403-.205-.471.133-.218-.065-.023-.23-.13-.156-.502.077.235-.656-.869-.169.003-.141-.155-.021-.065.148-.213-.264-.076-.322-.061.082-.107.014-.115.052-.01.002-.017.005-.01.003-.556-.002.114-.814-.66.198-.248.4-1.987 1.107-.13.236-.309-.343-.351.687-.49.28-.767-.044.166-.434-.118-.135-1.059-.212-.63-.295-.69.348-1.079-.138-.47.347-.391.09-1.073-1.707-.208-.546-.321-.238.257-.693.89-1.124.457-1.43.613-.674-.498-.681-.744-.018-.012-.367.157-.363-.083-.064.294-.232.046-.247-.1-.157.002-.236-.306-.35.09-.198-.018-.388-.655.402-.383.015-1.582-.238-.821.12-1.356-.313.047.15-.14.165-.234-.046-.189.401-.27-.132-.288.572-.478.059-1.029-.675-.635-1.05-.423-.448-1.44-.711-.655-.582-.401-.185-.315-.449-.034-.307-.22-.389-.215-.725-.02-1.354-.155-.235.24.051.488-.336.174.13.43-.092-.187-.11-.473-1.078-.897.024-.144-.484.076-.261.201-.14.03-.532.427-.128.157.084.413-.266-.021-.374-.259-.215.075-.162z" class="national-park"/>
      <path id="E26000006" fill-rule="evenodd" d="m-103.26 3518.93.131-.632-.159-.394.75-.83-.135-.102-.066-.476.086-.591.237-.41.336-.13.187-.34-.07-.107.08-.009-.371-.283-.31.125-.219-.158-.423.016-.01.212-.366.603-.817.027.18-.345-.132-.45.188-.064.014-.161-.372-.126.037-.204-.145-.542-.448-.225.887-.95.642-.284.397-.513.134.077 1.086-.633-.033-.465.245-.102-.266-.145.04-.5-.596-.27.05.227-1.195.755-.56.984-.19.105-.26-.095-.29.153-.093.2-.09-.106-.977.126-.209.158-.38-.315-.318.038-.175.262-.212-.02-.447.474-.451.174.162.358-.054.496.08.658-.306.193-.027.135-.126-.09-.125.337-.232-.004-.064.294.117.279.021.395.256.068.289.427-.297.666.091-.027.114.275.25-.048.096.182.31.043.284.425.269.176.44.13.434-.123.225.776.24.332.149.49-.298.226-.953.041-.37-.083.02-.255-.172-.07-.279.109-.372.464-.493-.04-.042.196-.297.18-.67.16-.18-.104.341-.607-.212-.064.104-.125-.068-.13-.264.005-.185.894-.213.009-.284.242-.093.276-.546.144-.256.38-.365.113-.086.444.14.349-1.495.413.237.46-.081.533-.247.22-.545.027-.049.28-.39.288-.105-.135.036-.25-.13-.296.065-.49-.12.263-.179-.002.121-.125.058-.568-.558.272-.301-.722-.007-.226-.544-.589-.027-.165.74-.255-.133-.177-.03-.362-.363-.085-.208-.324-.425.317-.146-.056.423-.459.162-.556.084.07-.005-.43.12-.22.15-.016.05-.55.392-.324-.301-.597-.195-.07-.095-.359.081-.762.492-.215.242-.344-.274-.588.136-.225-.28-.168.008-.25.871-.755.292-.59.237-.228.087-.514-.465-.526-.07-.232.102-.376-.267-.04.106-.16-.187.127-.076-.164.05-.08-.126.047-.308-.283-.453.19-.228-.52-.3-.139-.258.222-.867-1.192.341-.095-.06-.304.159-.71.133-.166.022-.585.252.151.315-.292.89.2.417-.183.062-.305.087.027.065-.2-.01-.226.082-.008.019-.84.39-.377.124-.364.36-.15.476.143.793-.043.488-.291.41.022.203-.303.65-.277.216.66.234.02.214-.446-.033-.221.587-.297.195.213.204-.169.022-.47-.212-.559-.178-1.135.3-1.05.187-.33 1.213-1.47 1.024-.548.651-.869.802-.315.077-.242.315-.26.055-.318.217-.156 1.134-.209.848-.963 1.92-.295.299.412.374-.001.16-.165-.055.26.212-.092.042.423.507.284.123-.269.583.095.132-.278.333-.207.123-.228.68.194.408-.128-.05-.14.063-.085.324.18.453-.133.084.19-.053.256.338.213-.057.18.136.029-.069.15.243.319-.078.185.369.349.092.37-.103.423.34.301-.078.38.352.741.625.737.113.856.083-.03.067.203-.088.426.17.208.344-.103.182.148.233-.27.375.361.075.432 1.118.378.093-.106.043-.46.13-.165.445-.064.464-.267.976.19.248.335.896.315-.762.1-.005.361-.164.172.108.138-.556.572.278.197-.429.298.269.085.978-.194.007.266.239.145-.231.353.063.087-.088.273-1.079.441-.285.52-.669-.032-.238.252.205.31-.081.32.145.185.326-.064-.046.08.077.016.028.28-.046.286-.072-.001.071.32.175.178-.192.34.073.575-.325.31.115.247.376.365 1.18-.482.369-.005.724.318.886.123.251.333 1.7.07.119.175-.093.326-.808.171-.193.297-.403.073.362.385-.199.455.228.167.036.22-.569.055.066 1.168.42-.07-.015.18-.42.664-.079.334.11.219-.146 1.07.096.352-.5-.008.274.484-.042.136.105.257.322.346.31.003.061.19-.535.471.242.699-.475.06-.382.251-.268-.063.175.15.013.253-.05.307-.216.082.337.46-.338.418.433.22-.074.39.116.283-.109-.02-.15.343-.69.085.19.348-.065.218.233.271.062.472-.144.336.053.178-.534.326.011.116-.234.224-.42.07-.006.595.134.081-.563.16-.107.26.483.394.017.492.895.005.374.302-.08.197.096.124-.664-.216-.114.205-.417-.137-.348.06-.053.988-.335.448.275.386.612.342-.112.176.116.096-.096.023.427-.009.156.219.128-.01-.114.222.058.092-.054.304.114.11.082.359-.244.874.088.082-.711.548.823.857.3.147-1.487.725.073.098-.686.23.323.036.188.355-.74.047-1.16.327-.255.216-.16.352-.306-.134-.48.658-1.098.57-.415.796-.368.325-.528.113-.641.764-.211 1.161-1.281-.287-1.829-.091-.32.19.137.542-.513.855-.8.015-.395-.15-.371.252-.066.45-.494.213-.348.518-.194-.25-.438.177-.265-.073.116.17-.18.077.102.408-.067.138.161.328.012.263.115.069-.777.346-.236 1.603-.188.092.042.154-.33-.155-.603.87-.434-.062-.155.336-.154.07-.226-.202-.151.149-.388-.207-.018.133-.458-.15-.183.152-.626-.227-.183-.224-.472-.025-.27-.368-1.343.02-1.116-.787-.168.01.323-.697-.094-.252.131-.033-.425-.567-.095-.396.173-.097-.576-.985.028-.533.604-.15.015-.26.324-.213.274.286.197-.02-.2-.29-.59-.34.098-.335-1.02.115.083-.61.556-.5 1.312-.645-.52-.686.107-.687-.38-.939-.019-.533.567-.644-.155-.288.796-.468.441.249.474.008-.202-.94.702-.462.222-.412.072-.495-.083-.413-.234-.4-.737-.446-.808.069-.628.528-.693-.016.123-.223-.025-.354.238-.291-.618-.676-.004-.343-.247.016-.093-.187v-.38l-.262-.727 1.057-.506-.134-.199-.011-.587.565-.1.09-.4.684.189.546-.234.218.077.086-.18.681.143-.056-.087.224-.141.148-.182-.02-.208.116-.005.045-.07-.93-.052-.03-.111.157-.193-.191-.218-.188.159-.477-.024-.218.283-.146-.058-.558-.585-.045-.629.103-.425.356-.664.678-.34.101-.25.433.012.287.52.828-.54.228-.02.119-.285-.026-.224.386.015.26-.27.137.014.202-.446-.157-.186.194-.332.171-.743.364-.25.104-.472.486-.164.162.27.141-.076.208.448.334-.099-.064-.07.105-.096-.022-.274.192-.03-.12-.262.283-.029-.382-.488.285-.189z" class="national-park"/>
      <path id="E26000007" fill-rule="evenodd" d="m88.687 3465.719.146.224-.21.217.05.254-.332.184-.89.092-.377.232-.022.145-.57-.043-.028.685.244-.007.768.595.234-.175.006-.335.587-.15.18.27.865-.424.12.3-.374.22.085.094-.168.153-.39.033-.475.424-.404-.12-.016.12.76.224.495-.282h.185l.022.182.09.004-.02-.128.345-.029.145.079-.065.282-.177.182-.465.126.184.445-.486.015-.059-.108.1-.235-.197-.108-.308.228-.355-.117.073.203-.697.263.374.254-.1.154-.457.049.373.031.136.221-.607.462-.26-.042-.009.114.264.074.088.278.981-.436-.084-.289.272-.367-.312-.172-.068-.24.104-.129.206-.016.155.153-.083.301.254-.067.334.173.538-.09.429-.462.321-.023.23.253.473-.81.34-.314-.054-.32.119-.049-.268-.582.618-.209.102.24.31.04-.308.648-.139.075.113.198.257-.282.163.466 1.33-1.712-.414-.224.21-.464-.199-.09.105-.556-.537.116.083-.387-.494-.046.056-.254-.176-.227-.603-.371-.181.379-.708-.35.12-.397-.391-.442-.083.215-.183-.112-.217.219-.756.127-.132-.05-.025-.398.424-.593-.417.424-.083-.109-.017.289-.203-.031-.1.208-.373-.11-.363-.407-.16.034-.12-.154-.061-.591.45-.082-.197-.167-.42.16-.134-.096-.098.193-.413.093-.073-.194.094-.02.008-.56.082-.012-.038-.338.87-.323-.023-.227.455-.09.555-.321-.407-.994.155-.016.298.26.056-.214.627.107-.004.339.125-.168.138.071-.027-.179.578.088.167.09-.032.307.938-.237.071.173-.25.115-.035.227-.217.011-.044.109.067.027-.106.119h-.526l.36.107-.4.276.063.041.17-.031.163-.133.633.002.043.218-.225.104-.013.273.14.074.24-.26.273.224-.299.227.095.54-.283.2-.015.141.63-.11.454.186.056-.112-.078-.214.282-.036.084.181.495-.096.097.25.298.021.015-.294-.315.017-.355-.233-.015-.538.213-.495-.42-.029-.064.118-.107-.036-.003-.167-.408.083-.001-.163.178-.063-.045-.232.066-.066.659-.04-.222-.297.014.218-.413-.048-.046-.127.25-.192-.219.02-.117-.164.015.225-.39.082-.101-.171.073-.466-.197-.319-.243-.132-.121-.462-.693.037-.057-.035.158-.166-.227.11-.015-.117-.348-.069.014-.14-.762-.01-.176-.122.03-.186-.288.3-.224-.071-.022-.27-.16-.085.135-.332.155.055.261-.4.465-.061.59.037 1.2.429.299.007.106-.152 1.827-.056-.008.147-.902.277-.147.165.021.134.222-.271.405.022.049.19.042-.199.137.03.072-.193.21.024.05.139.319.014-.025.218.595.192-.015.434.114-.354.231.23.095-.161-.458-.292.083-.109-.323-.033-.272-.288.214-.161.2.133.023.172 1.198.217.22-.315-.14-.426.204-.18-.172-.104.622-.115-.038-.833-.087-.285-.199-.151-.027-.326.107-.18-.016-.129-.065-.115-.12-.054-.001-.079-.087-.044-.2.153-.114-.213-.013-.837-.408.028-.453-.212-.09-.679-.994-.218-.008.107-.913-.029-.053.102-.225-.097.034-.179-.123-.035.042-.947-.286-.017.01-.29-.19-.126.102-.253-.135-.077-.048-.332-.156-.21.078-.429-.31-.24.016-.102-.496-.143-.232-.521-.034-.833-.066.003-.016-.318.153-.347.373-.312.18.123.34-.434.65-.318-.129-.38-.148-.06.131-.101-.007-.295.089-.07 1.606-.47 1.067.093.093-.11.073-.12-.082-.502-.455-.204.011-.347.158-.373-.12-.317.022-.197-.092-.074.017-.28.303-.142.027-.15.265.143.009.127.41-.024-.221-.643-3.295-1.411-2.527.579-.058-.164-.382-.092-1.004.451-.785.09-.07-.461-.364-.473-.83-.087-.433-.235-.547.204-.097-.187-.368.28-.622.216-1.06.137-1.37-.16-.625-.265-.493.183.01.1-.374.327-.66-.455-.613-.167-.16.358.094.776.187.293.43.294.617-.219.166-.293.386-.279.89.324.629.488.454.175.61.007 1.413-.313.053.193.187-.116.658.096.172-.328.46-.057.567.069-.028.408.179.077.026.162.886.211.021-.16.816.434.916-.076.276.178.478-.719.551-.187.49.09.633.377.194-.38.396.22.043.222.332.052.3.31-1.722.846.143.284-.679.332-.208.633-.287-.229-.121.093.138.115-.38.248.067.183-.056.074-.18.08-.324.489-.401.205-.33.446-.082.744.08.27-.188.283-.523-.158-.232.13-.538-.592-.273-.022-.028.174.272.15.065.192-1.603 1.104-.212-.62-.234-.075-.06-.296.186-.236-.728.016-.015-.219-.132-.101-.213.28-.135-.024.03.226-.294.085-.137-.257.109-.044-.154-.087-.307-.018-.235.251-.056-.152-.382.033.051.058-.122.2.361.292.472-.1.395.362.26.05-.073.227.778.045.02.214-.37.39-.734-.06-.358.499-.338.958-.283.192-.4.667-.549-.042-.277-.3-.324.198.184.09-.103.06-.064-.084-.945.325-.03.487-.239.25.039.175.136.06-.328.61.232.101-.034.24-.09-.02-.125.536-.196-.013-.178.52-.386.185-.212-.052-.588-.762-.526-.269.045-.117-.186-.01-.157-.21-.15.317-.323.084-.138.231-.197-.038-.01.333-.14.243-.167.748-.132.13-.308-.316-.91-.24-.004.158-.235-.036-.372-.222-.933-.192.258.226.013.31.13.161-.596-.116-.302.106-.143.154-.075.323.265.406.041.34-.33.088-.571-.34-.231.16.216-.145.589.34.346-.093.025-.12-.072-.238-.25-.473.144-.341.35-.147.564.122-.095.138.26.342 1.246-.102.761.205.465-.045.103-.18.474-.119-.082-.145.073-.22.273.027-.011-.21.244.08.045-.236.125.157.173-.023.014.12.613.003.269.322.489.076.143.168 1.157-.742.443-.108.14-.203-.142-.115.107-.193.229-.191.108.21.105-.13.033-.188-.08-.117.36-.09.092.3.235-.159.192.344.328-.115-.202-.723.654-.232.312-.337.35.046-.115-.145.266-.094-.175-.142.035-.366.208-.201.287.058-.022-.25-.146-.226.369-.2.034.212.334-.106.205.246-.03.182.105.008.139-.084-.047-.127.13-.064.042-.188.441-.08.358-.497.533-.135-.078-.233.243-.236-.066-.113.323-.502.531.04.469-.2.011.242-.204.313-.412.07.275.208-.177.27.205-.128.02-.187.469.19.125.2-.114.355-.113.029.138.605-.37.224-.434.013.308.052-.064.411-.09.033.384.28-.147.027-.159 1.095.273.137-.023.195.079.072-.596-.003-.008.405-.82-.012.243-.275.08-.436-.12.157-.034.257-.242.085-.033.136-.355-.053-.151-.24.162.439-.345-.07-.13.124.671.253-.06.637-.288.148.3.07.068.102-.042.194.476.129-.212.25-.412.041.697.55-.107.165-.39.008-.326.24-.074.288.363.405-.16.209.043.011.263-.207.057.047-.15.35-.002.267-.174.188-.131.116-.39-.078-.065.126-.479-.185.02.139-.613.488.1.18-.088.149-.413.172-.334-.294.147-.103-.04-.082-.45.137.135-.324-.03-.2-.078.15-.163-.007.04.155-.227.254-.487-.46-.313-.009-.13-.197-.167.264.985.61.66.066.067.176-.209.146-.654.02-.188-.213-.269-.06.3.213.051.152-.17.084.06.201-.927.4-.32-.237-.304.003-.17-.303.042.285-.114.086.584.286-.123.108-.052.312-.52.102-.023.245-.153.12-.177-.208.172-.216-.272.002-.048.13-.04-.192-.229-.173-.107-.416-.318-.196.18.152-.028.34-.479.072-.46.34-.418-.013-.23.19.285.213.232-.033-.024.115.117.002.17.43-.518.358-.21.408-.204-.019-.067-.335-.121-.032.1-.055-.01-.212-.237-.347-.395-.135-.279.183-1.072-.033-.285-.722.016.576-.214.146-.136-.184-.059.163.676.268.038.322.232.076.057.31.331-.112.042.166-.08.095.232-.003.157.176.017.279-.2.01-.223.425-.841-.047-.303.53.64-.014.469.191.276-.194-.16-.11.148-.375.663-.4-.23-.548.128-.04.177.357.548.145.314-.19.097.12.064-.34.407-.266.091.013.03.207.33.144.086-.25.288-.196.683-.04.201 1.037.66-.235.265.218.077-.593-.463-.174-.07-.228.4-.023-.063-.187.467-.775 1.107-.087.07.253-.386.298-.038.487.161.278.27.037-.11.244.017.315-.135.106.005.173-.245.06-.128.446.191.1.357-.48.185.42-.01.199.114.099-.272.19-.245.47-.68-.25-.08.138-.365.036.049.15.403.083.302.435.362-.322.25.228.045.135-.08.13.116.136-.094.094-.008.254.173.226-.273.014.003.096.245.142-.05.166-.105.044-.088.38-.237.345-.469-.171-.488.393-.703-.013-.119.268.172.212.027.405.157-.199.414-.044.338.37.263.044.076.186-.19.056-.282.651-.572-.396-.563.379.11.398.494-.294.667.079-.41.754-.299.009.118.146.176-.095.155.094-.272.277.363-.009-.063.665.458-.02-.05-.24-.16-.104.129-.342.193-.042-.026-.177-.442-.206.18-.098-.015-.302.944-.831-.05-.616-.262-.216.055-.333.544.19.105-.233-.208-.008-.06-.195.275-.07.092-.468.22-.05-.066-.15.374-.074.094.287-.09.287.29-.096.114.26.405-.397-.394-.141-.097-.224.421-.081.336.136.24-.6-.362.032-.091-.235-.317.242-.218-.314.24-.263-.08-.156-.5.11-.17-.91.34.149.393-.08.306-.211.115-.404-.14-.255.117-.292-.143-.22-.358-.09-.328-.72.15-.203.229.048.084-.21-.235-.836 1.17-.054-.105.292.073.46.188-.048-.011-.201.301-.164.088-.185.083-.004-.003.206.104.096.485.298.238-.296.219.135-.104.313.872.119.866.377-.096.305zm6.841-9.729.1-.202.271.017.022.168-.107.21.024.31.21.184-.026.43-1.107-.287-.31-.298.736-.151.208-.186-.02-.195z" class="polygon national-park"/>
      <path id="E26000009" fill-rule="evenodd" d="m-88.504 3289.796-1.682-.162-.146.127-.495-.354-.182.065-.119.23.025.135-.115.102.06.265-.117.303-.55-.245-1.645-.229-.3.239-.482.087.022.413-.466.161-.01.13-.259-.081-.228-.446-.213-.173.004-.389-.175-.227.378-.572-.885-.459-.037.358-.322.309.033.31-.078.11-.362-.15.022.282-.286.7-.087.028.163.239.082-.088.222.115.059.06-.06.122.226.16.176-.346.213.119-.214.412.198.344-.82-.157.036-.116-.344-.151.062.305-.272.055-.073.125.073.153-.045.118-.167-.05-.002.338-.163.293-.457.154-.174-.154-.222.124-.176.484-.176.11-.45-.398-.23.261-.517.144-.128.437.173.377.53.038.106-.345.507-.123.061.6.528.055-.06.21.076.093.024 1.213.344.734-.179.691-.014.66-.048.137-.147-.03-.147.843-.192.276.19.206-.147-.001-.088.452.208.036-.123.36.05.152-.158-.006-.05.214.305.195-.052.248.1.23-.117.518-.1.004.096.214-.06.073.055.322.101.032-.154 1.716.377.117.037.174-.118.263-.653.39-.18.246.17.585.173.233.66 1.645.479.019.222.528-.041.222.234.006.056-.218.384-.214.31.016-.007.28.323.072.76-.096-.068.574.077.588.19.079-.103.11 1.027-.21.2.11.325.485.27-.06.667.347.696-.079-.108.178.346.435.286.003.437-.433.344.291.333.05.008-.372.204-.82-.258-.092-.416.104-.239-.2.211-.616.678-.457 1.828-.463 3.161-1.505-.036-.38-.128-.27.068-.29.177-.213.312-.081.289-.554-.123-.643.025-.695.223-.439.523-.183.51-.8.088.066 1.074-.4.459-.333.623-.699.323-.168.542-.159.299.337.258-.096.37.09-.038-.398.37-.342.036-.224 1.015-.21-.31-.32-.806-.255-.066.09-.503-.401.922-1.146 1.283-.615-.085-.093.137-.25-.09-.06.083-.253.08.034-.01-.343.173-.224-.205-.364.502-.143-.065-.294.1-.004.324-.489.268.047-.16-.923.646.115-.072.153.198.165-.074.285.087.057-.222.339.259.424.178.086-.03.097.633-.033.285.404.208-.207.15.184.127-.139.265.062.096.102-.087.197.087.09.447-.485.162-.352.561-.256.115-.285.204-.095-.112-.09.073.007.034-.213-.126-.119.017-.132-.79-.238-.713-.641-.644-1.217-.28-.124.058-.222-.058.033-.062.216-.474-.182-.28.159-.747.037-.062-.097.14-.151-.25-.185-.507-.263-.251.034-.049-.196-.388-.22.091.005-.97-.495-.446-.2-.02.101-.064-.122-.321.061-.899-.33-.198.04-.044-.207-.056.048.062.159-.502-.288-.574-.073-1.17-.795-.302-.025-.215-.275-.874-.302-.334-.502-.386-.23-.428-.561-.446-.182.003-.228-.62-.702.466-.61-.144-.184-.863.27-.653.581.358.316-.074-.007-.047.112.094.05-.18.32.477.265.089.212-.09.147.14-.026.09-.308h.175l.357.184.358.472-.238.202-.069.418-.11.134.062.066.593.098.138.4.255.146.38-.301.246.382-.608.968-.2-.102-.285.276-.086.49-.238.153-.167-.048-.062-.434-.329.339-1.493-.398.189-.249.261.152.108-.327.15-.119.005-.225.631-.34-.445-.01.248-.703-.322-.101-.147.436-.583.28-.211.271-.12.653zm14.246 4.96.428-.444.282.213-.412.535-.602-.19.304-.114z" class="polygon national-park"/>
      <path id="E26000010" fill-rule="evenodd" d="m-44.406 3298.784.713.065-.01-.164.314-.05.058.054-.103.168.159.181.065-.197.204-.094 2.195-.348.045.172.039-.186.503-.086.546.387-.014.326.445.01v.101l.845.186.277-.08-.044-.316.703-.013-.249-.15-.05-.427.074-.295.61.003.199.71.453-.53.152.025-.02-.169.6-.102.99.087.003-.386.355.022.21-.373.5.288.18-.667.323-.232.314.061-.057.325.515-.101.192.19.076.294.158-.16.186.283-.152-.053.006.263.686-.14-.087.369.583-.232-.054-.068.276-.356.394-.298.033-.21.282-.113 3.604-.164.053-.617-.092-.037-.053-.536 1.503-.103.096-.406.497.107.01.368-.195.625.425.148.07.146-.102.245.999.068-.025.69.07.105.327.15.41-.794-.354.996.146.247.256.105.35-.49.15-1.257.523-.032.127.03.084.229.308.006-.059-.247.417.019.025-.3 1.501.256.02.217-.246.05-.01.261.564-.05-.02-.16.164-.027.032.166.62.003.028-.253.162-.12 1.91.648 1.38-.088 1.057.193.285-.128-.339.6-.024.313-.073-.052.044.181.244.166.053-.037-.118-.111.554-.076-.012-.167.143-.268.333-.363-.07.23.12.047-.215.245.32-.047.843.267.549-.059.56.329.174-.173.386.421.833.05-.05.233-.347.256-.133.33.07.033.123-.016.17-.278 1.533.19.372-.115-.092-.409.026-.357-.066-.165-.368-.116-.181-.234.25-.09-.184-.382.393.036-.025-.144.096-.107.104.124.09-.168-.013.173.425.157.273.491.195.096-.248-.038-.432.417.04.48.098.077.304-.159.212-.313-.198-.104.207-.07.094-.284.186.02.504.4-.08.78.179.231.09-.045-.065-.163.101.02.154-.312.153.115.179-.262-.2-.121.159-.113-.024-.236-.356-.155.067-.204-.419-.124-.055.16-.3-.153.198-.095-.347-.118-.077-.357-.244-.22-.133-.35-.136.055.1-.112.257.113.197-.12.129.348.631-.18-.124-.217.042-.11-.156-.103-.272.103-.113-.34-.127.083.005.22-.133.005-.028-.355.239-.065.277.2.114-.157.971.413.45-.023.422-.27.052-.61-.265-.487-.185-.101-.069.046.02.246-.275.133-.17.736-.083-.034-.02-.22-.334-.182-.12.02-.084.23-.178-.09-.558.088.035-.238.255.095.16-.221-.197-.24.096-.32-.14-.44-.393-.163.883-.157-.08-.36-.187.068-.074-.185.359-.017 1.663-.713-.312.199.107.106-.068.172.123.033-.133.338-.123-.043-.089.168-.268-.121-.212.358-.144-.058.046.155-.243.168.372.076.194.365.318-.321.306-.882.707.197-.429-.405.097-.198.287.063.141.502.515.088-.025.155.1.139.135-.04-.1-.187.653.005-.292-.307-.167.035-.23-.407.2-.072.412.26.205-.044-.61-.88.454-.094.062.348.447-.128.399.729.182-.058.313.432.317.093.34-.193-.085-.158.073-.086-.25-.44.635-.42-.086-.338.762-.36.092.056-.12.124.538.603-.306.208.181.141.592.013.197.274.035.19-.127.274-.273.263.496.267-.17-.236.218-.108-.068-.365.161-.106-.024-.183.53.198.112-.212-.261-.175.41-.186-.753-.368.308-.748-.074-.17.344-.13-.16-.273.527-.254.007.402-.29.42.25.15.466-.429-.224-.213.438.003.102-.141.853.857.282-.419.212.027.02-.181.283.116.342-.283.226.177.19-.887-.083-.133.025-.362.086-.091-.098.007-.014-.168-.347-.046-.129.03-.007.188-.527.037-.028-.14.131-.01-.007-.102-.329-.07-.019-.123.67-.544.986-.294.388.299.46.012.181-.23.685-.257.212-.214.28-.025-.016-.125.482-.042.636-.375.407-.496.74-.19 1.273-.177.648.247.201-.042v-.137l.362.465.216.592.19.128-.153.083.163.28-.15-.09-.089.16-.286-.064-.13.173.023.118.213.144-.324-.139-.244.236.531.174.383.268-.043.208.216.106-.102.165-.79-.305-.117.241-.216-.028.264.267-.339-.021.021.35.164.098-.048.142-.292.05-.04.347-.076.046.243.062.259.54-.045.122-.372.005-.071.117.11.021-.08.188.212-.04-.231.114.217.08-.05.192.121.093-.084.178.051.063-.169.133.057.09-.066.116-.292-.076-.209.288-.206-.016-.098.164-.041.143.248.046.148.417-.143-.018.078.25-.49.042.037.16-1.558.065-2.216.417-1.111.701-.105.43-.335.337-1.307.745-1.807.183-.3.254-.06.212.29.058.715.585.448.458.004.226-.417-.047.203.373-.515.061.066.169-.385.254-.04.285-.102.017.068.213-.055.079-.843.004-.637-.384-.064.08.207.273-.12.06.2.163-.047.139.083.159-.185.183-.443.121-.77-.593-.17-.383-.531.07-.352.55-.187-.17-.063.1.084.04-.115.183.05.091-.116.087-.366-.45-.225.69-.255-.168-.02.195.142.158-.597.825-.925.756-.691.327-.32-.437.036.08-.621-.05-.104.16-.395-.004.045.353-.104.059-.174-.088-.443.216-.072-.162-.32.081.076.14-.229.014.033.189-.096.034.198.342-.188.416.104.443-.436.06-.125-.365-.476.205-.106-.352-.217.008-.016-.247-.153-.006.064-.106-.082-.324-.127-.19-.17-.017.01-.17-.127-.146-.025-.121.209-.014-.036-.26.1-.03-.067-.19-.165.108-.065-.093.082-.165-.979.255-.197-.149-.134.084.024.124-.167.047.022.102-.309.075-.03.142-.34.156-.092.2-.379-.046-.177.296.082-.4-.252-.37-.359-.144-.149-.219-.803-.229-.585.282.105.188-.153-.019-.023-.223-.22-.01-.037.297-.161-.053.014-.271-.21-.032.14-.17-.12-.05.134-.45-1.026-.15-.83.046-.054-.117.115-.054-.092-.165-.355.222-.012.2-.097-.029-.245-.204.095-.112.029-.308.13-.067-.104-.101.005-.33-.113-.242-.102.022-.01-.207-.138.04-.04-.402-.522.058-.15-.15.02-.281-.31-.066.04-.387-.136-.127-.67.382-.156-.146-.16.126-.534-.17-.212-.276-.062.425-.197-.129-.221.088-.032.356.171.09-.104.364.178.032.035.269-.202.404-1.487.91-1.638.006-.276-.247-.395-.049-.265.248.13.27-.134.247-.318.186.12.175-.204.235-.061-.486-.16.075-.103-.525-1.084.34-.122-.096.032-.11-.367-.228.029.391-.042-.101-.434.087-.051-.202-.199.043-.124.222-.208-.002-.042.126-.18-.14-.302.036.042.44-.282.212-.076.377.332.379.115.257-.034.121.46-.086.002.195.193.24-.161.321-.061.067-.063-.124-.31.333-.434.134-.196.244.004.37-.365.172-.1-.183-.269.16-1.257-.096-.08.239.111.357-.398.407.123.396.381.018.008.423.11.283.292.063.599-.252.043.75-.27.141.128.095-.041.221-.346-.184-.043.133-.132-.01.018.217-.324.066-.067.176-.414.234.05.823.196.54-.25.133-.358-.042.006.12.396.024.378.85-.182-.093-.214.083-.366-.162-.003-.186-.21.048-.685-.278-.409-.945-.116.03-.016.141-.11.142.07-.286-.217-.071-.539.387-.25.043-.098-.167-.357-.06-.183.081-.039.393.429.485.076.32-.677.264-.065.137-.019.975-.208.097-.076.241-.07.838.06.408-.097.448.082.078-.312.563-.4-.04-.425.591-.261.153.27.45-.066.13.11.194-.088.113-.468.071-.476-.326-1.45-.316-.28-.385-1.005-.158-.545-.368-.548.65-.44-.126-.428.184-.05-.141-.559.282.132-.215-.119-.1-.129.181.023.203-.118-.423-.147-.01-.112.357.044.19-.638-.09-.019.158-.15-.03.058.188-.45-.013-1.03-.55-.259-.565-.523-.617-.41.317-.221-.238-.055.089.192.289.028.235-.373.107-.023.213.2.1-.266.096-.706.029-.42-.691-.33-.292-.34.328-.065.448 1.081.566.017.273-.091.076.053.143-.647.56-.284-.173-.272.149-.106-.119-.132.184-.125-.029-.035.185-1.115.173-.309-.196-.08.099.027.062.003.086-.194-.219-.357-.053-.248.233-.676.127.04.188-.066.105.444.156-.088.347-.129.039.08.092-.124.204.118.071.09.788.203.09-.127-.126.04-.181-.078-.142.23-.142.314.42.055.152-.057.077.277.079-.029.166.089.056-.234.03.078.295-.293.016-.018.135.178.193.435.128.642 1.146.267-.177 1.03.326.543-.225.25.075.12.42-.033.486.27 1.668-.125.394-.099.04-.284-.388-.23.127-.172-.303-.235.03.333.454.139-.054.12.21-.077.093.1.268-.154.318-2.211-1.416-1.051-.267-.146-.525.066-.368-.462.043-.432-.134.04-.137-.077-.018-.049-.278.03-.587-.221-.017.037-.129-.072-.032.089-.106-.12-.353-.428-.495-.125.105-.097-.089-.166-.449-.497-.54.212-.234.018-.331-.158-.054.06-.322.743.049.06-.291-.063-.15-.809-.455-.5.136-.843-.214-.542.134-.199.442.344.276-.098.24.46.566.17.603-.647.289-.488-.033.002.095-.784-.641-.799-.299-.773-.73-.249-.25.098-.163-.084-.068.826-1.382.02-.343-.249.064-.045.135-.946-.333-.055-.292.059-.314.07-.268.124.016-.013-.573.11-.14-.152-.323-1.92.026-.744-.367-.72-.15.043.1-.154-.185-.696-.222-.665.21-.286.28-.82.114-.405-.157-.102-.423-.879-.288-.126.115-.132.441.046.583-.064.153.127.618-.863.247.296.368-2.312.842-1.304-.163-2.328.288-.518-.951.01-.228-.635-.922.212-.117-.124-.187.124-.084-.242-.229.135-.204.26.374.02-.142.058.047.24 1.006.117-.129.096.172.178-.78-.164-.567-.003-.34.102-.104-.082-.026-.08-.392-.262-.346-.643-.073-.072.02.047.258.131.197-.06.151-.195.026-.157-.332.132-.047-.036-.095-.31-.006-.196-.71-.129.016-.008-.336-.083-.009.065-1.079.16-.05-.325-.73-.062-.617-.382-1.028.098-.209.366-.275.177.15.24.7.141-.088.67.087.122-.284-.11-.07.076-.24-.164-.032-.075-.202.436.024.008.365.164.083.477-.276-.06-.295.108-.517.173.134.25-.066.045-.323-.22-.04 1.458-.564-.12-.32.202-.141-.081-.116.135-.084-.061-.132.087-.024.09.197 1.113-.923.105.07.478-.345.206.152.34-.097.057-.14.199.19.407-.204.44.029.017-.25-.774-.213.037-.117-.085-.026.234-.353.537.029.151.45.53-.363-.078-.053.133-.103-.024-.095.308.125-.13-.28.033-.26.118-.038-.054-.115.219-.085-.046-.187.16-.085-.064-.113.201-.243.119.09.128-.097.052-.274-.91-.703-.288-.565.09-.278-.232-.053.023-.135.234-.056-.126-.609.088.075 1.178-.495.442.936.664-.44.144.28.223.02-.049.236-.224.086-.059 1.032-.257.162-.398-.12-.061-.176-.15.044.152.127-.06.083.148.203.376.034.589.977.24-.314-.028-.227.158.058.26-.458.08-.334.198-.013.06.35.277.134.279-.361.519-.178-.005-.17.302-.137.257.603.584-.798.149.284.176.005.959-.326.164.505.392.416.661.078-.235-.85.332-.044.326.16.07.16.118-.064.29.663.23.066-.083.124.167.198-.105.295.028.734-.151.255.227.091-.008.349.314.108-.018-.32.222.115-.022-.157.11-.044.906-.052-.553-.918-.213-1.141.077-.522.16-.124.21.187.336-.213-.327-.947.696-.943.316.404.282-.065.135.243.118-.19.287.104-.104-.144.111-.234.293.373-.254-.594-.11-.052.545-.513.137-.393.331-.43.03-.225 1.058.17-.123-.168.227-.078-.285-.504.075-.09.213-.11.945.53.568.01-.083.242.242.4 1.179-.417.053-.17-.116-.025-.01-.156.172.021.019-.208.298.074.213-.521-.424-.376.212.07.116-.265.133-.055.55.064.03.124.668-.031.266.853.258.357.412-.134 1.176.258.01-.152-.118-.145-.183-.028.1-.176z" class="national-park"/>
      <path id="E26000011" fill-rule="evenodd" d="m-170.157 3657.858-.413.209-2.951-.674.122-.61.527-.388.126-.537.107-.043-1.662-.79-.24.022-.463.455-.65.064-.6.266-1.609-.642-.74.04-.209-.138-.15.13-.31-.348-.776-.084-.818-.315.176-.646-.177-.276.033-.103-.519-.586-.237.088.03.515-.199.293-.615-.024-.264-.413-.497-.089-.629.802-.209-.054-2.168-2.712-.482-.347.066-.094-.13-.217.197-.16.095.173.136-.151-.383-.479.19.003.476-.343.333-.307.172-.457.378-.313-.49-.954-.571-.285-.237-.345-.136-.477.16-.071-.042-.13-1.265.02.004-.379-.598.049-.135-.3.021-.263-.382-.575.858-.67-.423-.474-.12-.306-.225-.038.079-.499-.391-.68.564-.183.361.1.326-.487.105.25.427.209.124.027-.017-.25-.272-.128-.124-.312-.393.213-.572-.015.006-.192-.36-.208-.217-.4-.685-.502-.128-.518-.431-.273-.095-.307.204-.182-.038-.89.075-.294.208-.351.344-.233-.05-.054.122-.088.008-.2-1.32-1.027-.606-.295-.469.001-.083.12-.28-.224-.134.242-.36-.061-.761-.387.011-.12-.82-.65-.135.085-.109-.11.463-.25h.341l-.047-.449.092-.197.505-.4.603-.18-.197-.347.339-.086.37-.362-.305-.88-.107-.699-.213-.476-.037-.632.086-.292-.324-.75.12-.493-.213-.557-.397-.077-.19-.285.852-1.07 1.007-.827.645-.76.16-.497.047-.532.62-.886.06-.585-.09-.35.166-.103.076-.244-.394-.299.115-.044-.1-.104-.247.173-.103-.156-.102.105-.203-.246.122-.099-.214.1-2.053-1.454 1.438-1.254.29-.412-.12.06.098-.209.143-.07-.142.013.127-.185-.13.068.025-.485.588-.947.337-1.194.062-.591-.21-1.199.019-.398.195-.54.875-1.499.49-1.187 1.187-1.443 1.066-1.718.672-1.357.623.404.329.83-.057.215.411.097 1.158 1.448.928.722.073.223-.168.189.077.098.368.297.818.208.074.21-.05.219.345.742.512.336.342-.058.209.13.33 1.026.282-.173.032-.369.198-.192-.091-.452.56-.156.324.742.149-.379.227-.19 1.262-.526-.03-.638.133-.217.32.03.785-.34.837.269 1.193-.316.894.64 1.505-.121.35-.293.3-.67.307-.386.04-.294.517-.506.087-.37-.058-.675.286-.034.455.241.339-.636.402-.317.128.265.367.004.148.516.283.27.739-.56.215.642.348.082 1.082-.433.296.057.062-.226-.139-.24.24-.398.227-.003-.01-.169.089-.024-.068-.066.203-.193-.183-.256.123-.41.35.17.53-.079-.063-.29.07-.078.21.22.612-.114.02-.188.348.294-.059.185.174.489.005.321.432.01.126-.336.194.115.016-.172.538.252.504-1.079-.001-.283.51.016.134-.243-.154-.175.064-.134.631.09.736.452.29.276.175.382.527-.056.217.263-.003.232.533.255.18.358.013.236.304.186-.073.232.188.448.017.535.2.374.01.322-.321.481-.598-.179-.009.424.385.174-.181.392-.243.068.176.178-.135.454.382.264.772-.063.136.602-.002.79.365-.593.692.179.27.451-.029.808.24.468-.324.16-.035.265.176.278-.253-.022-.055.656.091.221-.052.08.238.468.07.514-.09.142.11.06-.016.363.152.105-.264.533.128-.055.276.217-.262.232.069.167-.568.502-.035.355-.461.559-.136.342-.345.187-.315.456.543.499-.227.223-.079.371.503-.086.556-.558.195.488.729-.057.462.216.401-.001.255.415.136.637.103-.085.216.124.345.47.691.522.265.587.532-.415.338-.102.017.166.155.018.117-.508.156-.122.216-.562.298-.145-.097-.282.189-.336.505-.163.778-.545.442-.065-.023-.095.676.068.675.592.327-.087.528.273.983-.198.03.565-1.001 1.214-.238.497-.073.62.235.424.141.77-.113.704.14.554-.053.15-.56.707-.42.027.014.194-.235.132.123.309-.308.46.043.31-.136.2.073.372-.479.037.033.086-.363.631-.041.322-.109.181-.158-.014-.052.381-.314-.036-.65-.625-.393.03-.122.581.023.73-.18 1.008-.067.37-.202.358-.01.679.109.133-.078.291-.245.052-.321.505-.242-.046-.248.17-.033.27.125.193-.171.28.364.527-.446.57-.665.424-.256.346-.008.257.442.154.132.207.824.053-.053.611-.143-.041.025.318-.186.46.001.281.218.508-.043.4-.079.414-.499.268.082.172-.312.165-.16.26-.142 1.023-.528.276.192.034-.41.612-.248.619-.238-.054-.19-.24.016-.29-.23-.064-.407.836-.257-.615-.267-.1-.555-.673-.314.364.047.17-.202.163.167.314-.036.243-.098-.053-.167.447.034.347-.409-.047-.163.474-1.625.863-2.533-.644-.036.186-.6.21-1.276-.147-1.13.092-.068.898-.251.45-2.154 1.737-.334.403.756 1.367-.387 1.6-.424 1.23.085.121-.091.184-.95.23-.072.266-.202.063.003.18-.85.11.008.182-.522.312-.133.229.103.36-.253.181.263.066-.024.093-.611-.104-.227.139-.852-.047-.373.51.106.66z" class="national-park"/>
      <path id="E26000012" fill-rule="evenodd" d="m-126.438 3591.276-.211-.128-.22-.896-.349.09.019-1.619.261-.698 1.453-1.393.436-.22.87-.113.448-.422.482-.205 2.212.589.726-.174-.03-.11.23-.18.435.025.042-.24.195-.17.765.159.603-.551.762-.362.061-.216.343-.29.144.108.153-.337.388-.095.971-.76.315-.486 1.084-.604.08.188-.043.255.421.656-.11.247.254.183.553-.19.556-.424.235-.384.298-.051.756.403.012.32.429.111-.017.402.827.058.442.404.946.153.33-.919.773.19.924-.347.897.083-.2-.733.122-.135-.005-.434.423-.434.369-.039.044-.338-.103-.298.067-.169.458.024.512.393-.09.322 2.57 1.526-.055.199-.503.526.445.641-.04.374-.636.664-.027.557-.197.4-.136.13-.594-.12-.305 1.434-1.049.65.207.609-.272.376.38.341.729.344.22.863.506.78-1.174.944-.302 1.623-1.33.641-.237.904-.289.229-.281.583-.924-.204-1.45.478-.502.686-.012.287.116.103.062.6-.527.87-.49.561-1.098-.286-.297.521-.015.439-.371.736.145.334.973.885.906.59 1.465.692.969.093 1.595.966.518-.029.389.976.957.244 1.382.82.52.019.649.877-.385.63.027.332 1.063.477.828-.224.562.057.216.425.6.234.04.089-.155.181-.702.356-.052 1.042-.202-.226-.788-.016-.514-.234-.21.13-.85-.135-.171.05-.012.254-.147.271-1.862-.022-.044.29-.12.12-.275-.145-.223.062.085.568-.363.31.14.121-.095.294.076.137-.97.174-.465.475-.73.02-.136.237-.278.096-.362-.118-.09.497-.331.307.092.406.197.038-.059 1.386-.68.72-.286.031.372.348.117.602 1.12-.294.817.198.531.296.462-.265.518.072 1.069 1.33-.037.134.2.183-.115.285.123.082.02.18.306.105.672-.284.147-.198.23.258.59.263.014.378.35.628.749.744.545.276 1.816-.11-.055.319.148.207-.76-.222-.084.393-.317.006-.273.335-.843-.136-.204.364.139.078-.12.312.181.296-1.334-.454-.203-.249-.358-.866-.598-.364-1.81-.302-1.216-.902-.41-.025.06.409-.76.505-1.506 1.47-.439.763-.042.995.26.364-.192.19.465.51-.602.268-.5.41-.226.852-.278.469-.523.017-.613.661-1.015.459-1.666.347.086.807-.548-.28-.46-.016-.55-.608-.85-.558-1.55-.401-.609-.531-.118-.258-.308-.084.085-.176-.386-.425.062-.255-.314-.137-.56.251-.235.63-.168.139-.75.31.17.246-.388.045-.657-1.213-2.58-.069-.805.347-1.005-.449.156-.413-.332-.192-.737-.23-.464.084.051-.716-1.811 1.293-.433.656-.389.064-.567.362-.133.484-.72.271-.788 1.387-.759.015-.429.554-.324-.02.086.17-1.28.597-.024.408-.151.314-1.317 1.449-.26.52-.262-.096-.034.484-.553.435-.259-.13-.459.152-.12.895-.593.653-.83-.047-.117.167-.81-.084-.291 1.107-.52-.19-.627.515-.565.761-.287-.414-.336-.213.247-.477-.433-.16-.028-.635-.362-.243-.036-.146-.366-.106-.156-.526-.404-.165-.106-.285-.588-.186-.154.118-.531-.096-.281.171.23-.831.12-.002.07-.67-.17-.193.063-.22-.767-.175-.19-.433.19-.599.106-.772.468-.801.105-.441.8-.453.176-.967.064.13.43-.04.179-.5.392.373.236-.494.513-.215-.127-.449.193-.244.938.325.064-.132-.085-.65.414-.273-1.317-.242.043-.16-.705-.677-.25-.587-.014-.62-.097-.085-.188-.792.054-.047-.154-.325.147-.702 1.102-1.302.086-.443-.11-.999-.175-.294-.41-.269.036-.209-.158-.418.072-.3-.071-.661.213-.319-.024-.262.2-.317.094-.594-.352-.08-.388-.74-.419.11.337-.35-.178-.252.505-.187.09-.22-.031-.537-.391-.328.15-.09-.19-.25.145-.145-.105-.237-.807-.157-.014-.34-.34-.527.012-.438-.186-.53.065-.245.304-.177-.065-.479.116-.979-.116-.244-.134-1.047-.205-.023.023-.138-.096-.097.128-.263h.145l.236-.936-.022-.32.313-.558-.028-1.06.53.017.098.313.32-.145-.167-.3.536-.368-.04-.279-.208-.03.081-.132.34-.048.21-.323 1.05-.674.644-.837.536-.401 2.116-1.158.447-.421.879-.062.469-.228.239.21.532-.07-.022-.248-.107-.043.505-.602 2.643-1.728.58-.604.029-.347.648-.5.222-.418.972-.42 1.22-.118.464-.892 1.486-.76.885-1.197.103.023.055.224-.102.874.14.137.417-.178.085-.749-.032-.69.048-.214.156-.093z" class="national-park"/>
    </g>
  </g>
</svg>
