<svg xmlns="http://www.w3.org/2000/svg" baseProfile="full" viewBox="0 0 455.74 548.871">
  <g transform="matrix(1 0 0 -1 357.28 3760.323)">
    <g id="region" fill-rule="evenodd" class="name reference">
      <g id="E12000001">
        <path d="m-85.444 3713.362-.315.536-.038-.084-.014-.38.367-.072zm-5.961 27.788-.732.446-.18-.333.912-.114zm-1.914 1.317.171-.036-.12.113-.05-.077zm2.938.533-.07-.54.333.388-.263.152zm.077.13-.116.127-.077-.08.193-.048zm-.219.053-.144.407-.131-.068.275-.339zm.548.34-.267.054-.135-.157.402.103zm.73.086-.62.63.276-.512.344-.118z" class="region"/>
        <path d="m-112.99 3760.323-3.123-1.66.027-3.068-5.068-4.286.526-1.25-4.514-5.32.778-1.096-3.976.592-1.681-1.436 1.523-.355-.415-.83 1.495-1.644.023-2.312 2.7-2.43 2.17-7.9 1.993-.675-3.66-3.921-1.633.442-4.176-2.425-.105-4.02-2.304-1.764-5.37.545-2.498-3.101-2.156-.509-4.885-5.65 1.965-1.245-1.044-.245-.066-2.059-1.97-.206-.92-1.921.007-3.453 1.462-2.955 3.23-1.125 2.33-4.233 3.95.134-.996-1.94 1.165-2.184-4.998-2.293-.026-2.791-1.565-1.581 3.126-4.087-3.35-4.344 1.787-2.975-.519-.742.825-2.155 2.007-1.678 1.963.367 4.724 4.49 4.707-4.957 1.035-3.053-2.409-8.445 3.278-2.122.273-1.29-2.057-1.81 1.136-3.408 5.29-4.272.665-1.824 1.399-.025.423-7.276 6.768 2.594 5.603-2.893 4.642 2.726.074 2.078 1.023.47 2.585-2.296.938 2.131-.198 2.412 2.594-.397.71 1.402 7.751-2.83-.602-.82 2.572-3.167 3 1.433-.39-1.04 1.298-.138.764-2.179.182 3.993-.953.527.78.571 2.432-2.607.611 1.585 1.441.038.47-2.081 1.595-.781 4.815 2.22 1.492 2.353 21.51-2.14-.25 3.878 1.2 1.777 1.484.239.557 1.107-10.59 2.676-4.03 2.753.654.27-6.698 2.558-2.037 3.363 1.162 1.71-6.578 6.086-1.405 7.073-2.13 5.01.267 7.27-2.94 3.214.345 1.335-1.778-.208 1.675.523-2.66 3.948.16 1.71-2.437 2.655.265 1.598-1.955 4.002 1.434 2.786-3.789 7.738-.21 2.336 1.489 3.076-3.398 4.784-.036 1.91 1.857 1.89.034 1.833-1.204 1.033-.011 5.37-1.458 2.1.56.771-1.381 1.436.796 1.612-1.395 3.11-9.445 7.796 1.967.345-.04 1.974-8.828 3.374-5.229 8.791z" class="region"/>
      </g>
      <path id="E12000002" d="m-149.713 3699.315-5.29-4.598-2.264-.339-1.078-2.602-6.33-6.056-5.146.334 1.402-1.581-1.733-4.931-3.403-1.047-1.643-2.176-8.52 1.394-2.104-1.938 1.928-.264-2.108-3.343-2.818-1.812.116-1.215.874 1.233.195.214.086-.022-5.098-6.573.883-2.305-1.27-1.477 1.1.268-.506-.52.718.02.136-2.111-7.68-10.528.454-4.107-.743-4.251-1.266-3.323-1.814-1.525 10.99-16.464 1.058-5.795 4.465-7.514.449-3.163 2.657-1.912-.95-.03 4.993-10.181 3.887.874 1.256 2.077-.345-1.331.685.792.19 3.13.467.895.179.18.924.265-1.281-1.519.762-5.17 1.476 4.972.686.918-.805-4.395.571-.666.249 2.298-.11-1.577.482-.211.935 2.005-.099-3.028.377 5.167.817-2.764 2.288-1.806-.438-.7 4.307 3.446 2.66.02-3.528-2.055.575-.549-1.06-2.06.762-.006-3.617-3.94.071-2.153-2.262-2.11-.319.913-.03-1.123-2.542.042.891-6.069-1.766-17.332 1.345-.623-.676-.403.84-1.09-.63-2.245.11.274.428.308-.036.232.219.198.13.044.09-.005.393-.23.029.054.154.112.118.034.021-.026-.35-.207-.488.243-.296-.506-.413-.292-3.633-11.105 2.701-2.04 3.074-6.2-7.524-1.815-5.588 2.073 1.93-7.65 1.676-1.92-.978-.792 7.02-7.412 3.616-.985 5.742-5.486-.309-1.661-3.74-1.614 2.86-3.006 3.482-.002-1.168-2.742 1.467-.974.817-5.433 1.394-2.378 6.146-1.314 5.172 1.27 2.102-1.578.472-2.239 1.4.885 1.767-1.644.454 2.512 2.239-1.433 5.576 3.635.586 1.514-.616 3.512 1.887.342 1.644 2.338 3.986.825 5.059 6.432.786-.282.059 2.529 3.462-1.248 1.783 2.077 2.562.101 1.407 3.435-1.926 2.771.023 9.443-1.398.55 2.326 4.417-1.953 1.593 2.317 2.147.791 4.594 2.761.525.688 2.663-6.386 7.381-1.497 6.25-3.72-1.169-2.478 2.627-.595 2.24 2.363 2.734.138 4.423 4.533 2.874.044 1.946-2.437 1.702.471.708-1.761 3.756-3.85 1.887-.766 3.232-1.65-.8-.263 1.935-3.57-.672-1.372 1.832-1.838.076-.005 1.509.708-.117-1.92 3.768-4.747-.793-.278 3.277-5.51 4.502.158 2.883 1.476.441 4.07 6.567 3.074-.172 2.411 2.366 2.041-.792.146 6.639.734 1.262-1.387 1.015-.056.524-1.33.939-.106.207-.311.238-.031.11 3.911 1.989-.596 4.101.85 1.867 6.828 1.809.437 4.354-.56 2.761-1.398.025-.666 1.824-5.289 4.272-1.136 3.407 2.057 1.811-3.772 4.541 1.67 2.792.96 4.524-1.035 3.053-4.707 4.956-6.222-4.871-3.034 2.938.256 1.652-1.786 2.983 3.349 4.336-3.126 4.087 1.565 1.58.026 2.792 4.998 2.293-1.165 2.183.996 1.94-4.233.1-2.046 4-3.23 1.125-1.829 5.15z" class="region"/>
      <path id="E12000003" d="m-43.578 3638.665-3.62-2.996-.031-4.11-21.266 2.292-1.492-2.354-4.815-2.22-1.594.782-.47 2.081-1.442-.038-.611-1.585-2.433 2.607-.78-.57.954-.528-.182-3.993-.764 2.18-1.298.137.39 1.04-3-1.433-2.572 3.168.602.819-7.75 2.83-.711-1.402-2.594.397.198-2.412-.938-2.13-2.585 2.294-1.023-.47-.074-2.077-4.642-2.726-5.603 2.893-8.133-3.316-3.387.276-3.216-2.978.585-4.192-3.911-1.99 3.22-3.032-.733-1.262-.146-6.64-2.041.793-2.41-2.366-3.075.172-4.07-6.567-1.476-.441-.236-2.488 2.267-3.062 3.321-1.835v-3.057l5.025.573 1.92-3.768-.708.117.005-1.509 1.838-.076 1.373-1.832 3.569.672.263-1.935 1.65.8.765-3.232 3.85-1.887 1.762-3.756-.471-.708 2.437-1.702-.044-1.946-4.533-2.874-.138-4.423-2.363-2.734.595-2.24 2.478-2.627 3.72 1.17 1.57-6.372 6.313-7.26 2.01.19 4.048-2.72-.038-2.843 3.127-1.764-.072-3.374 5.119-3.088-.442-2.508 4.008-1.879-1.211-.252-.876-2.512 2.4.496 2.66-1.573 7.145 3.472 1.235-.658-.01-1.61 2.727-.166 1.769 1.67 1.334-2.265 4.384-.488 3.591 3.463-1.33 1.442 1.34-.088-.417 1.225 1.667 3.575 1.984 1.823 3.679-.053 1.04.993.539 3.248 2.806 2.885 1.953-2.56-.878-1.389 6.61-.489 3.222 6.069 6.407-.665-.293-5.109 4.34.122 4.455 1.435-.829.524-.056 2.317 4.596 1.158-1.425 2.69-3.929-.831.575.788 3.447 2.684 5.18-1.49 1.81 3.015.138 2.401 4.362-4.536 1.718.042-1.569-3.36.88-1.95-.363-2.384 3.168-1.928 1.216-2.78 2.762 1.422-1.425 1.75 1.812 1.82.569 2.753 2.796-.316 2.439 1.734-2.496 3.464-9.586 5.597-5.033 7.55-8.954-1.07-.045 1.346 1.638.623 8.833 1.09 7.196-9.086.602.052-.839.84 12.566-4.047 1.15-1.08-.63-1.831 1.987 2.151-1.307 6.287-13.909 20.042-4.52 12.586.028 4.387 1.024 2.57 6.444 3.536-10.314 5.613-1.208 2.547 1.52 1.171-6.124 3.05-5.423 13.565-3.643 3.379.137 2.585-3.414 3.654-4.254 1.077-2.334 3.132-2.121-.476-2.164 3.176z" class="region"/>
      <path id="E12000004" d="m-16.685 3548.76-2.013-5.258-5.18 1.49-3.447-2.684-.575-.788 3.93.83 1.424-2.689-4.596-1.158.056-2.317.829-.524-4.455-1.435-4.34-.122.293 5.11-6.407.664-3.222-6.069-6.61.49.878 1.389-1.953 2.56-2.806-2.886-.54-3.248-1.04-.993-3.678.053-1.984-1.823-1.667-3.575.417-1.225-1.34.088 1.33-1.442-3.591-3.463-4.384.488-1.334 2.265-1.769-1.67-2.727.166.01 1.61-1.234.658-7.147-3.472-2.658 1.573-2.406-.493.88 2.51 1.212.251-4.064 1.928.498 2.46-4.74 2.617-.31 3.849-2.95 1.543-.136 3.06-4.047 2.72-2.225-.3-.474-2.554-2.7-.448-.852-4.67-2.317-2.148 1.953-1.593-2.326-4.418 1.522-1.24-.147-8.752 1.926-2.771-.822-1.403 1.515.977 7.253-4.962 1.112-1.857-.52-1.579 2.1-3.047-.587-1.35 1.035-2.69-.504-.873 1.434-1.168-.2-3.48-3.576-2.092-.174-2.914-1.357-1.385 1.189-4.016 3.106-.3 2.879-2.223 5.49-.481 2.303-2.107-1.4-1.403 1.206-1.519-1.24-1.7-3.083.306-2.071-5.037 2.624-.754.086-2.11 3.576-.07 2.693-4.075-1.606-1.654.937-1.91-.348-1.71 14.113-9.323 7.515-12.136-5.019-2.47 2.953-1.729-1.366-2.264.998-2.403-3.834-2.316 1.656-3.69-3.237-.668-1.068-1.641 4.689-6.822-4.068-.919 1.317-.811-.858-2.409 1.935-3.364-.296-3.139 4.825-.197 3.477 1.801.909 1.666-1.04.59.817 2.072 5.32 1.745-.871.861 5.02.689 2.421-5.367 1.55.58 1.562 1.992-.572.925 1.75 1.007-3.102 3.824.35 1.094 2.71.45.005 1.128 3.01 2.276 6.109 2.384 1.714 2.932-.558 3.974 2.475.703 2.07-2.3 1.424.326-.103 2.992 1.232 2.526 3.07.643-1.894 3.22.154 1.77 3.03.5 4.402 4.428-.526.322 1.685 2.73-.71 3.615-3.298 1.755.686 1.19-1.02 1.855.685.467-.45 1.345-3.53-.467-1.05 1.21 1.486 2.85-1.32 2.046.575.537 4.378.178 3.936 2.46 4.139-2.152 3.038 1.528.733-1.434 2.884-.086 4.305 2.178 4.718-.96 1.547 1.56-.262 2.995 1.084 1.196 6.83.731 4.781 3.445-1.513 1.073 1.556 3.66-3.079.37-.444 1.525.912.702-.839 2.993-.69 2.064-1.44.645 1.333.71.556-1.118-.104 1.988-2.654-2.026-.283 1.23-1.357-.677 5.248 3.807-.378 1.274-1.312.073L6 3483.402l-.317-.191-.365-.124-.1-.002 2.06 2.851-2.37-.438-2.756-2.913-.438-.36-.221-.081 9.787 9.804 1.62-.493 4.161 2.746 2.506 7.557.332 7.21-1 4.955-5.847 15.64-4.71 8.017-6.727 3.605-2.439-1.734-2.796.316-.57-2.752-1.811-1.821 1.425-1.75-2.762-1.422-1.216 2.78-3.168 1.928.363 2.384-.88 1.95 1.57 3.36-1.719-.042-4.297 4.379z" class="region"/>
      <path id="E12000005" d="m-109.078 3511.692-1.52-.355-.819-1.952-2.54-.062-1.27-1.917-2.32-.28-1.585 1.413-.06-2.53-.785.283-5.059-6.432-3.986-.825-1.644-2.338-1.887-.342.616-3.512-.549-1.456-3.227-1.227.2-1.476-2.595-.99-2.23 1.433-.587-2.503-1.634 1.635-1.405-.88-.467 2.234-2.102 1.578-2.338-1.018-1.37.904-2.005-2.357.376-4.135-4-2.74-2.26 4.351-2.584.915-2.307-1.28-2.568 2.8-3.345-3.65-3.386.075-1.013-3.35-1.854-.337.665-.49-.94-.579 1.374-1.073-1.965-1.808.655-.454-.926-2.147.527-2.373 2.234-.912 1.762 1.106.396-2.216 3.469-.357-.248-1.456 3.37-2.815-3.356.288-1.428-3.036-.227-4.03-1.806-.557 1.322-.97-1.655-2.86-2.78-1.264 1.559-4.061-1.201-1.272 2.653.644-.104 1.54 4.066 2.213 1.117-2.069-.54-3.026-1.587.356.176-2.054-9.353-2.31-2.132-3.054.891-1.946 8.843-6.658 5.908.07-.683-1.782-1.896-.7-.655-3.873 1.109-.582 1.537.138.86-.442-4.8-1.156-.464-1.712-1.604-.186.052-2.07-1.67-.942.415-1.724-1.547-1.844 2.777-.694-3.862-2.53 2.06-1.01-1.168-3.481 1.966-2.517-.48-2.518 5.07-8.634 1.738.048.489-2.087 5.032 2.64 1.822-1.062-.941-.726 1.11.339 4.098-3.363-.584-1.315 2.223-2.635 1.068 1.104 3.865-2.047 2.728 2.709 3.873.41 1.28 2.2 3.86 1.101-1.49 2.76.027 2.143-1.967.804 1.665 3.084-1.168 1.168.726 1.345 3.66-2.572 3.44 2.466 1.483-1.604-.102-2.514 1.454-.816 2.732-.019 1.711 2.615 3.1.041-1.267 2.091 1.43 2.852 2.555-1.152-1.333-.959-.598-1.867.562-.648 1.586 1.436 4.11-.971 3.017 2.829 2.92-.542 1.015 1.318 4.14-3.408.782 2.184-2.749 3.535 3.433.793 2.507 3.065 1.212-1.79.966.661-.117-2.43 1.612-.041.43-3.015 4.255-.555-2.917-3.638 3.205-3.412 1.153 1.36-.482.586 4.199 1.476 1.28 7.088 1.367 2.693 1.676-.338-.35 1.394 1.587.478 2.202-2.187 1.538.65-1.978 1.6 2.482 1.465 1.98 5.021 3.237.669-1.656 3.69 3.722 2.123-.886 2.595 1.366 2.264-2.994 1.624 5.06 2.575-7.515 12.136-14.113 9.324.348 1.708-.937 1.911 1.606 1.654-2.693 4.075-3.576.07-.086 2.11-2.624.754 2.071 5.037 3.084-.305 1.239 1.699-1.206 1.519 1.4 1.403-2.303 2.107-5.49.481-2.879 2.224-3.104.295-1.319 3.355 1.558 2.265.002 2.52 3.673 2.267.268 1.603-.113 2.01-1.387 1.039.504.872-1.035 2.69.587 1.35-2.1 3.048.52 1.579-1.112 1.857-7.106 4.176z" class="region"/>
      <path id="E12000006" d="m89.18 3472.441.123-.09-.125.103.002-.013zm-.184.172-.107.126-.014-.007.12-.119zm-.3.285-.102.118h-.018l.12-.118zm-.31.271-.109.126-.015-.01.124-.116zm-41.236 17.587-1.9-1.341-6.812 1.124-9.023-1.27-5.127-7.989-4.227-3.54-.266-3.769.812-1.85-.992 1.888-.09 7.377-1.934-.232-.245-3.057 1.194-2.127-4.505 2.343-2.362-1.14.443-1.527 3.079-.37-1.556-3.661 1.513-1.073-4.781-3.445-6.83-.731-1.084-1.196.262-2.995-1.522-1.55-4.743.95-4.305-2.178-2.884.086-.733 1.434-3.038-1.528-4.14 2.152-3.935-2.46-2.624.57-2.33-1.285 1.321-2.046-1.485-2.85 1.048-1.21 3.531.467.45-1.345-.684-.467 1.019-1.856-.686-1.19 3.298-1.754.71-3.615-1.685-2.73.526-.322-4.402-4.428-3.03-.5-.154-1.77 1.894-3.22-3.07-.643-1.232-2.526.088-3.012-1.408-.306-2.096 2.304-2.8-.956.908-3.725-1.704-3.02 2.254-1.137-.445-3.837 1.57-.489.859-2.1-4.295-5.614 1.443-1.037-.023-2.384-1.015-1.01.892-2.485-3.144-5.698 6.601-3.499 2.557-3.5-2.46-2.213-4.755.801-1.624 3.815-2.705-1.824 3.32-3.397.903-3.081 4.607-1.243 2.02-1.936-.73-1.68 1.068-1.353-.26-1.271 2.426-.86-1.772-1.136 1.085-5.399 1.156.109-.026 2.712 2.227-1.738 3.21.1 4.608 2.432 3.303.117 5.224 4.153 3.212.338 5.271-.988-.066-3.109 1.947-.459-.05-1.101 2.84-2.166 8.418 2.426 1.597-1.282 2.087-4.76 1.266.136 1.162-2.088-3.816-.926-.092-1.277-.82.966-.392-1.853-1.605-1.157 3.414-3.321 2.17 1.095 1.48-1.808 3.947-.077 4.562 4.483 10.3.403-.014 1.624 1.632.364 6.221-1.85 1.619.666-.5.852.775-.525-.316-.64 1.782.433-1.473.898 2.078.518-.985.515 1.904-.348-.614-.362-.117-.519 2.877.623-3.638 1.015 4.078-.172-2.475 1.825 4.084-.122.616 1.253-2.26-.337-.804.01-.198.034-.324.115 1.29-.116 1.97 1.153-1.82-.389 3.3 2.35-1.069-.057 1.501 1.288-.761.332 1.723.32-1.812.483 2.09.737-.887.304 3.122.742-2.092.67-8.153-3.55 3.927 2.323.659 4.935-1.386 4.193-4.945.24 2.304 2.1 4.734.414.595 2.262 2.573-2.943 3.764.362 5.404 3.264 4.117 4.93-1.078 2.662-.971.028 1.08 3.191 1.316.71-.352 1.269-3.898-.316-.028.553 4.125.788 1.207-.869-.174-.07.377-.675-.11-.808.029-.106.135-.113 6.085 6.535 1.83 3.847 6.511 3.613 2.446 9.244.617 8.228 2.399 3.077 2.817 8.004.354 4.318 1.913 3.47-1.968 6.136.573 7.492-2.527 8.095-5.863 6.952-16.153 12.422-25.371 5.423z" class="region"/>
      <path id="E12000007" d="m-.616 3371.314-8.483.65-5.224-4.153-3.303-.117-4.608-2.432-3.21-.1-2.254 1.719-.107-3.52 1.278-3.06-1.052-1.744.68-2.854-1.5-3.498 10.74-6.62.551-1.335-1.288-2.671.13-1.957 4.566 4.792 1.579-3.083-.636-.869 1.774.687 1.906-1.188.432-2.581 1.726-1.29 4.808 4.625 2.239-.854.707-3.326.997 1.401 1.433-1.616 1.805.658-.337 1.715 3.205 3.092.285 3.751.815-.028-.48 3.126 2.762 2.394 1.131 2.497-.732.712 1.746 1.584-.264 1.018 5.39 1.894-6.118 8.172-8.417-2.426-2.842 2.166.05 1.101-1.946.46.066 3.108z" class="region"/>
      <g id="E12000008">
        <path d="m-88.57 3280.869.03.04-.073-.032.043-.008zm.11.041.024.02-.059-.016.036-.004zm28.155 3.683-.003.077-.16-.036.163-.04zm-.658 3.113.045.03-.047-.003.002-.027zm1.255.89.04.025h-.04v-.025z" class="region"/>
        <path d="m-72.935 3290.123-2.51-2.436-9.34-2.877-3.522-3.85 5.63.306 10.746-8.055 6.122 2 1.357 4.627 5.289 2.936-4.436 4.922.95.273-4.952-.768-3.201 2.79-2.133.132zm11.755.267.029.023-.032-.005.003-.017z" class="region"/>
        <path d="m-37.967 3417.808-6.983-3.528-1.227-2.257-2.846-.527-.349-1.094 3.101-3.824-4.158-4.596-2.552 5.459-5.02-.689.872-.861-5.32-1.745-.817-2.072 1.039-.59-.91-1.666-3.447-1.795-4.81.164.252 3.166-1.935 3.364.858 2.409-1.317.811 4.068.92-4.665 6.467-.936-3.026-2.482-1.466 1.978-1.6-1.538-.649-2.252 2.184-1.536-.475.349-1.394-2.26-.332-2.088-9.149-4.174-1.438.482-.587-1.153-1.36-2.972 2.9.18-2.122 2.634-2.377-1.689-1.39.695-2.08-1.425-.242-1.57-2.8.274-5.54-2.09-1.87 1.807-3.896-.055-2.502 2.213-2.51-2.706-.228.276-2.637 1.78-1.535-1.707-2.658-.029-1.962 2.417-1.037 2.497-4.8 1.01.592.127-2.742 3.25-4.18-.14-2.099-2.474-.774 4.208-4.07-.293-1.19.836-.772-.702-1.63-1.631.804-.336-1.974.788-1.805-1.292-1.31.367-2.907-3.983.377-1.449-3.13-3.366-1.203 1.407-1.18.823-3.063-.498-2.578 2.04-.874-.337-7.49 1.836-.802.101-1.39-1.742-.795 1.444-1.815-1.139-2.11-2.13-.826-3.223 2.784-5.335.808-1.135 2.083-2.12-2.209-.032 1.93-4.584-1.461 4.63-6.412 3.506.88-.327-2.053-1.782-1.24-.278-2.332 2.585-.012.918-2.38-1.198-2.605 1.346-3.538 2.177 1.138.26-2.82 3.47.387-.574-1.313 7.858-2.712-.283.951 2.21 2.217 9.462 3.465 2.398 2.81-1.985 2.764.695.698 10.252-6.996 6.598 1.232.684-1.416-.427 1.08 5.867-.618 6.885-4.806 2.51 3.638 2.264 1.16 26 4.573 16.923-4.066 2.994-2.16 7.6-1.96 5.624 6.851 16.721 4.865 6.722 5.268 10.96-1.477.22 7.803 2.868 4.012 16.474 5.887-.802.742 3.617 1.806 1.4 2.448.09 5.486-1.216 6.65.206 1.369 3.001 1.766.583 3.524-1.07 1.759-22.148-2.4-3.219-1.588-1.627 3.888-11.365 4.435-.387 2.117-3.229 1.53-.011 1.399-11.254-.682-1.887-3.557-2.085-.685-3.583.115-1.48 1.808-2.17-1.095-3.178 1.984-.776-2.3-2.644-2.093-.4-2.03.762-1.396-.815.028-.285-3.75-3.205-3.093-.195-2.154-2.178.075-.528 1.322-.997-1.4-.707 3.325-2.239.854-4.808-4.624-1.726 1.289-.432 2.581-1.906 1.188-1.774-.687.636.869-1.579 3.083-4.579-4.784-.117 1.949 1.288 2.671-.551 1.335-10.74 6.62 1.5 3.498-.68 2.854 1.05 1.848-3.486 7.066.132 2.026 1.769 1.117-2.426.86.26 1.271-1.068 1.353.73 1.68-2.02 1.936-4.607 1.243-.904 3.081-3.33 3.425 2.716 1.796 1.624-3.815 4.755-.8 2.46 2.211-2.557 3.501-6.6 3.499 3.143 5.698-.892 2.486 1.015 1.01.023 2.383-1.443 1.037 4.295 5.613-.86 2.101-1.57.489.446 3.837-3.043 1.3z" class="region"/>
      </g>
      <g id="E12000009">
        <path d="m-356.162 3211.455-.09.031-.006-.034.096.003zm.033.09.038.07-.076-.033.038-.037zm.674.053-.006.075-.008-.005.014-.07zm-.337.049-.087.114.054-.14.033.026zm.322.071-.155-.077.142.01.014.067zm-.692-.108-.021.225-.06-.06.081-.165zm-.105.21-.082.133-.03-.065.112-.068zm-.072.232-.052.025v-.007l.052-.018zm-.094.204-.089-.053.146-.066-.057.119zm1.984.03-.208.132.106-.2.102.068zm-2.674.349-.108-.003-.05-.09.158.093zm.222.193-.16-.147.304-.058-.144.205zm2.609.445-.035.137-.14-.11.175-.027zm-.134.309-.113-.149.129.123-.016.026zm2.357.268-1.632-.192.747-.705.885.897zm-2.453.454-.497-.233.727-.216-.23.45zm.602 2.95-.337.01-.089-.155.426.145zm3.343.483-.615-1.723-.942-.695 2.597.281.196 1.37-1.236.767zm-4.762-.276-.2-.019.065-.178.135.197zm2.186.029-.787-.425.904.08-.117.345zm-.063.402-.197-.011.224-.044-.027.055zm1.216.122-.195-.054.198-.05-.003.104zm-.898-.734-.256.506.066-.368.19-.138zm-.68.734.032.09-.074-.058.042-.032zm6.001.336-.187.132-.035-.052.222-.08zm-.669.096-.212.153-.018-.012.23-.141zm-1.086-.097-.142.075.26-.226-.118.151zm.808.266-.322-.287.287-.21.035.497zm-6.484-.489-.122.167-.142-.067.264-.1zm.343.158-.106-.069.14.006-.034.063zm-.734-.038-.102-.054.046-.058.056.112zm7.509.484.104.147-.092-.074-.013-.073zm-.92-.043-.193.007-.057.034.157-.103.093.062zm1.21.199-.098-.085.144.006-.046.08zm-8.216-.426.024.074-.112.068.088-.143zm1.736.294-.1-.05.116-.02-.017.07zm.897-.072-.087.089.024-.116.063.027zm4.806.587-.234-.206.686-.285-.452.49zm.13.047-.112.067v-.09l.112.023zm-.617.031-.152.073-.009-.018.16-.055zm-1.582-.553-.226.647-.027-.034-.014-.076.165-.3-.107-.075-.033-.115.242-.047zm-3.963.418-.256-.081.25-.177.006.258zm4.067.136.01.361-.13-.289.12-.072zm-1.039.373.013.156-.05-.123.037-.033zm-.043.126-.057.127-.062-.069.12-.058zm-.506.193-.296-.058.31-.195-.014.253z" class="region"/>
        <path d="m-353.924 3220.29-.453-1.404.534-.122-.204-.653.833 1.134-.71 1.044zm1.687.065-.25-.207.26-.034-.01.24zm-1.037.063.56-2.575.719.442.493-.14-1.772 2.273zm2.229-.368-.68.568.03-.546.65-.022zm-1.734.656.511.238-.084-.21-.427-.028zm59.669 3.574-.155-.107.22-.045-.065.151zm-58.756-2.902-.09-.207.13.093-.04.114zm3.393-1.427-1.962 1.546.005-.34.2.019.01-.253-.748-.666.356-.59.382.156.563-.497 1.194.625zm28.815 8.76-.006.077-.068.014.074-.09zm-.083.142.037.036-.047.026.01-.062zm-.033.094-.091.027-.02-.035.098-.044.013.052zm11.894 1.266-.134.025.105-.136.028.111zm-10.551 3.336-.125.01.08-.081.045.07zm45.397 6.481.01.111-.054-.07.044-.04zm-35.929 1.635-.068.064-.016-.088.084.024zm8.352 2.447-.023.1-.051-.059.074-.041zm72.131 5.668-.17.093-.094-.184.263.09zm-1.778 2.344-1.243.07.265-.09.71-.054.268.074zm-17.464.53-.183-.291.133-.093.174.074.151-.09.101.043-.376.357zm16.645 1.429-.309-.015.353-.094-.044.109zm-60.182-1.939.019.035-.044-.024.025-.011zm13.161 20.869-.145-.1.207.021-.062.079zm2.753 1.732-.103.05-.03-.033.133-.017zm1.863.342-.114.134-.015-.134h.129zm10.398 7.58-.09.063-.016-.058.106-.005zm1.228.881-.082.039-.024-.053.106.014zm1.516 45.042-.078-.104.128-.163-.193-.508.38-1.203-.44-.72.264-.71.3-.503 1.116.377-1.477 3.535z" class="region"/>
        <path d="m-96.871 3408.337-2.741 1.342-1.284-2.491-3.433-.793 2.749-3.535-.781-2.184-4.14 3.408-1.017-1.318-2.918.542-3.018-2.83-4.11.972-1.586-1.436-.562.648.598 1.867 1.333.959-2.554 1.152-1.43-2.852 1.266-2.09-3.1-.042-1.711-2.615-2.732.02-1.454.815.102 2.514-1.483 1.604-3.44-2.466-3.66 2.572-.726-1.345 1.168-1.168-1.665-3.084 1.967-.804-.026-2.143 1.49-2.76-3.86-1.101-1.28-2.2-5.85-1.593-2.328-3.624-.106-3.052.988-1.352-1.378-2.067 1.058-2.256-.863-.426 1.509-2.401-1.644-1.025 1.132.151-.795-1.534 1.325-2.269-.526-2.461-2.49-2.245 1.762-.86-1.264-1.232.58.175-.431-2.092-4.584.039-18.723-13.415.138-3.16.652-.098-.212.275 12.215 7.694-1.491-2.409-3.853-1.113-2.102-5.299-.978.096.663-.622-.663-3.626-3.554-2.735 4.115.158.762-.299.583-.682-1.345.786.109-.072-1.53-.027-2.7-.445 2.426.332-2.104-1.77 3.378 1.443-3.93-2.675-9.805-2.856-6.645.37-2.83 2.591-5.027 1.532-4.332-1.454-9.11 2.646-1.368-1.298-6.502-.007-6.426-2.133-2.601.952-8.04-2.743.946-.546-.236-2.612-2.288-.862 1.802-2.193-.176-3.039 1.99-2.233-.586-.063-.791 1.33-.48.332-.377.032.81-.782-1.112-2.36-3.6-3.94-1.98-.619-10.268 2.872-1.092-8.23-1.381-2.245.695-3.364-.258-7.3-5.03-3.759-.148-2.115-1.41-1.748-4.58-2.316.244-1.598-1.693-4.298-5.43-1.699-2.054.97-.61-.635.811-.728-.378-2.875-.936 2.06-2.202-2.318-2.896.574.58-1.977-1.173-2.54.627-.802-.632-4.04-1.747-2.183-1.227.733-2.62-1.809-.821-5.281-3.974-2.217-.964-3.207-4.135-3.323-3.912-.325-1.658-3.325-2.347-.195-.535 1.666-3.407-.263-4.97-4.167-2.518-.169-2.069-3.34 1.085-3.403-1.395-2.078 2.032-2.594 5.716 1.462 1.932 1.62.527 1.539-.904 1.48 1.103 1.572 3.648-.056 1.888-2.25 6.303-1.098 3.331-5.284-.671-1.633 1.157-2.403 1.548-.49.196-1.024.468.026-.038-.247.107-.006 1.207.57 1.033 3.437 3.653.054.287 2.005 2.239 2.224-1.322 1.471.252 1.498-5.432.395 1.764 1.317 2.756-.31.821 3.262 1.928.321-1.992 1.994 1.762.162-.819 2.026 1.84 1.608.331 2.976.866-1.487-1.641-2.069.984-1.768-.566-2.337 1.26-.03.187.69.347-.169-.457-1-.788-.158.509-.838 1.536 1.07 1.61 4.512 1.87-.653 3.185 3.371 3.52-1.347 1.85 3.228-1.183 1.158.704 2.132 1.187.352-.763 1.848.538 1.03 3.083 1.094 1.602-2.657 2.294 2.246.725-.362-1.14-.435-.009-.35 5.559-.19 3.617.72 2.51 2.548 6.268.03 4.7-2.405.484-1.988 1.953.555-.703 1.347 1.98 1.436-2.461 1.68.878.225-.455 1.478-1.63.204 1.338 1.75 1.189-3.784 3.337-1.043.161-3.261 3.802-.575-1.249-.747 2.061-.941 4.916 1.43 4.971-3.89-.482-1.969 2.634-2.074 1.886-.658.277.08.118 1.386 1.326 1.203-.437 1.822 1.301-1.771-1.702-1.5 2.788-1.925 4.608 1.693-1.024 1.49.952 4.548 4.375 3.917-1.166 2.184.228 1.084-.815.83 1.355-1.209-.143-1.827 1.76-1.038 1.323.944.572 2.839 2.85 1.834-.634 5.592-1.553 4.624h-.737l4.814 8.419-.086.158-.928-.76-.113-.03-.033.017-.023-.02-.03-.01-.054.007.665.432-.758.586.036 3.695.654-2.682.39.322-.01-.313.07-.022.12.023.058-.012.174.04h.109l.062-.016.013.006-.008.024.008.011h.057l.01-.01-.12-.132-.569.075-.426-.268.618-.807 3.495-.885 7.211 6.38 12.56 1.826 5.232 2.926 6.612-1.331 8.87-4.88 7.635-6.14 2.704-2.948-.465-4.025 2.32 3.27-.389 1.671-2.138.158-.532 1.203 2.102 1.004-1.046 1.613 1.687 1.908 15.946-2.094 3.903-1.658.457-1.508 5.829 1.577.474 1.155-.775.828 1.914 2.278-1.642.624.645 1.954-.536.698 1.47 1.584 4.55 1.845 5.17-.726 3.74 3.56-3.48-.358-.267 2.822-2.17-1.14-1.346 3.538 1.198 2.604-.918 2.38-2.585.013.278 2.332 1.782 1.24.327 2.053-3.506-.88-4.554 5.392-.076 1.02 4.584 1.462.032-1.93 2.12 2.208 1.135-2.083 5.335-.808 3.223-2.784 2.13.827 1.14 2.11-1.445 1.814 1.742.796-.101 1.39-1.836.8.336 7.49-2.039.875.498 2.578-.823 3.063-1.407 1.18 3.366 1.204 1.449 3.13 3.983-.378-.367 2.908 1.292 1.31-.788 1.804.336 1.974 1.63-.804.703 1.63-.836.772.293 1.19-4.208 4.07 2.473.774.14 2.099-3.249 4.18-.128 2.742-1.009-.592-2.497 4.8-2.417 1.037.029 1.962 1.707 2.658-1.78 1.535-.276 2.637 2.706.227-2.213 2.511.055 2.502-1.807 3.896 2.09 1.87-.275 5.54 1.57 2.8 1.426.241-.695 2.082 1.689 1.389-2.635 2.377-.412 2.635 2.919 3.635-4.258.558-.43 3.015-1.61.041.116 2.43-.66-.787z" class="region"/>
      </g>
    </g>
  </g>
</svg>
