<svg xmlns="http://www.w3.org/2000/svg" baseProfile="full" viewBox="0 0 455.429 548.681">
  <g transform="matrix(1 0 0 -1 357.261 3760.128)">
    <g id="border" class="dataset end-date entity entry-date name organisation-entity prefix reference start-date typology">
      <g id="E92000001" fill-rule="evenodd">
        <path d="m-356.165 3211.456-.074.026-.011-.035.085.01zm.047.126-.036-.004.037-.008-.001.012zm.7.014-.04.044.003-.042.037-.002zm-.692-.011.031.02-.032-.013v-.007zm.28.041.012.007-.013.003.001-.01zm.015.016.009.018-.006.001-.003-.019zm-.002.054-.005.008-.003-.006.008-.002zm.307-.066-.117.091.003-.08.114-.01zm-.334.082-.002.023-.006-.01.007-.013zm-.291-.074.013.083-.06-.068.047-.015zm-.034.084-.062.043.048-.064.014.021zm-.046.138-.16.064.005-.032.155-.031zm-.124.192-.052.025v-.007l.052-.018zm1.765.24.075.079-.042.017-.033-.096zm-1.949-.038.001.023-.006-.005.005-.018zm-.714.304-.008.018-.016-.024.024.006zm.027.033.017.02-.018-.014v-.006zm.312.034.02.013h-.018l-.002-.013zm.049.013-.011.027-.01-.011.021-.016zm-.358-.018.03.022-.041-.01.011-.013zm.234.075-.013.017-.003-.006.016-.011zm.102-.01-.04.057-.02-.038.06-.019zm-.065.115.02.02-.023-.015.003-.006zm2.481.5.004.01h-.012l.008-.01zm-.045.166-.006.014-.005-.003.012-.01zm-.052.154.003.024-.015-.009.012-.015zm.928.45-.07.087-.023-.096.093.009zm-.12.166-.018.048-.02-.036.038-.012zm-.04.064-.012-.031.022.015-.01.016zm1.627-.46-1.299.418.04-.122-.115-.024.118-.168-.237-.25.04-.188.654-.525.799.86zm-2.3.328-.571-.032.703-.29-.132.322zm-.343.252.01.025-.028-.018.018-.007zm-.026.013-.034.06-.015-.009.05-.051zm5.24 1.184.021.04-.022-.007.001-.033zm-3.37 1.759.012-.022.001.018-.013.004zm-1.201-.162.11.058-.047.044-.063-.102zm63.286 3.492.017.005-.015.008-.002-.013zm-59.669-3.034-.605-1.732-1.027-.45 1.306-.746 1.371 1.043.154 1.183-1.199.702zm59.635 3.021.023.032-.022.034-.001-.066zm-64.502-3.317-.09.003.02-.105.07.102zm64.167 3.534-.112-.029.154-.064-.042.094zm-62.168-3.975-.255.874-.202-.697.457-.177zm1.371.981.015-.003v.009l-.015-.006zm-1.271.009-.049-.064.082.015-.033.048zm.224.013.011.004-.003.011-.008-.015zm.932.059.014.006-.01.006-.004-.012zm-1.451.043.012.021-.02-.015.008-.007zm4.449.215-.176.062.098-.087.078.025zm1.53.069-.036.148-.11-.054.146-.094zm-.645.114-.118.104-.014-.01.132-.094zm-1.157-.038.065.122-.072-.093.007-.03zm-6.057-.212.009.01-.02.003.01-.013zm.414-.064-.093.059-.003-.059h.096zm-.189.075.019.028-.024-.008.005-.02zm6.682-.069-.264.294.189-.303.075.01zm-6.178.085.004.054-.035-.017.031-.037zm-.701.011.03.02-.018.012-.012-.032zm.019.048-.033.024-.007-.033.04.009zm-.044.037.02.012-.028-.01.009-.002zm7.749.457-.129-.05.154-.012-.025.062zm-1.115.013-.106-.095.11.025-.004.07zm1.273.031-.095.06-.022-.057.117-.003zm-5.657-.14.009.01-.012.002.002-.012zm2.723.156.022.039-.057.015.035-.054zm-5.287-.311-.057-.015.055.009.002.006zm1.666.178.009-.008.004.005-.013.003zm-1.607-.137-.047.034.017-.054.03.02zm1.558.176.01.04-.02-.03.01-.01zm.998.203.016.007-.01.006-.006-.013zm5.169-.13-.59.456.303-.446.287-.01zm-.27.511-.01.036-.017-.02.026-.016zm-.66.047-.023-.01.029.007-.006.003zm-1.752-.027h.025l-.002.012-.023-.012zm.266.057.008.028-.017-.024.01-.004zm-4.031-.201-.18-.06.148-.168.032.228zm3.087.599.023.006-.003.007-.02-.013zm-.086.087.032.022-.009.06-.023-.082zm-.634.072.034-.007-.012.027-.022-.02zm.137.068-.059.033-.028-.025.087-.008zm-.204-.02v.045l-.015.007.015-.051zm.489.164.05.004.023.05-.073-.054zm-2.523-.09.034.023-.036-.005.002-.018zm.078.047.008.026-.019-.01.01-.016zm-.045.019.004.017-.01-.007.006-.01zm.02.013.005.019-.007-.012.002-.007zm2.473.069.054.097-.1-.074.046-.023zm-.862.024.21.07-.03.014-.18-.084z" class="border"/>
        <path d="m-353.33 3219.306-.821.732.244-.913-.375-.163.478-.186-.127-.551.602 1.081zm-.027 1.064.862-2.487.743.48-.173 1.021-1.432.986zm2.196.144-.492-.158.567-.202-.075.36zm.716.373-.451-.86 1.108-.68 1.271.58-1.928.96zm-1.591.073-.142-.402.396.267-.254.136zm58.971 3.174-.098.152-.094-.116.192-.036zm-56.926-2.864-.444.105.298-.452.146.347zm-1.914-.077-.098.187-.017-.105.115-.082zm32.275 7.527.009.025-.02.004.011-.03zm-.068.051.024.004-.041.015.017-.019zm-.032.095.014.01h-.016l.001-.01zm-.147.064.025.003-.02.02-.005-.022zm14.911 4.219.043.366-.109-.284.066-.082zm-13.482.365-.05.049-.011-.065.061.016zm-.02.143-.055-.061.073-.01-.018.071zm2.662 3.507-.032.066-.023-.054.055-.012zm42.773 2.873-.016.088-.025-.041.04-.047zm55.881 7.19-.03.068-.051-.026.081-.042zm.251.121-.237.19-.101-.132.338-.058zm-11.789 2.349-.027.016-.016-.017h.042zm.016.017-.016.019-.008-.018h.024zm.126.032-.094.13-.044-.09.138-.04zm-1.732 2.378-1.204.082.24-.076.59-.042.13-.009.244.045zm-17.324.309-.245-.079.364.03-.119.049zm16.506 1.624-.19-.04.22-.011-.03.051zm-17.419 1.826.037.186-.016.044-.054.063.043-.062.007-.034-.024-.198-.028.008.031-.157.036-.085.1.006-.07.036-.04.037-.012.017-.018.058.008.081zm10.031.68-.158.346-.056-.108.214-.238zm2.153.277-.14.18.007-.057.133-.123zm3.901 3.107.04-.026.007.02-.047.006zm-.523.022-.029.005.069-.018-.04.013zm-1.9.32-.108.004.02-.055-.017-.002-.032-.034.137.087zm-48.07-1.009.021.04-.029-.018.008-.021zm1.178 1.023-.246-.008.308-.068-.062.076zm47.964 2.057.021-.037.021.032-.013.021-.03-.016z" class="border"/>
        <path d="m-233.595 3262.438-.172-.043-.038.014.08-.04-.012-.072.142.14zm.078.075-.027.047-.01-.048-.01.007-.012.03-.007-.018-.015.013.006-.202.075.171zm0 .008-.008.05-.011-.014.02-.036zm-.091-.019-.02.078-.07-.029.075-.007.015-.042z" class="border"/>
        <path d="m-233.733 3262.561-.06-.14.176.031-.012.072-.104.037zm.203.007-.012.052-.073-.047.044-.025.017-.033.005.038.003.008.016.007zm-46.764 2.748.042-.01-.004.03-.038-.02zm-.046.57.046-.005-.048.096.001-.09zm80.79 4.031-.186-.096.282.122-.097-.026zm-80.431-1.907.04-.017-.013.052-.027-.035zm.049-.012.023.03-.026.024.003-.054zm.006.065.002.034-.02-.01.018-.024zm.043.054.002.017-.014-.01.012-.007zm-.033.013.012.02-.02-.01.008-.01zm10.076.913-.067.02.051-.044.017.024zm-.11.125-.026.038-.038-.032.064-.006z" class="border"/>
        <path d="m-269.89 3269.31-.321.02.186-.148.025.084.028-.025.028.01.026-.009-.01-.11-.05.009.097-.032-.01.201zm134.424 3.485-.017.1-.262-.127.279.027zm-142.574.139-.1.088-.124-.033.223-.055zm86.166 4.001v.127h-.007l.006-.127zm7.737 1.207-.149.066.113-.094.036.028zm-.063.222-.053-.154.107-.04-.054.194zm95.622 2.517.06.018-.081-.018h.021zm.118.029.024.02-.059-.016.036-.004zm-22.343 1.598-.182-.265.222.066-.04.199zm.443.082-.325.212-.058-.14.382-.072zm-2.481.664-.057.013.004-.042.053.03zm-2.493.096-.009-.077.047.022-.038.054zm2.421-.02.075.07-.035-.03-.031-.004-.009-.036zm.211.17-.049.004.035-.016-.004-.02-.059-.011.033-.034-.026.002-.02-.024-.018-.002.047-.09.061.19zm-2.631-.073-.121.045.105-.1.016.055zm3.189-.535-.37.737.065-.484.305-.253zm3.264.328-1.027.75-.747-.435 1.774-.315zm-4.21.827-.028-.043.017.013.047-.027-.036.057zm.172-.003-.164.004.074-.101.09.097zm-81.609-.301-.13.127-.133.074.169-.267.276-.024-.182.09zm134.201.887.02.009-.018.004-.002-.012zm-48.773.442.07.077-.075-.071.005-.006zm-1.029.088-.37.047.004-.09.323.006.043.037zm1.013-.122-.115.175-.016-.029.002-.027.108-.115.021-.004zm-2.467.816v.083l-.04-.062.04-.021zm-.008.179-.045-.098.08.025-.034.073zm13.614.183-.045.053-.016-.024-.023-.02.084-.009zm-13.392-.024-.34.133.12-.083.22-.05zm-.339.166-.043.085-.029-.08.072-.005zm12.173.435-.077.013-.004-.015.081.002zm-11.529.033-.372.029-.168-.053.54.023zm-.604.264-.047-.026.063-.109-.016.136zm.395-.107-.17.226-.085-.273.255.047zm12.668.289-.13-.023.235-.316-.105.34zm37.641.434.045.03-.047-.003.002-.027zm1.255.89.04.025h-.04v-.025zm14.005-.313.01.25-.12.02.11-.27zm-.065.324-.092.069-.018.006.11-.075zm-.252-.017.016.102-.09-.094.028-.015.047.007zm3.727.55.055.024-.018.039-.037-.063zm.141.22-.204.073.324-.137-.12.064zm.336.234.022.022-.004.01-.018-.032zm-31.209.525-5.125-3.576 1.902-.6-.354-.868-1.774.801.578-.759-2.217-.707 1.369 1.426-.716.713-4.346-1.853.408-.415-.263.009.198-.361-.439-.291.183-.642-.302-.316-.105 2.03.207-.082.244.17-1.138.03-3.592-3.868 5.685.319 10.514-8.06 6.284 2.06 1.244 4.483 5.029 3.015-2.136.851.679.078-.758 2.388-5.627 1.184-.827-.914.652 1.179-1.59.044-1.867 2.44-.883-.143.908-2.897-.82-3.083.41 2.935-.665 2.815-.95.465zm31.207-.498-.19.095.027-.082.163-.013zm-1.355.158-.36-.01.227-.049.133.059zm-18.007.611.029.023-.032-.005.003-.017zm18.79-.084-.03.031-.02-.01.05-.02zm-.063.041.019.012-.038-.012h.02z" class="border"/>
        <path d="m-42.474 3290.277-.058.102.056-.116.137.058-.135-.044zm.052.085-.045.036.003-.017.042-.02zm-.055.015-.022.046-.025-.042.047-.004zm.137-.001-.107.041.054-.048.054.007zm-.23.057-.027-.004-.01-.035.048.034-.01.005zm0 .002.01.032-.03-.018.001-.014.015.005.004-.005zm-.025.012-.077.025-.007-.005.07-.034.014.014zm.084.018-.046.004.02-.005.005-.005.003-.006-.013-.024.025-.005-.026-.032.04.046-.008.027zm.295-.043-.026.063-.001-.041-.032-.021.06-.001zm-.127.014.024.063-.03-.063h.006zm-.07.06-.044.005-.03-.042.074.037zm-.152-.01.02.031-.032-.04.012.01zm.065.038-.016-.033.011-.015-.003.025.023.026-.015-.003z" class="border"/>
        <path d="m-42.48 3290.537-.024.005.021-.013-.01-.022.006.008h.006l-.02-.036.024.032-.003.026zm.135-.045.018.06-.035-.035.017-.025zm-.19.028.046.045.005.037-.051-.083zm.124-.003-.054.065.01-.078.044.013zm-34.785.483.125.252-.34-.18.215-.071zm43.242 1.105-.065.013-.002-.007.067-.006zm.102.001-.033.014-.002-.006.035-.008zm.109 0 .102.021-.12-.01.018-.01zm.203.009.067.018-.113-.012.046-.006zm.118.014.113.04-.121-.037.008-.003zm.193.086.062.01.003.011-.065-.02zm.188.068.046.031-.055-.026.009-.005zm.123.052.053.028-.058-.023.005-.005zm35.694.438-.095-.137.172-.038-.077.175zm-52.195 1.207.216.072.05.034-.266-.106zm-11.395.347-.337.42-.164-.55.5.13zm12.535.73-.085-.022-.007-.086.092.108zm-7.715.043h-.257l.179-.169.078.17zm-.37.221-.236.154.128-.233.108.08zm8.066.43-.044.037-.004-.05.048.013zm-.062.085-.026-.056.072.029-.046.027zm-4.57-.744-1.711.734-.098-.328-.157.063-.11-.06-.072-.079-.03-.05-.247-2.52-1.589-.997 4.845-.746-1.744.759.813 1.227-.905.143-.24.554.897-.129.347 1.429zm-3.021.951-.204-.11.404-.302-.2.412zm3.394-.002h-.14l.103-.024.037.024z" class="border"/>
        <path d="m-59.88 3296.256-.481-1.074-.877.165.578-.84-.39-.525.351.028-1.168-.406.145-1.45 1.143-1.13 3.225.86-.769.277.004 3.623-1.76.472zm44.286-.666.054.027-.058-.022.004-.005zm-40.496.541-.775.134.023-.157.752.023zm40.645-.531-.033.053-.016-.066.05.014zm.194.036.027.023-.033-.007.006-.016zm-.011.02-.031-.036.034.023-.003.013zm-.408-.002-.011.015-.076-.057.2.023-.112.019zm.345-.037-.04.045-.006-.024.046-.021zm-.089-.015.041.061-.059-.01.018-.051zm-.026.075-.159.067-.06-.066h.219zm-41.319.85-.057-.015.027-.022-.01-.073.04.11zm.014.015-.093.056.02-.029-.026.013.03-.062.069.022zm-.091.069-.003.058-.034-.042.037-.016zm25.468-.181-.068.104-.017.005.085-.11zm-.09.124.047.075-.027.01-.02-.085zm2.186 2.486-.613.455.067-.117-.018-.42-.068-.11-.122-.044.754.236zm-1.013 2.49.024-.019.003.024-.027-.006zm30.299-.647.577.335-.054.169-.523-.504zm-28.001 5.647-.36.266-.414-.062.774-.203zm-224.954-.058-.036-.03.045.004-.009.026zm-.042-.029-.022.032-.07-.012.092-.02zm-7.357 22.152-.058-.02.004-.105.108-.147-.18-.477.364-1.236-.417-.685.24-.743 1.254-.232-1.315 3.645zm92.413 1.908.071.427.001.362-.072-.789zm230.531 6.426-.166-.02.202-.02-.036.04zm-235.32 3.844-.585.099-.082-.077.667-.022zm247.861-3.598-.245.234-.126-.41-.171-.307-.666-.62.184-.219.043-.28.068-.014.088.109.071-.002.2-.181.026-.276.43-.224-.101 1.69.106.278.109.09.292-.077-.068.19-.24.019zm-28.754 5.117-.4.093.17-.046-.172.038.09-.078.312-.007zm-.412.055-.073.099-.028-.055.101-.044zm-.086.109-.122.008.12-.035.002.027zm3.207.126-.045.051-.012-.04.056-.01zm-.367.045-.05-.003.102-.107-.052.11zm.116.193-.127-.039.124-.208-.012.06.024-.026.034.1.067.013-.081.047-.004.018-.017.01-.007.011-.001.014zm-.729.224-.068-.068.08.028-.012.04zm-.09-.029-.08.098-.05-.148.13.05zm-4.948.322.009.008-.054-.014.031-.017.014.023z" class="border"/>
        <path d="m43.173 3343.336-.088.002-.01-.014.098.012zm4.287-.205-.046-.045.272-.174-.225.22zm.406.024-.136-.12.158-.07.058.152-.08.038zm-4.34.223-.043.078-.01-.016.053-.062zm.829.014.009.045-.033-.042.024-.003zm-.789.07-.11.01-.022-.01h.132zm3.956-.224.009.089-.054.003.045-.092zm-3.117.209-.026.04-.018-.027.044-.013zm-.845.041h-.067l.033-.008.035.008zm.8-.023.01.045-.033-.023.023-.022zm3.403-.135.078.025-.008.029-.07-.053zm-3.487.19.007.023-.025-.006.018-.018zm.109.028-.068.008-.015-.012.148-.005-.06.004-.005.005zm3.405-.195-.01.117-.018-.111.028-.006zm-5.107.877.06.05-.048-.026-.012-.024zm.17.096-.057.122-.024-.14.081.018zm-5.729.364-.026-.013-.022.021-.045-.007.027-.038.066.037zm-2.526.378-.013.045-.01-.024.018-.005.005-.016zm-.155.016v.042l-.036-.042h.036zm.109.04-.048.014.012-.014h.036zm.152-.041-.043.072-.012-.1.024.031.03-.003zm-.088.036-.024.043-.012-.025.036-.018zm-.054.011.003.034-.05-.016.047-.018zm-.075.026-.029-.044.018-.03-.003.051.03.002-.016.021z" class="border"/>
        <path d="m34.651 3345.162-.073.037-.066-.036.11.004.024-.075.005.07zm4.404.128-.013.063-.039-.052.052-.011zm-.001.05.037.007-.019.018-.018-.025zm-6.437.115.156.154-.17-.143.014-.01zm4.313.145-.029.034-.005-.024.034-.01zm.024.04-.03.014-.005-.01.012-.022.023.018zm.356.061.023.007.067.038-.09-.045zm-.336-.038-.014.01-.055.051-.011-.042.08-.019zm.466-.394.026.5-.222-.238.196-.262zm3.623.527-.074.014.032-.054.042.04zm-6.765.044-.91.528-.268-.242 1.178-.287zm4.55.563.036-.035.012.006-.048.03zm-4.636.277.107.063-.142-.014.035-.05zm-.206.023-.089-.047.305-.043-.079.089h-.137zm-1.753.089-1.038-.389 1.214.066-.176.323zm1.088-.018-.118-.063.353.082-.235-.019zm.766-.052.128.064-.37.032.242-.096zm4.906.23-.029.14-.009-.029-.034.006.072-.117zm-.103.185-.044.005.003-.05.01-.007.025.003h-.006l-.006.017.027.027h-.007l.001.018-.004-.013zm-.438.083-1.419-.45 1.62-.867-.201 1.317zm1.039.645.006-.02.013.006-.019.014zm.668-.053.03.069-.1-.059.11-.048-.008-.018h-.02v-.014h.072l-.084.07zm-.571.093-.112-.013.13-.004-.018.017zm-.131.053-.102.008-.075-.017.11-.045.067.054zm1.273-.443-.041.086-.04-.046-.057.027.138-.067zm-.209.413.042-.126-.004-.013-.019-.012.052.032.045-.049-.116.168zm-58.954 1.715-.019.067-.018-.016.037-.051z" class="border"/>
        <path d="m40.518 3347.92-.224-.175.161-.007.083-.085.006.02h.011l-.013.014.006.007.106-.124.052.033-.096.199.003-.04-.04-.037-.038.013.006-.026-.034-.011.01.22zm-.992.05-.036.014-.009-.02.045.006zm.146.002-.087-.001-.017-.011.104.012zm.125.009-.03.027-.01-.007.04-.02zm-.117-.005.07.029.005.011-.01.005-.066-.045zm.22.024-.073.025-.025-.04.09-.016.005.025.003.006zm.138-.009.031.104-.026-.032-.07-.017.011-.027-.054.002-.032-.053.181-.086.163.093-.073.02.048.072-.125-.103-.054.027zm-5.282.319-.061-.001-.038-.012-.006.004.046-.034.059.042z" class="border"/>
        <path d="m40.144 3348.127-.048-.01.007-.022-.001-.041-.016-.048.058.12zm-5.951.192-.043.033-.022-.027.065-.006zm1.369-.243-.503-.02.48-.406.023.426zm4.791-.027-.141.084-.035-.05.176-.034zm-2.064-.573-1.29.817-.286-.465 1.576-.352zm2.04.678.044.04-.05-.002-.049-.044.039-.005.046-.094.047.01-.046.013-.005.01.047.1-.018.01-.04-.042-.015.004zm-6.095.246.009.023-.034-.075.025.052z" class="border"/>
        <path d="m40.61 3348.044-.1.238-.186-.088.056.008.03-.006.035-.047-.064-.073.229-.032zm-6.281.53-.035-.022.003-.012.032.034zm.406.008.031.036-.017.008-.014-.044zm-.107.074-.064.03-.022-.013-.004-.011.09-.006zm-52.745 1.542-.016.061-.13-.15.146.09zm53.557-1.671-.006.278-.193-.221.2-.057zm-.385.3-.032.012.068-.056-.036.044zm.517.204-.045.037-.016-.028.061-.009zm.097.116-.065-.016.08.002-.015.014zm-.19.054-.112.018.012-.068.1.05zm.117.047-.052-.028.115-.002-.063.03zm-.503.076-.066-.047.08.007-.014.04zm.977.091-.07.037.035-.11.034.073zm1.193-.019.076.085-.067-.048.007-.005-.016-.017v-.015zm-1.747.172.031.055-.095-.109.092-.015-.035.037.007.032zm1.866.031-.043-.11.115.086-.072.024z" class="border"/>
        <path d="m35.664 3349.529-.066.157.008-.1-.085-.024.045-.059-.06-.016.158.042zm1.666.063.015.027-.053.013.039-.04zm-1.813.05-.048.075-.09-.103.138.028zm-.197.045.036.055-.01.031-.025-.086zm-.059.054-.134.089-.013-.044.104-.087.043.042zm-.371-.2.043.28-.007-.047-.05-.091-.007-.044-.015-.02.038-.058-.001-.02zm-52.11 1.821.036.009-.066.032.03-.041zm52.849-1.554-.024.052-.1-.155.124.103zm-.321.01-.031.055-.032-.025-.053.012.116-.042zm.142-.009-.073.043-.018.006-.005-.005.095-.044zm.532-.363-.029.363-.03.083-.023-.263.022-.128.04-.058.02.003z" class="border"/>
        <path d="m35.276 3349.89-.113.034-.004-.018.066-.048.05.032zm1.722-.07-.215-.104.245-.032-.03.136zm.368.072-.027-.11.079-.002-.052.112zm-.714-.137-.42.088-.038-.18.217-.041.24.133zm.379.185.008.03-.07-.008.062-.023zm.078-.033h.05l-.04.06-.01-.06zm-1.714.035.032.094h-.007l-.025-.094zm1.474.047-.077-.081.15.054-.073.027zm-1.459-.059.075.122-.04-.018-.035-.104zm.858-.012-.52.07.38-.134.004-.098.136.162zm-.46.107.009.067.018.008-.032-.002.005-.073zm-.031-.002-.006.093-.071-.095.077.002zm.976-.111-.045.152-.041-.055.086-.097zm-1.281.216-.026-.07.047.026-.021.044z" class="border"/>
        <path d="m35.517 3349.81.103.374-.033.005-.014-.012-.059-.004-.002-.013h.024l.008-.013-.06-.034.066-.082-.033-.047v-.174zm.516.304-.004.084-.036-.076.08-.057.102.051-.142-.002zm-.609.056-.034.028-.01.01-.009-.011-.03.011-.012-.063.058-.044.007.044.015-.024.027.031.041-.012-.053.03zm1.381.166-.318-.102.317-.15.001.252zm-25.735 1.028.022.03-.04-.011.019-.02zm30.64-1.074-.776-1.937.314-.826.137.161.194-.058-.008-.083-.803-.57-.182.084-.192.254-.061-.009-.088.123-.078.036 2.372-2.334.337-.814-.23-.817 2.232.207 1.845-.77 1.016.601.12-.074.035-.32.761-.244-.013.072.015.045.005-.052.008.05.006.002.026-.007 1.214-.892 3.013 1.677-2.76 3.885-8.459 2.61zm-59.589 2.099.048-.2.039.299-.087-.1zm43.616-.293-.107.013-.028-.023.112-.003.023.013zm-42.35 1.597.002.079-.028-.064.026-.015zm.962.067.026.005-.061.033.035-.037zm-.847.063.012-.023.079.055-.091-.032zm.101.047.119.032.143.061-.262-.092zm27.643-.636-.052.045-.033.02-.004-.033-.018-.042-.023-.026-.042-.002-.015-.023.005.004.012.003h.062l.076.054h.032zm-24.937.731.083.096-.175-.15.092.054zm39.082 1.631.042.04-.041.03.003-.033-.004-.037zm4.641 1.055-.197.09-.228-.177.425.087zm-.992.133.163-.068-.184.306.02-.238zm6.079.075.018.132-.073-.025v-.027l-.014.02.005-.026-.01.025-.017-.031-.01.023-.04-.019.14-.072zm-.163.344-.128.025-.033-.05.16.025zm.231.021-.124-.03.049-.083-.01-.051.085.164zm-.457.069-.066.028.097-.146.061.067-.004.067-.088-.016zm.223.034-.003.01-.032-.028-.03-.004-.008-.011-.015-.007-.04-.01.003-.027.125.077zm-.29-.003.016.072-.036-.019.02-.053zm.507.001-.166-.044.171.028-.005.016z" class="border"/>
        <path d="m34.816 3357.315-.029.097-.085-.05.02-.054.094.007zm-.351.137.146.059-.07-.028-.127.01.05-.041zm.327.04-.15-.106.148.062.002.044zm-.309.017-.024.012-.05-.015.074.003z" class="border"/>
        <path d="m34.537 3357.494.031.03-.037-.02.006-.01zm.471-.054-.186.086.007-.24.179.155zm-.233.072-.136.052-.07-.056.088.016.118-.012zm-.092.052.046.009-.058-.003.012-.006zm-.285.001-.022.033-.004-.034-.01-.004.055-.001-.019.006z" class="border"/>
        <path d="m34.151 3357.589-.087.013.114-.074.353-.006-.2.026-.1.056-.032-.016-.035.051-.013-.05zm-.157.049-.128.043-.013-.022.14-.021zm.019-.008v.055l-.024-.024.014-.012.01-.019zm.434-.01-.037.06-.004-.014-.027-.023-.007-.023h.075zm.254-.03-.225.062-.032-.071.257.009zm.119.041-.174.06.1-.11.075.05zm-.974.034-.211.09.122-.087.09-.003z" class="border"/>
        <path d="m34.346 3357.551-.015.199-.044-.027.027-.054-.066.028.028-.064-.096.004.166-.086zm.222.197-.106-.085.184.034-.078.05z" class="border"/>
        <path d="m34.306 3357.746.001.018-.247-.08.133-.034.113.096zm-.311-.057-.328.116v-.019l.004.012.012-.035.05-.032-.04.033.241-.093.06.018zm-.545.139-.132.043.078-.056.053.013zm.126.059-.04.01.098-.033-.058.023zm.026.116-.034.017.146-.16-.112.143zm.609.034-.035-.026.087.002-.052.024zm-.545-.001.006.017-.031.018.025-.035zm-3.516.167.061.02-.02.024-.042-.044zm3.714-.247.045-.103.262.017-.307.086zm.253.111-.146.067-.078.044.148-.103.076-.008zm-3.923.186.026.035-.006.031-.02-.066zm.01.052.009.025-.012.011.003-.036zm3.412-.207-.068.11-.033.021.101-.13z" class="border"/>
        <path d="m33.578 3358.07-.113.164-.198-.101.225-.03.158-.084.068-.1-.043.086-.097.065zm-1.16.252-.003.018-.017-.01.02-.008zm-.048.008.017.019-.016-.006-.002-.014zm-.08.012.015.014-.037.011.023-.025zm1.14-.06-.834.15.616-.273.218.123zm2.204.013-.088-.042-.084.013.013-.027-.078-.07-.482-.138.517-.062.202.13v.196zm-.882.101-.094.021.04-.037.054.016zm-1.882.06-.453.065.164-.046.29-.02zm2.617.04-.014.02-.03-.014.044-.006zm-.079-.002.008.036-.052-.02.044-.016zm.046.019-.006.02-.013-.02h.019zm.104.041.01.014-.015-.01.005-.004zm.092.014-.048.016.006-.04.042.024zm-.103-.011-.087-.027.136.006-.05.021z" class="border"/>
        <path d="m35.6 3358.541-.028.06-.028-.008.011-.021.024-.006.021-.025z" class="border"/>
        <path d="m35.908 3358.625-.288-.135.103.001-.104-.059-.554.097-.314-.176-.568-.121-.284-.007.935-.254.157.153.508.188.029-.046.017-.002-.037.047.127.057-.029.046.047.03.109-.128.146.31z" class="border"/>
        <path d="m35.659 3358.579.027.047-.102-.013.075-.034zm-4.235.187-.041.04v-.041l-.162-.061.203.062zm-.051.055-.493.197.074-.103-.051-.095-.21.08.1-.056.091-.063.164.053.154-.116.171.103z" class="border"/>
        <path d="m30.635 3358.893-.3.398-.062-.21.025-.014v-.065l.009-.03-.03-.023.046.016-.026-.135.032-.007.007-.024-.083-.581-.21-.285.011.213-.264-.303-.157-.002.042-.034-.843-.017.07-.025-.056-.001.256-.47.05-.226.065-.128.82.017 1.856-1.15 2.45.584.483.528.086-.041.036.063.02-.009.157.06.01.017.09.006-.09-.014.07-.158.248.26-1.03-.18.424.188-.085-.014-.208.315.077.002-.005.097-.038-.046-.126-.023.03-.018-.51.12.088.037-.048.011-.02.054-.04-.1-.47.214.149.053-.384-.06-.053.351.122-.1.092.023.119-.115.107-.044.03.021-.302.221-1.099.197-.123.13.104.019.01-.083h.12l.054-.048.13.133-1.169.103.051.242-.073-.22-.34.246-.156-.06-.246.124zm15.805 2.217-.48-.224.81-.33-.33.555zm-4.902 1.024-.063-.002.109-.073-.014.033.032.03-.026-.003-.038.015zm.263.051-.057-.015-.007-.024h-.029l.002-.022.091.061zm-.041.01-.052.01.001-.033-.01-.009-.029-.003.01-.016-.015-.009.009-.01-.022-.03.107.1zm-.456.119.001.028-.029-.007.011-.009-.002-.009-.004-.005.016-.014.026.015-.013-.002-.006.003z" class="border"/>
        <path d="m41.305 3362.32.053.003-.003.006v.025l-.05-.034z" class="border"/>
        <path d="m41.503 3362.354-.053.044-.094-.062.147.018zm-.027.061.067.01-.006.032-.061-.042zm4.73 1.284-1.23-.926.62-1.118.106-.707.913 1.784-.41.967zm1.837.031-.258.236-.134-.28.392.045zm.102.74-.269.011.312-.198-.043.187zm-.805.544-.052-.097.149.015-.097.082zm-1.471.696-.145-.105.22.106-.075-.001zm-.122.018-.102.021.047-.054.055.033zm-9.503.472-.065.007-.04-.033.105.026zm-.166-.03.051.008-.048.096-.003-.103zm.004.171.046.008v.006l-.046-.014zm-.256-.031.022.064h-.04l.018-.064zm.225.008-.034.071-.162-.011v-.084l.196.024z" class="border"/>
        <path d="m36.253 3366.226-.056.162-.1-.125.037-.085.05.035.07.013zm.017.01.009.126-.02.004-.037.026-.012-.001.06-.155zm-.142.124.032.017.046.018-.066-.02-.012-.015zm16.906-.547-4.318-.451-.467-1.731-1.62-.193 1.425-1.91-1.087.964-.444-1.397 1.773-.601 4.738 5.32zm-16.846.762-.087.012-.012-.23.114.053.003.057-.018.108zm-.113-.125-.16.219.126-.31.012.088.022.003zm.162.188.134.015.068.053-.202-.068zm-.027-.003.008.12-.006.002-.003-.122zm-.106-.018.044.168-.043-.016-.001-.152zm-.116.191.03.023-.004.047-.026-.07zm.033.045.064.011.002.105-.066-.116zm.203.113.013-.011.01.022-.034.039.01-.05zm-.016-.168-.102.213.006-.212.096-.001z" class="border"/>
        <path d="m36.455 3366.707-.23.314.121-.23-.12-.139.172.088.057-.033zm.021.387.009-.341h.013l.013.03.045.03.04.013.028-.003-.148.271zm-.375-.047.354.103-.235.053-.011.007-.01.027-.098-.19zm15.22-.398.022.03-.088-.012.05-.006.016-.012z" class="border"/>
        <path d="m36.456 3367.152-.203.128-.176-.11-.065-.105.005-.177.156.335.028.017.255-.088zm.865.211-.336.005-.031.007.055-.018.312.006zm3.899-.123-.075-.059.228.027-.153.032zm-.337.022-.011-.068.034.035.038-.01-.061.043zm-5.608.255.032-.048.013.038-.045.01zm6.389-.33.175.1-.257-.112-.44-.01.369-.006.153.028z" class="border"/>
        <path d="m35.34 3367.516-.056.018.094-.072.013-.056.036.014-.087.096zm5.791-.311-.046.122-.088-.035.134-.087zm-3.819.182-.306.143-.024-.14.33-.003zm2.511.079-.058.012-.026-.054.073.02.01.022zm-.081-.01-.001.053-.011-.054.012.001zm.963-.129-.065.16-.045.004.11-.164zm-.849.198.06-.01.005.008-.065.002zm1.089-.096.185.1-.068-.002-.117-.098zm-.362.044-.002.087-.012.004.014-.091zm-.638.081-.03.036-.019-.027.049-.009zm.603-.075.019.036-.015.056-.004-.092zm1.118-.182-.53.23-.018-.112.548-.118zm-4.436.199.038.093-.036.026-.026.069-.039.022.062-.21zm2.543-.012.02.13-.047-.094.027-.036zm.677.074-.08-.026.117-.033-.037.059zm.466.03-.159-.119.193.001-.034.118zm.888-.067-.068.046.011-.095-.043-.105.1.154zm-.689.017-.017.06-.056-.031.073-.03zm-.417.074-.013-.164.103.154-.09.01z" class="border"/>
        <path d="m39.933 3367.593-.074.02.007-.052.04.034.027-.002zm-.04.069-.008.014-.025-.015-.03.015-.039-.053.102.04zm1.262-.045.128-.064.011.061-.14.003zm-1.202-.067.169.13-.172-.09.003-.04zm1.944-.082.119.147-.084-.016-.023.014-.012-.145zm-1.38.197-.177-.013.201-.171-.024.184zm-.207.025.025-.028.008.018-.034.01zm-.041-.011.031.01-.03-.004-.001-.006zm.168.018-.055-.005.074-.007-.019.012zm1.395-.218.06.146-.017.04-.043-.186z" class="border"/>
        <path d="m42.134 3367.62-.237.06.034-.072.086.01.034-.026.083.028zm-2.07.062-.019.075-.008-.018.027-.057zm-.104-.029-.104.09-.018-.06.016-.016.027.015.078-.029zm.097.03-.114.08.017-.1.097.02zm1.408-.012.005.057-.133-.061.128.004z" class="border"/>
        <path d="m40.252 3367.743-.335.049-.074-.038-.24-.341.12-.004.088.026.063.026.017.001.068.043.145.037.204-.008.527-.338.036.116.086-.096-.072-.033.145-.044.072.01-.25.264-.146-.092-.38.21-.007.108-.175.038-.011-.1-.153-.03-.166-.11-.102-.027.01.08.073.164.065.097.048.017.12.004.216-.056.008.027zm1.909-.058.02.048-.12-.057.086-.047.014.056zm-.529.006-.073-.113.175.157-.102-.044zm-5.018.279-.013.05-.03-.007.043-.043z" class="border"/>
        <path d="m41.814 3367.856-.033-.088-.208-.194.085-.144.057.24.166.108.527-.06-.33-.12-.349-.272.726.351-.095.12-.546.06z" class="border"/>
        <path d="m41.777 3367.804-.176.043-.178-.123.08.009-.021-.098-.163.025.02.03-.189-.047-.424.198-.444-.13.107.01.122-.036.057-.102-.01.075.408.047-.264.051.26-.038.011-.01-.024-.084h.545l.025.118.085.084.173-.022zm-5.244.306-.079.063h-.021l.1-.062zm-.109.07-.183.08-.008-.008.19-.072zm.076.16.069.075-.043.019-.027-.093zm15.816 2.703.05-.025.015.01v.03l-.065-.015zm-8.983 1.379.023-.004-.001.011-.022-.007zm4.05 2.071-.124.076-.062-.106.129.06.057-.03zm-8.345.577-.081.006-.013-.01.094.004zm-.17.023-.03.015-.027-.003.057-.012zm.109.065-.049.014.027-.02.022.006zm-.135-.013-.01.048-.02-.014.03-.034zm4.538.107.005.052-.063-.037.058-.015zm-4.23.226-.02.004.01-.035-.001.028.011.003zm4.42-.181-.17.064-.036-.027.206-.037zm-4.45.183-.015.06-.016-.019.03-.041zm-.434.095-.121.019-.032-.037.153.018zm4.48-.169-.207-.088.29.018-.083.07z" class="border"/>
        <path d="m42.634 3375.414-.541.018-.09-.174.974-.549.579.137.289.196-.202-.105.045.234-.102.068-.125-.066-.174.1-.006.046-.41-.02-.057.014-.18.101zm.72-.112-.106.146-.07-.036.176-.11zm-4.698.347.02.006-.01.02-.01-.026zm-.223.031.031.016-.048.01.017-.027z" class="border"/>
        <path d="m38.408 3375.65-.013.09-.002-.046.016-.055.023-.04.042-.03.054-.008-.12.089zm.237.05-.028-.041.034-.004-.006.044zm-.126.114.018.017-.008.003-.01-.02zm1.621-.029-.413-.766-.313-.224.915-.229.255.118-.444 1.1zm-1.605.048.011.029-.019-.02.008-.009zm.015.031-.006.024-.006.006.012-.03zm2.99.346-.069.003.003-.033.066.03zm-1.817.027-.061.064-.025-.05.086-.014zm1.806.026-.005.01-.036-.014.055-.02.025.02-.039.004zm.025.033-.056-.025.107.014-.051.01zm7.795-.118.06.015-.023.024-.037-.039zm-4.744.382-.045-.006.075-.012-.03.017zm-1.567.075-.03-.028.035.015-.005.013zm-.113-.05.046.009.013.06-.059-.069zm1.585.002-.01-.013.063-.007-.053.02zm-.022-.004.01.018-.028-.005.018-.013zm1.276-.025.005.012-.028-.03.023.018zm.041-.044.001.055-.065-.07.064.015zm-1.78.092.054.03.001.012-.055-.042zm-7.151.302.033.017-.002.006-.03-.023zm7.541-.258-.05-.044.086.01-.036.033zm-7.5.277.013.02-.014-.006.001-.014zm6.29-.254-.044.042.006-.058.038.016zm6.126-.257h-.125l-.084-.208-.093-.082-.041-.131-.039-.026-.011-.076-.067-.066-.005-.043.465.632zm-6.355.253.037.056-.04-.014.003-.042zm1.022-.016.054.018-.007.02-.047-.038zm2.872-.189.188.061-.207-.037.019-.024zm-3.87.281.031.032-.04-.022.008-.01zm.098.012.032.053-.037-.048.005-.005zm.091-.009-.005.075-.027-.052.032-.023zm3.664-.096.052.002-.017.037-.035-.039zm-3.798.152.05.013v.027l-.05-.04zm1.011.025.004.04-.04-.027.036-.013zm-.85.041-.018.048-.013-.068.031.02z" class="border"/>
        <path d="m44.14 3376.893-.039-.002.013-.049-.112-.072.106.01.033.113zm-.047.03.01.072-.025-.021.015-.051zm3.298.167-.085-.043.062-.032v.037l.105-.011-.082.05zm-.087.07-.145.105-.02-.153.165.049zm0 .127.001-.043.023.021-.024.022zm1.493 1.044-.012-.024.03.014-.018.01zm-1.445.033-.047.02.099-.067.074.07-.046-.034-.08.01zm1.369-.028-.075.073-.01-.016.085-.057zm-.131.104-.063.019-.011-.023.073.003zm-1.162.094-.05-.072.094.047.05-.011.02-.057.022.066-.136.027zm-.122.001-.015-.08.073.032-.039.05.012.035-.031-.037zm1.17-.022-.072.019.119-.047-.047.028zm.543-.007-.054.015.067-.027v.007l-.013.005zm-.832.124-.202.065.05-.043.152-.022zm.516-.052-.142.083-.137.06.279-.143z" class="border"/>
        <path d="m49.185 3378.526-.642.235.039-.036.212-.114.023.017.133-.107.003.023.052-.018.05-.041.13.041zm-1.281.271-.478.117.082-.108-.056-.16-.077-.05.529.2zm-.249.149-.271.032-.004-.015.275-.017zm-.293.034-.342-.124.127.042.08-.133.014.135.086.053.066-.028-.031.055zm2.088-.144.03.093-.043-.066.013-.027zm-2.252.214-.1.004-.073-.085.173.08zm.932.072-.16.039.146-.054.403-.034-.137.078-.251-.029zm1.608-.118-.174.14.066-.073-.056.006-.085-.143.249.07zm-.28.171.01.096-.014.021-.008-.025-.016-.008-.002.006-.002-.016.02.003.008-.023-.024-.026.028-.028zm-.067.082-.065.068.008-.072.057.004zm-2.225.291-.02-.001.01-.016.01.017zm-.046-.03-.109.004.202-.058-.02.011-.002.025-.07.018zm.275-.141-.106.2.022-.06-.02-.073-.035-.031.139-.036zm-.376.179-.01.08-.014-.095.024.015zm-.375.069-.263-.357.18.037.048-.055.149.044.07-.03.096-.079.211.057.181-.174.34.044-1.012.513zm.229-.015-.042.046-.04-.014.082-.033zm2.527-.079-.022.03-.025-.028-.043-.008.09.006zm-1.65.075-.039.036.004-.082.017-.009-.032-.054.03-.04.02.149z" class="border"/>
        <path d="m49.346 3379.538.018.051-.057-.054.04.003zm-1.691.082-.188-.252.227-.104-.039.355zm2.5-.06-.163-.174.25-.011-.087.185zm-.802.027-.101.144-.024-.014.014-.024-.02-.037.074-.09.057.02zm.47.021.052.07-.027.091-.025-.16zm-.721.308h-.046l.04-.02.006.02zm-.054.012.03.006-.038.017.008-.023zm-.026.036.032.009-.059.019.027-.028zm-.036.036.022.02-.046.011.024-.03zm-.05.07.047-.019-.068.069.02-.05zm.64-.204-.359.274.448-.652-.09.378zm-.819.356-.253.036.092-.05.218-.028.092-.052-.149.094zm.53.02-.04.036.057-.085.317-.234.109-.237-.047.414h-.032l-.004.011-.037-.03-.07-.006-.253.131zm-2.274.018.096.124-.106-.113.01-.012zm1.464.024-.372.155.34-.168.032.013zm-1.137.22.158.042h-.071l-.087-.042zm.53.03.001-.08h.208l-.21.08zm-1.31.068-.073.088-.017-.072h.035l.055-.016zm2.337-.023-.126-.03.255-.084-.13.114zm-.291.239-.113-.21.286.121-.173.089zm-.097 0-.045.03-.002-.028-.005-.003-.034.017.006-.042.08.026zm-.096.019.01.017-.048.01.043-.077-.005.05zm9.346-.244-.087.127-.07-.046.157-.08zm.072.07-.023.254-.086-.204.11-.05zm-.161-.806-.364 1.233.282-1.202.331-.475.395-.063-.211.067-.19.206.026-.089-.014-.01-.255.333zm-7.797.592.418 1.089-.187-.347-.231-.742zm1.161 1.247-.212.258.005-.04-.03-.113.015-.038-.058-.008.072-.102-.104-.108.312.151zm.394.3-.149-.108.051-.065-.003-.03.031-.012-.155.013.165-.024.06.226zm-.76-.212-.045.196v-.006l.001-.007-.003-.013.01-.05-.012-.06.049-.06zm1.056.314-.15-.067.175-.008-.025.075zm-.219-.163.113.21-.19-.112.077-.098zm5.897.271-.1.182-.22-.064.32-.118zm-3.152.732-.307.092.462-.292-.156.2zm4.093-.061-.295-.017-.006-.017-.045-.02-.018.001.007-.026-.02-.013-.03.006-.02-.042-.129-.086-.045-.009-.016-.088-.021-.015.638.326zm.301.005-.135.103-.012-.006-.02.004-.02-.01.017-.035-.009-.036-.011-.013.011.006.012-.007-.025-.013.192.007zm.112.049-.101.006v-.024l.101.018zm-4.081.509-.392.151.518-.374-.126.224zm-1.633 1.033.026.026.015.026-.03.047.025-.044-.02-.035-.03-.022h-.008l-.07.016-.026-.068v-.177l-.038.006.013-.039.108.02-.076.018.007.17.104.056z" class="border"/>
        <path d="m53.663 3384.005-.57.516-.106-.243.676-.273zm14.974 3.203.022-.062-.01.06-.012.002zm.108.078-.05.056-.056-.128.046.048.008.005.052.02zm-.015.124.04.186-.134-.175.093-.012zm1.543.452.043-.075.288.14-.33-.065zm-.386.272-.157-.026.133-.007.024.033zm-.129.151-.083.099v-.104l.083.005zm-.095.006-.139-.038-.207-.03.113-.037.233.105zm-1.315.271-.092-.03.106-.003.03-.078-.023-.069.02-.005.01.122-.051.063zm.279-.242-.193.242.04-.267.153.024zm-1.387.257-.166.109-.108.005.274-.114zm3.147-.045-.581-.223.75-.193-.169.416zm.919.328-.077-.001-.022-.009.061.007.045-.015-.007.018zm.064-.035-.04.04-.01-.02.05-.02z" class="border"/>
        <path d="m71.316 3388.948-.051-.071.084.019.04-.058.044.01-.117.1zm-4.014-.114-.08.122-.449-.056.529-.066zm3.799.194-.034.028.064-.073-.153-.035.125-.007.118.082-.02.011-.004-.018-.01-.01-.023-.006-.03.004-.033.024zm-2.936.227-.339-.12-.186-.165.497.244-.009-.235-.146-.31-.002-.133-.008-.01-.13.535-.686-.65.849.1.15.412.01.332zm2.758-.055-.089-.206-.075.011-.043-.06.286.106-.036.027.017.006-.01.008v.008l.015.014-.066.048.001.039zm-.583-.599-.098.683-.117-.166-.012-.288-.257-.095.484-.134zm-2.872.763-.086.085-.041-.017.127-.068zm-.278.144-.114.014.155-.13-.04.116zm2.8.032-1.546-.179-.182-.556 1.012-.579.715 1.315zm-1.523.16-.513.28.501-.276-.42-.117-.067-.057.003-.111-.072.02-.03-.015-.011-.04-.027-.004-.125.057-.246-.121.252.108.143-.056.156.049.456.283zm.7.122-.474.566-.194-.258.05-.226.618-.082zm-.767.815-.146.303-.46-.098.606-.205zm.524.014-.47-.023.862-.633-.034.644-.358.012zm-.266.712-.267-.06.288-.085.201-.302.027.017.034.007-.002.024.024.006.026-.23.274.023-.605.6zm1.413 1.047-.065.088-.405.026-.034-.307.067.083.036.03.15-.116.058-.077.193.273zm.172.459-.03.037-.093-.048h.157l-.034.01zm-1.39 3.379-.207.006-.007-.071.214.065zm.122.081.027.158-.037.006.003-.005-.001-.017-.016-.082.024-.06zm-.167.032-.139.05-.095-.138.234.088zm-4.696.455-.035.051-.035-.047-.07-.073.14.069zm5.427 2.327-.042.089-.016-.075.058-.014zm8.034.658-.024.057-.055-.112.073.024v-.015l.046-.02.014.002-.054.064zm-1.649 1.229.093.374-.053-.102-.04-.272zm.052.78-.025.024.035-.101-.01.077zm-1.328 1.45-.112-.01.03-.074.082.084zm-.144.203-.048-.001.006-.02-.007-.021-.027-.052h-.011l.029-.036-.048-.205.106.335zm.006.02.025.292-.193-.258.107-.004.061-.03zm.015.297.067.039-.062.073-.005-.111zm.479-.152-.341.48-.002-.06-.048.03.157-.245-.102-.09.336-.115zm5.945.378-.171.035.03-.05.058.023.023-.011.02-.033.04.036zm-5.909.411-.128.145-.018-.018.146-.127zm-.172.285-.044-.038-.069.013.061-.113-.023.06.075.078zm-.642.548-.09-.095.003-.11.087.205zm7.904-.234.544.53-.066.017-.036-.058-.101-.086-.17-.071-.172-.25-.111-.052.112-.03zm3.49 2.147-1.34-.854-.829-.231.879.112 1.29.973zm-10.58 2.216.051.018.002.036-.054-.054zm9.085 4.646.017.082-.049-.053.032-.03zm3.346.038-.18-.252.26.08-.08.171zm-3.455.709-.018-.226.119-.035-.025.043.062.13-.058.03-.018.017-.002.007-.034.018-.015.016h-.01zm-.136.038-.152.066-.031-.012.179-.061.036-.282.014-.026.106-.11-.082-.078-.03-.102.07-.206.046.389-.155.421zm1.307.043.024.004.005.015-.029-.02zm-.036.003-.064.007.097-.04-.019.05-.015.006.001-.023zm4.529 14.031.372.187-.4-.041.027-.146zm.898.569.182.07-.093.1.067.14-.156-.31zm.443.739.093-.315-.183.09-.188-.196.278.421zm-6.528 11.906-.056.046-.007.002.063-.048zm-.095.057-.011.07-.082-.046.093-.024zm9.621.956-.41.26.01-.195.4-.065zm-2.259 9.435-.487.99-.128-.5-.767-.725-.213-.095-.682.059.051-.42-.908-1.053-.727-.15 2.299-2.15-.043.112.07.52-.12.098-.328-.056-.158.023-.126.063-.143.21.05.285.073.213.14.212.768.216.15.321.349.367-.033.792.131.35.212.166.386-.007.184.159zm3.751 3.651-.025.006-.1-.181.07-.16-.033.2.088.136zm-9.694 7.998-.072.097-.048-.03.076-.022.044-.045zm-.257.314-.055-.007.06-.008-.004.015zm-70.48 9.694-.353.233.089-.067.01-.023.002-.048.251-.095zm-.058.274.032-.226.087-.05-.044.09-.035.133-.04.053zm-3.072.537.01.121-.006.024-.02-.037v-.038l-.005-.04-.007-.02.029-.01zm-.222.476-.182.028-.082-.035-.014-.02-.032-.02-.033-.01.065-.097.028.02.04.017.083.014.019.021-.03-.004-.007.001.088.02.007.041.05.024zm.14-.023-.134.027-.051-.065.018.011.053.016.114.012zm77.312-3.029.123-.09-.125.103.002-.013zm-77.304 3.022.119.062-.014.07-.105-.132zm.088.187-.085.037-.211-.13-.055-.017.351.11zm-.161.061-.117.004-.008-.011-.064-.032-.036-.013.225.052zm77.193-3.098-.107.126-.014-.007.12-.119zm-.3.285-.102.118h-.018l.12-.118zm-.31.271-.109.126-.015-.01.124-.116zm-82.01 8.071-.066.097.02-.661.046.563z" class="border"/>
        <path d="m6.483 3481.666-.893.06.13-.909-.01-.018-.058.01.005-.03.017-.01.108-.012.047-.012.066.01.025-.008.03-.002.066-.009.056-.012.01.021.096-.016-.014.538.319.399zm-4.75.41-.03.13-.068-.093-.068-.053.166.016zm.981 1.425-.253.136-.068-.367.321.231zm.036.03-.114.216-.028-.1.143-.116zm.266-.227.268.465-1.519-1.666 2.014.86-.763.34zm.802.674-.32-.111.09-.11-.074-.062-.022-.059.326.342zm-.485.502-.029.02.081-.065.03-.003.058-.022.023.006.015-.052.083.082-.039.037-.073-.026-.08-.007-.069.03zm.047.08-.01.025-.07-.025-.015.013-.037-.028-.13-.039.263.054zm2.039 3.299-.046.285-.158-.244.204-.041zm.051.173.057.472-.032-.143-.101-.176.077-.153zm42.842-.432-.036.15-.004-.005.003-.019-.004-.006-.03-.036-.027-.017.098-.067zm.172.116.034.02-.04-.002.006-.018zm-.555-.126-.181.124-.088-.132.269.008zm.824-.025-.022.27.01-.16-.348-.173.042-.028.074.065.244.026zm-7.884.558-.023.01-.011.037-.002-.032.03-.032.042.017h-.036zm7.782-.278-.03.035-.014-.06.059.029-.002.006-.006-.002v-.006l-.007-.002zm-7.721.28.034.026.029.027-.056-.013-.006-.04z" class="border"/>
        <path d="m48.32 3487.87-.113-.08.165-.077-.041-.116.13.055-.14.218z" class="border"/>
        <path d="m48.239 3487.836-.237-.218h.225l-.016.052.064.081-.073.037.037.048zm6.885-.216-.136.016.165-.042-.03.026zm-14.229.507-.04.031-.006.059-.006-.065.015-.023.037-.002zm-.067.084-.018.035-.021-.003.04-.032zm.14.007.02-.014.037.038-.057-.024zm6.69-.264.01-.206.188.183-.175-.005-.023.028zm8.077-.326-.012-.092.02.053.06.027-.037.044-.024-.03-.007-.003zm-21.322.872.121-.029v.03l-.121-.001zm20.722-.867-.074.082-.004-.014h-.006l-.02.013.01-.022-.004-.015-.034-.005.132-.04zm.452-.177-.162.083-.063.094-.03-.047-.034-.013-.02.002-.037.028-.029-.016.375-.13zm-14.375.779-.069.048.006-.027-.022-.025.007-.01.014.013h.007l.003-.007.008.012.005-.004.002-.006h.007l-.006.002.016.012.022-.008zm8.467-.321-.07.049-.047-.086-.095-.027-.03-.145.242.209zm6.244-.309-.14.049.053-.052.028-.064.02.002.016.044.011.008.065-.004-.053.017zm-2.646.224-.158-.093.174-.071.033-.099.126.031-.089-.013-.086.245zm2.183-.099-.134.019.139-.05.035.037-.04-.006zm-19.235.84-.002.012h-.006l.008-.011zm5.145-.274.053.041-.031.01-.045.054.024-.105zm-5.12.304.015-.007.014.014-.03-.008zm18.934-.767-.12.012.117-.085.003.073z" class="border"/>
        <path d="m41.084 3488.307-.133.056-.024.032-.004.018.003.007.013.005-.013.01-.026-.042.035-.024.015-.036-.252-.107.12.03.054-.067v-.026l.03-.03-.041.15.046-.075.177.1z" class="border"/>
        <path d="m40.93 3488.364-.08.027.077-.052.003.025zm.025.076-.041.017-.012-.043.022.03.031-.004zm-3.989.053-.087.116-.011-.02.042-.087.056-.009zm3.978-.037-.026.026-.004-.019.03-.007zm-6.356.086-.12.063-.143-.006.11-.056-.17.073-.014-.139.004-.006.031.02.106.016.142-.004.004.02.05.019zm1.652.116-.081-.058.112.027-.03.031zm17.655-.77-.098.086.031-.086-.106-.11.173.11z" class="border"/>
        <path d="m53.748 3487.842-.026.102-.03-.084.056-.018zm-5.97.368-.044.016v-.025l-.024-.031.068.04zm1.264-.197-.327.177-.025-.378-.169-.007-.008-.054.185-.059-.071.102.083-.013.013.08.093-.028-.021.035-.003.013.009.034.017.014.072-.126.152.21zm-12.08.629-.062-.02.127-.031-.065.051zm-.618-.047v.081l-.092-.019.092-.062zm11.527-.363-.01-.034.043.03-.007.019-.026-.015zm-10.231.393.022.026h-.023v-.026zm3.561-.228v.114l-.002.022-.005-.054-.086-.009.033-.012.042-.049-.072.004.228-.12-.138.104z" class="border"/>
        <path d="m47.834 3488.218-.174.05-.06-.044.09.021.144-.027zm.863-.084-.036.12h-.006l.003-.005v-.015l-.002-.007-.005-.003-.021.018-.002-.017-.005-.006.01-.008-.003-.009-.018-.008-.005.004-.003.006-.007-.008.026-.022v-.007l-.015-.009-.02.006.032-.048.077.018zm-7.112.336.018-.048.04.105-.058-.056zm-6.758.083.042.187-.033.05.006-.042-.015-.195zm13.237-.563-.046.303-.098-.147-.1.053.135-.14-.154-.225.263.156zm-10.453.663-.034.04-.007-.008.041-.032zm.063.007v.058l-.04-.054.04-.005zm-.057.046.04-.005v.019l-.04-.014z" class="border"/>
        <path d="m47.51 3488.112-.103-.44.106-.077.015.4.352.116h-.37zm-12.685.447-.224.159-.008-.168.005-.008.079.017h.148zm13.202-.261.046-.004-.014.05-.032-.046zm-10.907.383-.205.093-.064.007.269-.1zm-.14.073.039.008-.07.02.031-.028zm.827-.213-.042.215-.058-.039.1-.176zm15.005-.376-.15-.455.409.242.252-.13.046-.236.248.226-.805.353zm2.041-.247-.018.164-.057-.155.057-.06-.004-.066-.116.08.171-.216.175.093.116-.165.03-.002.02.031.04.007.012.017h.008l.008-.068.048.058.04.001-.53.28zm-13.603.687-.02.039-.023-.032.043-.007zm6.51-.285.022.078-.052-.037-.052.001.083-.042zm-6.726.237-.089.087-.01-.152.099.065zm.611.017-.04.057.014-.093.026.036zm-.245.07-.117.02-.014-.04.131.02zm6.748-.246-.027-.143.054.021.035-.034v.025l.023.013.04-.022-.125.14zm-6.542.278.024.001.004.006-.028-.007zm6.614-.303-.03.06-.04-.03.07-.03zm-10.045.208.185.202-.228-.108.052.01.025-.019-.034-.085zm3.625.06.13.08-.06-.021-.07-.059zm-.364-.322.056.338-.411-.089-.116-.099.361.11.11-.26zm6.361.097.065.093-.086-.027.021-.066zm-9.965.475-.065.008-.012-.038.025-.038.007.03.024.027.021.011zm-.068-.097-.162.077-.032-.083.194.006zm-.01.078.008.036-.017-.025.009-.01zm10.134-.497-.01.042-.087-.041-.037-.07.134.069zm.057.143-.035.01-.006-.01.035-.02.006.02zm.078-.198-.087-.049-.114-.008.044-.025.03.015.02-.015-.012-.025.119.108zm-.146.186-.016.035-.026-.025.042-.01z" class="border"/>
        <path d="m47.85 3488.53-.035.027-.01-.053.044.026zm.08.006-.061.023-.007-.011.068-.012zm3.332-.163-.36-.214.625-.1-.088-.307.177.033.013-.03-.008-.102.057.047.025-.048.015-.102.447.263-.903.56zm-3.209.155-.037.038-.03-.017.006-.012.047-.002.014-.007zm2.18-.173.086.104.04.015-.364-.088-.06-.158-.195-.01.017-.074-.01-.039-.005-.005-.155.037.046-.133-.002-.027.061.047.027-.13.147.002.085-.137-.058.365.896.054-.556.177zm-1.59.155-.243-.031.069-.012.16-.19-.088-.025-.137.096-.017.166-.161.04.27-.439-.375-.147.468-.147-.012.335.011.01.02-.005.008.01-.022.025.034.046.06.035.045.116-.09.117zm6.882-.269-.11.016.04-.052.07.036zm-7.378.335-.018.014-.028-.013-.194-.012.24.01zm-8.007.334.026-.022h.009l-.034.022zm10.25-.416.002.034-.1-.049.098.015zm-12.374.479-.146.043.063-.08.083.037zm16.603-.613-.11-.044.21-.018-.921-.29.456.04.297-.207.292.349-.014.066-.21.104zm-16.749.629-.034-.006-.055-.028.024-.003.065.037zm3.059-.096-.022.021-.022-.022h-.068l-.017-.026.129.027zm1.268-.053.018.032-.043-.033-.022.023-.012-.016-.021-.004h-.014l-.007.012-.029-.04-.021-.002-.021.022.002-.008-.003-.013-.024.01-.006-.042.203.06z" class="border"/>
        <path d="m50.76 3488.503-.395-.078h.495l-.1.078zm5.422-.285-.175.03.065-.02.018-.021.02.017.027-.038.045.032zm-7.622.346.08.069-.143-.024.063-.045zm-.039-.006-.344.07-.017-.031.361-.039zm-.558.116-.004.006-.032-.018-.006.003.032-.045-.014-.028-.018-.007.16.004-.118.085zm2.893-.134-.045.028-.078-.019.123-.009z" class="border"/>
        <path d="m54.92 3488.297.906-.56.077-.034.076-.109-.026-.095.102-.066.046.27-.073-.068-.01.007-.001.013-.028-.002-.014.015.004.015.009.01-.006.012.007.011-.033.01.003.007.267-.034.01-.032-.028-.074.012-.025.166.047-.113.058.058.034-.107.04-.023.055-.308.01-.04.115.188.048.346-.166.117-.409.11.098-.283.424.12.361-.228-.163-.218.04-.02.053.032.102-.144.034-.343-.257-.61.205zm-15.408.673-.079.042-.017-.02.096-.021z" class="border"/>
        <path d="m39.597 3488.98-.032.04-.03-.045-.035-.01.097.016zm16.679-.744-.09-.001.026-.055.064.056zm-.108.054.06.021.01.033v.006l-.004.006h-.006l-.002-.007v-.006l-.002-.006-.008-.01-.048-.037zm-16.778.708.036.036-.079-.02.043-.016zm2.275-.059-.07-.042.044.018.086-.083.033.053-.071-.005-.022.059zm-1.565.033.026.006-.018.03-.008-.036zm16.052-.686-.015.08-.03-.035.044-.045z" class="border"/>
        <path d="m56.22 3488.36-.061-.065.064.045-.002.02zm-.182-.054.031.05-.103.006.072-.056zm-16.142.604.075.12-.027-.033.002.022-.014-.016-.037-.01-.084-.005.048-.025.037-.053zm10.927-.325-.345.053-.04-.05.385-.003zm-11.358.495-.01.028-.03-.019-.118-.011.158.002zm.155.003-.194-.065.117.02-.044-.01.12-.012-.027-.071.3-.043-.2.053-.072.128zm.98-.033-.013.034-.052-.057.03-.06.098.03-.062.052zm16.592-.663.152.028-.209-.014.057-.014zm-16.718.688.059.001.027.02-.086-.021zm-.918.036-.03.036-.054-.064.084.028zm-.283.019-.029-.072.049-.033-.02.104zm.917-.015.038.031-.027-.012-.024.005-.002-.064-.014.065-.024-.04-.046-.034.12-.002-.088-.04.006-.073-.017-.063.042.117.398-.039-.363.149z" class="border"/>
        <path d="m40.167 3489.144-.024.017-.017-.01-.03-.03-.076-.03-.108-.193.198-.01-.07.173.068.027.017.035.005.006.013.008.024.007zm.163-.004-.071.013.096-.07.106-.016-.1.045.012.04-.044-.011zm-.054.021-.057.004-.004-.004h.061zm-.586-.121-.144.158-.014-.046.157-.113zm18.36-.67-.735.07.85-.214-.115.144zm-18.528.825.01.024-.02-.029.012-.007-.002-.024.013.034-.013.002z" class="border"/>
        <path d="m40.585 3489.116.032.064-.056-.042-.063-.006-.077.015-.03.018-.035-.006.02-.005.003-.045.1-.042-.009.009v.013l.011.03.096-.019.01.005-.002.011zm-1.342.054-.04.064.024-.15.016.086zm11.156-.597-.693.25-.003-.205.097-.01.052.034.004.012.024.024.021.01.014.005.02-.017-.612-.5-.066.116-.079-.039-.18.02-.104.142.017-.036-.007-.03-.021.034h.017l-.009.026v.007l.006.004.121-.066-.067.163-.27-.27.566-.035.103-.516.397.818.447-.075.205.134zm-9.085.627-.378.024-.044-.021-.054-.075.077.045.168-.008.038-.01.016-.036.177.081zm8.158-.33-.208-.04-.026-.036.019-.018.01-.072-.007-.043.212.208zm-10.264.383.005.052-.01.012.005-.064z" class="border"/>
        <path d="m40.779 3489.243-.135.009.01-.043.028.02v-.007l-.094-.11.191.131z" class="border"/>
        <path d="m40.873 3489.235-.07.013-.033.014.014-.012-.01-.054-.051-.06-.12-.023.156-.012.043.03.07.104zm-1.697.084.017-.002-.013.014-.004-.012zm17.847-.709.046-.01.011.017-.057-.007zm-7.496.282-.128-.155v-.106l-.043-.213.171.474zm7.248-.356-.208.104.39-.202-.182.098zm-17.384.852.042.01.008.017-.05-.027zm1.093-.031.025.025-.04.003.017-.018-.002-.01zm.08.029-.136.048-.062-.015.198-.033z" class="border"/>
        <path d="m40.379 3489.43-.01.01-.088-.007-.04-.044.02.04-.34-.125.008.035-.021.004-.023-.086-.416.09.038.038-.042.017.02.028-.016.014.005.019-.02-.013.008-.008v-.013l-.014-.012.008-.01v-.016l.007-.01-.028.015.022-.021v-.018l-.204-.077.518-.042-.072-.197.125-.084-.03.047.051.047.08-.041-.012.022-.022.004-.03.037.027.057.045-.119.016.063.14.055-.162-.033.026.12.945.057-.613.122.099.015-.022.008.017.011z" class="border"/>
        <path d="m39.628 3489.438-.06-.016.145-.072-.085.088zm-.123-.012-.023.05-.01-.028.032-.022zm-.132-.006-.067.033-.034-.064.108-.02-.007.051z" class="border"/>
        <path d="m39.544 3489.443-.025.035v-.036l-.024-.028.049.029zm16.533-.651-.02.025-.015-.01.035-.015zm-.855.068-.037.04.007-.027-.012-.036.042.023zm-14.735.613-.018.022-.015-.018.032-.017.018.017-.017-.004zm-.721.047h-.036l.013-.032-.01-.006-.006-.002-.083.017.097-.11.04-.01.038.006-.018-.001-.052.03.017.108zm.232-.101.013.09-.014-.002-.007.001-.005.005-.013-.009.011-.008v-.013l-.005-.015-.01-.017-.017-.016-.02-.007-.011-.033.129.006.035.007-.099-.007-.01.002-.02.01.043.006z" class="border"/>
        <path d="m40.095 3489.515-.033-.023-.035.004-.002-.016-.011-.017.003-.007-.008-.003-.008-.037-.009-.01.103.11zm1.129-.115-.1.068.067-.08.116.018-.083-.006zm-.66.085-.063.004h-.026l.089-.004zm.588-.062-.061.038.06-.045v.007zm-1.124.079.006.013-.012.001-.01-.045.016.031zm-.146.007-.053.002-.004-.042-.036-.052.093.092z" class="border"/>
        <path d="m39.822 3489.509-.03.02-.04-.117.06-.024-.025.028-.008.025v.012l.022-.012.021.068zm.308-.013-.001.035-.036-.01.037-.025zm1.208-.076-.139.07.004-.022.007-.003.013.005.007-.001.05-.049h.058zm-1.422.085-.039.035-.004-.012.043-.023zm.124.033-.04-.026.057.012.007-.012.018.003-.041.023zm-.162.003-.01.017-.033-.02-.012.014-.057.004-.007-.002.007-.012-.004-.006-.105.026-.03-.042.25.021zm15.169-.77-.092.057.024-.103.068.046zm-14.844.771-.06-.003.008-.024-.023-.062.075.089zm14.972-.694-.016.12-.086-.186.102.066zm-14.922.614.016.095-.027-.003-.014-.01.025-.082zm.919.068.001-.03h.032l.02-.017-.053.048zm-1.122.01-.011.028-.021-.01-.002-.007.034-.012zm1.124-.218-.337.224-.012.01-.054-.044-.053.028-.03-.045.038.015.169-.192.279.004zm-.84.264-.041-.022-.021-.095.07.094.067-.026-.075.049z" class="border"/>
        <path d="m40.655 3489.474.03.12-.013-.052-.03-.003.01-.024-.003-.014-.008-.01v-.006l-.147-.028.287-.085-.126.102zm.484.064.048.035-.06.044.022-.066-.01-.013z" class="border"/>
        <path d="m40.76 3489.586.031.051-.066-.024-.075.01-.016-.042-.1-.05.014.021-.048.005-.018.01-.052-.007-.012.008-.007-.032-.02-.013-.028.012-.007-.044-.046-.002.144-.02-.002.006.01.016-.01.034.01.011.156-.048.03.092.047.025.044.005.021-.024zm.376-.052-.05-.07.041.048.144-.091-.067.042-.035.039-.006.031h-.027zm14.948-.545-.097.054.09-.09.007.036zm-6.733-.598-1.116 1.137-.662-1.089.668.852 1.11-.9z" class="border"/>
        <path d="m38.374 3490.376-1.352-.046-.392-.094-.037-.153 1.583.19-.376-.352.166-.51.802.32-.404.327.081.04-.01.02H38.4l-.049.032.023.115.018.018.034.013 3.38-.792-3.43.872zm-210.118 24.929.13-.068-.034.106-.096-.038zm-6.609 10.579-.1.213-.062-.063.162-.15zm-.92.83-.076.025.273-.287-.197.262zm136.021.076-.106.17-.093.072.199-.241zm-136.178-.035-.296.482.053-.248.242-.234zM1.948 3539.97l-.05-.004-.058-.13-.098-.054v-.133l.206.321zm-32.768 15.893 1-.853.302.004.541.411-1.843.438zm-130.534 2.391-.036.06-.015-.04.05-.02zm.112.661-.504.304.165-.192.005-.132.334.02zm.517.376-.017.05-.011-.07-.01-.02.038.04zm112.732-.31.029.26-.143-.257.114-.003z" class="border"/>
        <path d="m-161.857 3559.308-.273.005.45-.582.321-.06-.006.124-.222.063-.27.45zm.169.029.025.168-.185-.073.16-.095zm.196-.087-.091.267-.05-.175.003-.009.01-.018.005-.014.003-.005.12-.045zm.828.046-.045.285-.036-.152.08-.133zm-.331.087-.115.22-.332-.364.511-.057-.064.201z" class="border"/>
        <path d="m-160.728 3559.577-.06.084-.065-.077-.058-.43.073.092.08.019-.104.053.115.072-.02.035.039.152zm-3.136 11.483.332.13.018.132-.35-.262zm-2.57 5.563-.036.067-.03-.016.066-.051zm4.684 2.677-.039.065-.008-.063.047-.002zm.321.05.032.014-.033.02.001-.034zm.034.016.107.067-.139.042.032-.109zm-.404.121-.004.026-.043.023.047-.049zm-.145.066-.04-.001.049-.009-.009.01zm.664-.007.149-.008.033.021-.183-.013zm.21.014.067.08-.088-.018.02-.063zm-.817.328.127-.071.001.098-.128-.027zm1.297-.096.072.238-.448-.25.312-.067.063.079zm-.235.392.223.004-.016.061-.207-.065zm-.611 3.986.375-.148.029.043-.404.104zm1.781 1.247-.079.029-.02-.03h.1zm-.155-.018-.085.136-.025-.015-.11.004.118-.115.102-.01z" class="border"/>
        <path d="m-159.924 3585.532.003.027-.027-.02.024-.007zm-.024.036.013-.008.003.021-.016-.013zm-.021.059.028-.048.032.07-.06-.022zm-.183-.011v.04l-.025-.014.025-.026zm.285.075.003.016-.013-.02-.03-.016.04.02zm.232.379.033.02-.053-.012.02-.007zm-.101-.045.04.1-.054-.058.014-.042zm1.991 1.178-.39-.092.146-.065.088-.255.076.121.039-.19.04.481zm2.202 3.684.09.022-.03.063-.06-.085zm-22.649.266-.003.132-.11-.007.113-.125zm1.367-.056.256.075-.103.209-.153-.284z" class="border"/>
        <path d="m-181.833 3598.54.582 1.037-.665-.332-.447-.613.436-3.373 3.264-5.664 2.046-.056-1.766.43-.895 2.74-1.753 1.448.381 1.338-1.183 3.045zm12.583 2.903-.04.293-.04.016.08-.31zm.442 3.608-.018.213-.029-.037-.013-.006.005-.031-.002-.008-.036-.05-.088-.091-.037-.026.019-.008-.036-.126-.122-.03-.01-.234.367.434zm-12.426.456-.005.062-.035-.072.04.01zm.124.171-.01.027-.011-.013.02-.014zm.103.186-.09.06.022-.074-.062-.067.005-.068.125.149zm.997.972-.071.169-.029-.03-.045.017-.04-.113.024.024.016.004.145-.071zm.184 2.941-.041.01-.003-.014.044.004zm-.114-.026.03.012-.025.082.032.11-.03.036-.008-.24zm136.102 28.634-.076.082.056-.09.02.008zm-24.223 6.418-.103.02-.026-.049.129.029zm4.085.84-.105-.01.018-.252.087.262zm-118.886 23.497-.166.28-.026-.02.192-.26zm15.784 5.422.033-.061-.006.063-.027-.002zm.023.25.068-.124.016.055-.084.07zm-3.175 5.284.022.01.02.033-.041-.043zm89.566 7.849-.036-.083.039.032-.003.051zm.039.018-.052.016.061-.05-.01.034zm-4.901 25.609-.228-.055.174-.133.054.188zm-4.589 4.905-.035.158-.031-.03.066-.128zm-1.394 19.438-.09.023-.132.1.133-.188.09.065zm.043 3.358-.01-.11.083.04-.073.07zm-.135-.06-.167.144-.067-.075.234-.069zm-.357-.029-.195.227-.168-.128.363-.1zm.112.338-.062.132-.038-.053.1-.079zm-1.397.938.006.077-.025-.024.019-.054zm2.847-.007-.111.285.049-.249.062-.036zm-.074.569.104-.22.224.037-.327.183zm.015.148.055.037-.07-.023.015-.014zm-.085.07-.128.087-.02-.035.147-.052zm.385.205-.065.1-.113-.09.178-.01zm-.498.115-.13-.1.165-.05-.035.15zm1.123.122.083-.02-.164.123.08-.103zm-.115.245h-.049l.098-.032-.05.032z" class="border"/>
        <path d="m-89.408 3743.914-.185.07.017-.09-.066-.022.234.042zm-.204.194-.084.058-.045-.04.129-.018zm-.179.01.025.044-.032.006.007-.05zm-14.363 2.744-.019.02.003-.016.01-.008.045-.08.053-.002.071-.017-.163.103zm.508 2.395.437-1.754 4.23-1.212-.08 1.794-4.587 1.172zm-14.308 4.321.002.087v.007l-.002-.094zm.599 1.338.067-.018-.094.189.027-.171zm2.464.509-.554.085.154-.055.4-.03zm-.658.084-.187.02.21-.056-.023.036z" class="border"/>
        <path d="m-104.108 3749.249-8.496 7.306-.477-.196-.365-.956-.533-.236-3.043.354-.827-2.262-1.581.024-.267-1.529-1.474-.476.543-1.22-4.505-5.299.745-1.138-3.841.63-1.74-1.254 1.471-.553-.415-.83 1.495-1.644.023-2.312 2.7-2.43 2.155-7.875 2.008-.7-1.633-2.336-7.654-3.401-.7-1.04.83-1.77-.902-.802.485-.574-2.304-1.765-5.37.545-2.498-3.101-2.156-.509-4.885-5.65 1.966-1.26-1.045-.23-.066-2.059-1.97-.206-2.037-4.717-6.796-3.4-1.078-2.602-6.33-6.056-5.146.334 1.402-1.581-1.748-4.635.601-.404.524-1.159-.17-.377 1.734.54-1.57-.766-1.339 1.797-2.804-2.646.431-.415-.192-.053.215-.311-.02-.095-.76.677.295-.59.916-.318-.734-.037-.595.822.317-1.32-.618.228.395-.92.511-.14 3.165 2.319 2.468-.909.633-1.036-.548-.522-.476 1.6-5.813-2.12-4.748 2.762-4.432-1.14-1.675-2.589 2.352-1.522.622 1.063.657.318.858-.236.698-.875.384.291.223-.137.416.562.084.001.133-.135.212.316.184.014-.02-.218.209.032.049-.015.022-.048-.285-.836.035-.026.036.07.054.063.033.02.025-.003.136-.123.061-.182-.027-.03-.061-.007-.18.04.02-.05.162-.096.069-.064-.04-.3-.213-.067.39-.064-.395.061-.002.587.271-.01-.203.3-.123-.148h-.037l-.02.026-.023 1.063-.335-.32-.218.126-.385-.558-.63-.188-1.772.914-.633-2.14-1.305.233.57-2.277-.404-.855-.705-.163.136-.228.532-.095.08-.105-.628.193-.147.239.823.462-.166 1.553-3.075 1.693-.437-.616.384-.043.05-.117-.026-.19.104.053.705-.11-1.827.101 1.204 1.355-1.637-.89-1.803-2.29-2.107-6.322.047-4.197-3.942-3.948.766-.486-.454-.244.025.476-.143-.06.003.171-.365.165-.473-2.418-2.923-4.023 1.14-.058.293-.154.091-.145-.978-.084-.233.209-.77.368.782-3.848-.81-3.896-1.493-3.926-1.81-1.563 11.381-16.373 1.002.531-1.393 1.185-.038.978.68.502-.649-.698.585-1.268 1.118.146-.24.563.665-.161-.024.13.261.304.12.01-.274-.47-.48-.417.376-1.858 1.72 1.72.09-.021.105-.21.145.355.38.065.007.051-.102.002-.003.057.392.249-.084.16.029.015.11-.031-.01.083.02.132.019.033.037-.005-.05-.258-.14.02.083-.147-.401-.267.11-.032-.011-.073-.523-.428-.212.204-.044-.579-.462.047-.897-1.791-.715.67.106 1.165-.729-1.055.03-4.477 5.496-9.626 4.709 1.122-.684 1.21-.146-.526-.182.344-.247-.106-.024.018-.01.059-.017-.05-.048-.025h-.096l-.01.007.005.016-.025.032 2.236 2.509-1 .636 1.154.485-.599.83.295 1.643.265-.05.049.074-.02.087.006.05.02.1.034.019.03-1.69-.424-.258 1.747-2.96.64.795.062.03.074-.038-.002.067.023.04.206.039-1.815-2.876-.27-2.949-2.194-.843 1.092-1.325-.44-3.59.313-1.218 1.062-1.36 1.59 1.26.755-2.666 1.52-.959-1.206 1.623 6.209 7.61-.149 2.293.08-.548.495 1.756.477.054.196.798.064-.044.037.106.087.014-.058.149.116-.033-.008.016.005.007.155.16.003.014-.008.029v.017l.014-.016.023.035.02.008.013-.001-.679.617-.133-.099-.179-.044-.055.108-.036 1.618.23.62.569-.236.124.433.241.185.152.006-.086.277-.026.35 1.238 1.53-1.22-1.537.165-1.071-.236-.269 1.011.43-.05-.328-1.914-.613 1.898-2.538-1.123-.996.199-.06.457-.39-.39.274-.484.267 1.79-2.378.57.349.143-.348-.173.627.41.057-.58-2.347 2.769-.528 2.187 1.164-.638.34 1.95 3.237 4.14 1.726.756 2.405-.832.16-.047 1.16.173.125-.064.082.026.197.014.005 1.038-.78-1.128-.665.652.123.31-.502-.48-2.03.935.897.153-.295-4.405-3.93 1.72-1.256.318-1.775.69.197.297-.035-1.03-1.01.686-.849.461-.257-.174.623.497.041-.15.123v.039l.088-.088.038.107.109-.043-.042.08-.028.122.02.004.062-.202-.142-.059.272-.212-.011-.135-.468-.143.49-.764.308.17-.028.128.178.208.194.142.05-.014.017.07.111.108.122.047.056-.079-2.577-3.34.396-1.1-3.371-1.25-2.47-4.206 1.136-.864.213-2.855.716.923.36-1.163.164 1.588.268.182.208-.145-.134-.132.06-.123.332.1-.345.301.248.136-.245.034.085.122-.148.034.119.067-.097.067.037.062-.017.049.015.018 1.992-.317-.46 1.215.582.312-.177.434-.175-.058-.072-.252-.01-.01-.033.025.048.204.23.126-.686.643.084.596 1.978.971.286-.001.368-.22.232.765.137.166.091-.064-.047-.423-.374-.543-2.417-.724.796-.781.3-3.918-1.842.447-1.29-1.935 2.413-1.456-1.007.139.981-1.002-1.421.946-1.387-.593 1.263-.476-1.472-1.3-.863-.105-1.338.591 1.087.152-.776.35-4.178-2.026.827-2.275-.447-.684 1.655-1.81-.527-1.26.71-.173.439-.278.282-.677 2.102 1.147 2.254.106 1.134-.81.133.108-.142.278.045.154.613.184.07-.028.147-.178.116.053.14.005.124.06.037-.02.022-.058-1.3-.605-3.24.696-2.097-1.351-2.14.72.742 1.607-1.403 1.066-.895 1.507.235 2.462-2.154-.454-.568-15.208 2.67-2.346 3.918.71 1.736-.705-1.515.374-1.135-.767 1.365-.147 7.761 2.012-.362.898.107.139.096.029.117.16.11-1.181 1.957.48 1.122.024.74-.18.488-.794.43.31.295.078.615-.283.485.374.891-.312-2.731-.227-2.277.89-5.772-2.067 1.081.171-.008-1.144.263.343.408.235.024-.001.135-.055-.794-.564.494-.371.242-1.162-.12-.651-.496-.4.794-.877.513-2.373 2.012 1.468.574-.659-2.589-.82.064-.321.008-.465-.023-.147-.089-.262-.009-.106.177-.421.073-.218.03-.777-.024-.138-.095-.136-.003-.144.3-.202.089-.165-.108.166-.269.145-.028.075.008.13.115.278-.275 1.397.08 1.18-.824 1.847.3.559-.817.896-.148 2.573-1.378.983-1.281-.257-.661-1.959-.25.173-.07.694-.642.4.641-.749-.178-.652-.571 1.635-.79-.18.746-.625-.2-.042.14-.101.034-.174.101-.045.075-.088-.058-.176-1.414 1.26-.472-1.2.715.087.365-1.056-1.89-.601 1.399-.136-.832-.191.216-.033.045-.058.013-.035-.348-.736.522-.294-.725.397.21.782-.994.062.24.58-2.605-1.813.468-1.358-2.958-4.092-2.513-7.337 1.747-2.104.546.895.38-3.707 4.06-9.876 6.57-5.083 4.224-.716 1.367 3.06 1.625-.706 1.958 1.363 1.415-.524.825 1.62 2.446 1.495-1.308-1.043 1.787.761.094-.147-.086-.83.313-.236.547 1.107.089.025.634-.21.045.094.049-.085-1.154-1.064-.542.293-.04 1.017-2.811-1.258-.68-1.667-4.61-1.109-.03-2.932-1.919-1.544-3.192 1.08-.62-1.871-5.13 3.37-2.955 4.812-2.11 6.369-9.107-5.571.996-1.76.515-.28.805-1.214.798-.608 1.854-2.007.112-.184.255-.275.21-.316-1.701 1.619-.035-1.266 1.28-.623-.867.002.078-.259.825.055.27-.484-1.877.383 2.504-.783-1.674-.63.183-.226.283.25.198-.096.047.041-.026.109.006.011.018.006.098-.022.04-.078.21.109.098-.014-.302-.105-.114.077-.034-.185-.189.08-.2-.152.552-.555-.032.356.373.3.551-.317-.23.11-.13-.535-.23.155-.115-.17.533-.134-.015.04.058-.003.044.209.071.089.146.007.078-.052.076.017-.026.173.01.05.016.03.108-.31-.408.046-.018-.372-.667.116-.067-.203.52.083.374-.12.182.178.213-.009.173-.102.014.05.133.06.024.003.017-.003.035-.014.015-.01-.666-.448-1.143.188.405-.49.783.125.176-.057.098-.095-.77-.317-.535.386.785-1.068 3.767-1.134 5.85-6.075.81.992.955-.7-.937.643-1.245-2.007-3.743-1.598 2.862-3.022 3.473.01-1.158-2.754 2.258-2.896-.615-.192.741-.412-.605-.824.635-2.356 1.804-2.417 5.5-.902.186-2.506-.245-2.93-4.002-2.74-2.258 4.351-2.584.915-2.307-1.28-2.573 2.8-3.34-3.65-3.386.075-1.013-3.35-2.136-1.315 1.381-1.164-1.965-1.808.655-.454-.926-2.147.527-2.373 2.234-.912 1.762 1.106.396-2.216 3.469-.357-.257-1.444 3.38-2.846-3.357.307-1.428-3.036-.227-4.03-1.806-.557 1.322-.97-1.655-2.86-2.78-1.264 1.559-4.061-1.201-1.272 2.653.644-.104 1.54 4.066 2.213 1.117-2.069-.54-3.026-1.587.356.176-2.054-9.353-2.31-2.132-3.054.891-1.946 8.843-6.658 5.908.07-.683-1.782-1.896-.7-.655-3.873 1.109-.582 1.537.138.86-.442-4.8-1.156-.464-1.712-1.604-.186.052-2.07-1.67-.942.415-1.724-1.547-1.844 2.777-.694-3.823-2.344 2.02-1.195-1.167-3.482 1.966-2.517-.48-2.518 5.07-8.634 1.75.033.269-2.031 5.232 2.602 1.83-1.065-.941-.726 1.11.339 4.098-3.363-.584-1.315 2.223-2.635 1.068 1.104 3.855-2.05-1.566-2.095-.106-3.052.988-1.352-1.362-2.12 1.065-2.202-.851-.459 1.503-2.394-1.628-1.018 1.134.182-.788-1.585 1.486-3.38 2.373 5.679 5.823 3.386 1.8 2.961 3.7 2.445-2.383 1.365-.2.983.694 1.429 1.328.552 3.344-2.061.482.617-.69.38-.166 1.414.56 2.113 1.129.433 1.409-.313.224-.252.164-.892.415-.128.137.537.597.495-.497 1.322 1.192 2.719.431-2.433-1.54-.258.493-1.34-.584-.497-.082-.462-.25-.196-.332.153-.386 1.162-2.427-.053-.56-2.187.913-1.845-.552-.666-4.368 1.556-.684-1.813 3.471-1.345.096-1.526-5.568-2.997-.095-2.586-4.168-2.734-.94-3.132-2.92-2.317-5.032-8.72 2.111-2.396.965.58.809-.623-.05-.604.913-.608.627-1.88 3.768.421-.217-.418-3.548-.069-.686 1.876-.96.653-.527 1.1-.785-.57-.555.076-1.86 1.848-3.09-.6-5.873-5.61-1.882-3.206.512-.328.304.092.138-.056.299-.46-2.624.949-2.406-.867 1.037-1.179-1.802-1.666.655-.624-.087-3.352-.47-.954-.082 1.771-2.292.665 1.284-.631-.509-4.982 2.073-4.005-1 .491-1.135-2.636-1.825-1.717.91-1.14.493 1.012.57.158.69-.335.337-.62v-.42l.654.074.113-.244-.148-.524-.468-.218.13-.271-.123-.29.323-.021.046-.082-.02-.177-.6-.745.108-.177.002-.204.164-.32.18-.658.634-.16.234-.12.292-.289.457-.781.043-.307 1.134-.738.562-.687.067-.327.773-.796.13-.203.036-.122 1.338-.52.728-1.32-2.09 1.848-.116-.166-.09-.047-.035-.076-.55-.466-.026-.073-.459-.61-.266-.445-.035-.022-.091-.01-.115-.178-.04-.158-.047-.059-1.15-.338-.263-.005 3.279 2.705-2.687 2.81-.506 1.091-.286.283-.747.139-.149.195-.45 1.3.61.755-.349.26-.017.59.526.89-.77-.002-.875 1.262-.91-1.186-1.346 1.052 1.684 2.22-1.437-.858-.58.25 2.091.64.311 1.681-2.691-1.53-7.072.06-4.397-1.997-6.871.25-7.868 4.43-4.444-1.385-9.099 2.643-1.576-1.362-21.642-2.747-1.556-1.099 1.16-1.353-.562-2.29-2.341-.345 2.195-2.232.247-3.578 1.607-.981 1.255 1.26-.245.654.35 1.072.027.046.061.023-.034-1.52 2.496.979 2.407-1.295-.045.139.52-.035.208.344.263.097.45.111.071-.005-.979-.554.397-.269.282-.37.072-1.005-.144-.439.48-.375-.117-.87-.452 1.27.15 1.263-.612.638-2.072.164-.82.77.391-1.516-3.409-.066-1.794-5.63 1.466-.809.057-.267-.255-.402-.877-.198.24-.18.013-.15.213-.096.045-.048.263-.74-.8 1.219.84.202.266.52-.838.232-.004-.159-.052-.136-.086-.104-.133-.012-.048-.057.034-.029.018-.063-.057-.114-.203-.198h-.055l.273.451.233.131.065.268-.754.704.895 4.138-1.483.901-4.77-5.948-2.226-.777-10.19 2.936-1.078-8.229-1.362-2.235 1.293-6.508-.668-.105-.182-4.178-5.117-3.65-.039-2.073-1.428-1.782-4.688-2.3-.333-4.164-1.434-2.132-7.746-.98 1.09-.965-.87-.97.281-1.71 1.472-1.261 2.761.228 2.527-1.929-.762-.219.113-.102.029-.095-.02-.408.128-.055.08-.072.046-.08.087-.005.158-.069.12-.085.156-.218-.011-.233-2.126 1.768-.821 1.403-2.224-.775-1.621.97-.664-1.702-.471 5.029-2.157-2.36-2.931.644.773-2.016-.078-1.56-1.267-.953.667-.363.165-2.28-.664-2.22-.612-1.441-1.266-.864-.347-.073-.14.044-.75.91-.15-1.12-1.302-.082 2.487-.625-.12-.079.137.04.014.095.083.033.248-.092.02-.017-.04-.056.113-.034.151-.354.045-.16-.003-.05-.018-.014.037-.055-.546.818-.061-.02-.022-.099-.09-.059-.33-.017-1.55.445-.561-.427-.559.449.02-.687-.472.377-.185-.021-.357-5.154-4.556-2.43-.445-2.736-4.514-3.71-3.921-.326.09-1.3-2.23-2.77 1.488-.085-1.505-.172.287-.338-.229-1.96-.214 2.537-3.424 2.292-5.697-2.308-1.58-2.226-2.45-.129.076-.37-1.18-1.122-.027-.956-.934-.93 1.2-3.243-1.585-1.836 1.81-2.69 7.235 1.91 1.185 2.488-.894 1.56 1.347 1.721 2.284.11 3.048-2.662 2.092.572 4.2-1.586 3.036-4.416.325-1.098-.701-1.468 1.265-2.515.532.076.93-.437.202-1.03 1.672.298 1.07 3.53 3.636.042.251 1.916 2.17 2.289-1.212 1.388.2 1.456-2.332-.286 1.405.549-.65.502-4.89-1.247-1.055 1.204 2.893-.01-.555.52.236 1.113.096-1.378 1.406 1.302-.136-1.004 2.277-.036.984.837-.664 1.448.956 1.25 1.925.294-3.357 2.25 2.702-.65.473 1.15-1.102.189-.684.568 1.277-.338-.505 1.379-3.064.703 2.88.545.432-1.504 1.701 1.45-.887 1.536 1.45-.168.127 1.305-2.204.585.911.155-.61 1.306 1.304-1.828.848.72.122 1.192.354.73.424.333.073.138.147.094-1.047-2.692-.643-.35.536-.366-.15-1.13 2.807 1.338.715-.376-1.736-.574.66-.36-.497-.592-2.393.114-.22-1.628-.448-.004.513-1.887.626.718-.558-3.09 1.09.192.4 2.748.493-.775-.728-.991.444-.034-.185-.43.657.005-.046-.243-1.757-.977.455-.852 1.538 1.087 1.45 4.443 2.066-.59 3.136 3.47 3.56-1.437 1.754 3.23-1.115 1.12.321 1.797 1.592.73-.794 1.945.56.893 3.75 1.48.942-2.979 2.143 1.84-.431 1.71.16 1.373-.868.309.268.28-.934 1.165.236.351-.374.594-.01.36.14.216-.06.192 1.656-3.226.114.592 1.12.497-.987-.542-.138-1.68 1.65.077-1.655-1.188 1.516-.822-1.354-1.186 8.932.773 1.228 1.307-.292.425-.08.451-.423-.014-.25.399-.58-.014-.27.164-.069.098.003.192.034.046-.137.072.143-.07.038-.33.85-.073.547-.39-.414 1.438.039.47.152.187-.015.05-.04.07-.016.044-.015.07.003.053-.02.01-.003.008.019.066-.12.162-.007.052.027.086-.01-.146.114-.156.089-.365-.087-.684.027-.05.093-.033.062-.059.074-.133.315-1.7.09-.102.103-.056 2.275 1.154 5.688-.241 4.39-2.432.284-1.917 1.985.542-.717 1.32 1.727.89-.081 1.38-1.999-1.046.601 1.091-2.375.2 2.488.886-.413 1.442-1.59.18-1.022-1.391-.603.193-.42-.392-.176.056-.168-.098-.247-.04h-.195l.757.317-3.176 1.22 1.277.102-1.018 2.258 1.112-2.173.977.585.302 2.796.05-2.8-.227.073-.537-.71.495.082.288-1.25 2.243 2.167 1.34-.22.11 2.282-.778-.302-.803 1.49.892-1.119-.022.145.305.162.747.018.23.61-1.008 2.404-.715-.824-.407.241-.095.629-.078-.016-.087.041-.18.157-.132-.064-.055-.001-.06.01-.006.002-.002.006 1.743.796-.655 1.354.565.678 2.21.216-.252.6-.471-.484-.317-.024-.18.054-.051.09.1.811-.376-.02-.04.032-.024.072.022.13.124.134.319-.338-.05-.895.952.467.278-.657-2.25-.283.255-1.954-1.144-1.396 1.167.775 1.226-1.158.485-1.823 1.176 1.994.212-.13.153.603.343.266.049-.033-.34-1.64-1.857-1.563 1.676-.038-.32-.724-1.496.433-.724-2.197 1.422-.254-.73-.572.414-1.996 3.883-.473 1.588 2.895.521-.34-1.535-3.015-.46-.203-.146.535-1.06-.077.908-3.493 3.564-.697.168 3.125.358-1.436.126.455.586.578.855-.084-1.996-2.092 1.18-.299-2.417-.888 2.988-.847 4.08 1.35 1.263 3.352-.574-2.025.893.575-1.315-3.114 4.047-1.275.91 2.438 1.601.126-1.084-.282-.393-1.432-.876-1.02-.65.226-.108-.468 1.316-1.381-.696-1.71 2.621-2.07 2.16-.567 1.035 2.227-.512.65.92-.273-1.62 1.25.77.175-.603.456-.05.302.908-.448-.48 1.627.713-.657.411 1.04.073-2.52.575.606 1.465.782-1.998-2.651 1.15.204.246.421.27.123.313-.061-2.798-2.28 2.739-1.74 2.248 1.784 2.198-.094-1.007 1.536.941 4.454 4.404 3.952-.736.925-.145 1.238-1.234-.341 1.167 1.382-.794.756.038.779-4.119.413 1.898.922-.72-.059-1.066.753-.918 1.28.113.742-.266.075-.301.177.5-.192-.141.164-.017.526.032.04.057.011.025.049.102.053.318-.013-.032.306.036.068.023.023.114.039-.005.05.01.036v-.088l-.176-.132.037-.301-.539-.15.257-.748-.098-.74 1.276-1.364 4.656-1.635-.914-.962 1.184-1.202-.128-1.861 1.598-1.03 1.45.968.138 2.314 1.837 2.36-3.987.51-.285 2.59 1.028 2.236 1.376-.64 1.967.854-1.908 1.607 1.05 4.89-4.486.054-1.023-1.233.275.865-.385-.08-.236.066-.181-.193-.023-.016-.069-.011-.178.619 6.094.172 4.285 6.356-1.166-1.016-1.386 7.052-1.77 1.18-.083.365-.343.005-.165.146.366.138 2.68-2.439.27.677-.286-.053-.161.248-.175 1.5.315-.218 2.311-6.157-.496-1.132 3.482-.861 3.07 2.019-.289.1.159-.017-.132.09.12.247-.056.882.01.085.072.19.454-1.412 2.026 3.484 9.363 1.232 2.29 1.52-.255.095-.075.138.028 1.375.422.419-.32-1.886 1.988-.504 6.17 3.11 6.62-1.383 8.953-4.946 7.486-6.036 2.745-3-.469-3.997 2.15 2.607-.227 2.313-.836.337-1.297-.184-.503 1 .007-.398-7.91 6.683 7.855-6.221 1.118 1.572.998-.424-1.516 1.048 2.193 2.48 15.9-2.09 3.93-1.676.443-1.492 5.357 1.284.88 1.435-.71.175.235 1.238 1.598 1.62-1.45.355.001 2.99-1.019-1.735-.569 1.45-1.79-.527-.052 1.034-.57-.054.03-.522-.268-.124.158-.17-.127-.243.031-.047-.017-.042-.108-.085-1.117.208 1.147.69-1.472-.035 1.578.867-.266.04.045.21.152.107.058.35-.174.293-.028-.292-.24.172-.112.38.928-.073-.8.588-1.855-1.842-.865-.062-.156.377-.104-.12-.262-.05.202-.204-.031-.143-.087-.035-.007-.132-.556-.278-.631.36-.248-.495-.086-.108-.047.114.396.523.658-.363.444.794.376.167.28-.218-.03.514-.238-.117-.415.369-.13-.11-.087.08-.274-.149-.09.026 3.272 1.68-.617 1.272.635.247.856-.24-.57-1.036 2.729-.855.063.316-.406.17-.025.386-.556.054-.048.08-.018.123.035.054-.046.028.175.089-.187.035-.15.191.087.175-.146-.031-.043.126.135.569.697.266.224-2.189 1.882.265 1.346-1.447-.763-1.445 3.524 2.74 7.546-.25.526 1.166-1.219-.553-.692 1.017-.815-.038-.286.112-.707.966 1.063-1.034.908.93-.187-.21.215-.178.076-.333-.025.063h-.026l.03-.211-.127-.13.543-.507.25.7 2.61.454 3.53-.255 3.473-1.239 1.105-.922.53-.23.227-.002.18.196-.402.529.182-.665-.839.322-.753.688 2.754 1.644-.606.247.888.421-.597 1.263.076.435 1.829-.872 4.636 1.101 1.204.616.198.133.039.05-.96-.54 1.009.668-1.148.614.04 1.417-.582-.017-1.585 1.7 2.18-1.268.763-1.816 3.108.139 1.932 2.645-6.616 7.141-3.401.955.763.363-.407 2.046.812-2.113 1.345.024 2.747-2.487.294 2.107.65.334-.8.578.58 1.494.383.232.102-.069-.9-1.65.89-.457-.687-1.9 3.974-3.687-.239 2.409 1.162 1.586.852.47 1.008.037-.447 1.009.11-.053-.031.084.008.113.024.104.054.003-.016.053.013.085.022-.002 1.05-1.093-2.98-1.73-.27-3.793 9.195-5.93 1.66 1.43-1.603-.539 1.342 1.079-2.26 2.437.26 1.096-1.512.117.029 1.024.662.343-.258.349.3-.37.006-.193-.285-.894 3.73.578.882-1.603.674.786 2.24-.171.078-.535.614-.26.125 1.42 1.16.782 1.087-1.45 2.705.997-.555-2.72 1.932-1.484-.288 3.649 1.06-.164.104-1.733.856-.613.382 2.52.641-.034.402-1.06-.978-1.212 1.45-.816 1.277 1.077-.02.699.208.014-.074.321.219.47.101.001-.738-2.594-1.077-.458-1.856.736-2.156-2.348 5.202-3.277-.636.582.587 1.212.36-1.847.608.287-.667-.666 1.795-1.442 2.123 3.121-.75-.593-1.397.764.313.769.863-.109.19.086-.051.046-.072-.079-.029-.008-.018.001-.023.013-.008.009.1.175-.209.023.057.209.24.024.396-.09.285-.71-.003-.294-.241-.127.157-.097 2.767 1.706 8.915 2.008-1.694 1.42-.253.804.893 2.292 1.204.521-.433.25.118.53.463.106-.299.833.007.102.127.155-.008.101-.502-.088-.372.159-.195.237-.13.3.121.192.563.255.115.207.185.198-.386.114-.306.494v.09l.163.332.074.347.173.108.197-.005.134-.058.17.177.145.08-.468.324-.168.456.056.363.712.325.032.312.284.156.199-.004.152-.26.22.034.34-.012-.062.56.08.101.112.053.223-.031.193.24-1.824.64.18-.003-.183.141.013.196.475.592-.2.208-.026.08.146.546.092.061-.027.045-.081.02-.028.027-.04.214.012.082.016.043.019.02.228.126.1.17-.096-.173-.263-.196.165-.374-.219-.622.216-.28-.41-.848 1.39.206.236-.032.225-.422.038-.001.04.074.011.015.067.037.031.013.023.004h.02l.027-.005.053-.033.01-.009.002-.019.028-.01.013-.025.018.01.079.001.028-.023.068.082.033.016.016.002.027-.013.023.016.052-.008.013-.01.02-.03.03.016.07-.038.006-.014-1.54-1.5-1.893-.512.618-1.112-.32-.291-.531-.025-.059-.364-.18-.387.296-.484.265.039.12-.117.017-.176-.334-.32-.546-.241-.1-.183 1.151-.534.054-.156-.134-.209.06-.27.515-.104.22-.22.086-.162.016-.19-.399-.26-.655.186-.108-.506.377-.141.042-.253-1.202-.384-.159-1.207-.407-.249.221-.515-.515-.248 1.892-2.19 16.346 2.057-2.142.458.352.126-.827 1.573.221.149-.274.295.162.382-.165.147-.285.026-.05.067-.419 2.395.141.454.19.181-.027.086.028.246.08.022.475-.061.048.036.012.29.045.144-.047.233.012.089-.146.21-.146.037-.08.115-.057.185-.001.347-.376.386-.04.108.003.053-.126.18-.027.113.049.142-.016.124.026.08.173.225.175.083.043.14.044.068-.282.304-.153.531-.476-.026-.086.024-.095.077-.006.03.672-.101.448-.842.005.113.171.39.341.465.96.618-1.982-2.433.567-.85.05-.516.23-.162.142-.19.044-.338-.013-.31-.049-.15-.027-.03-.568.039-.002-.329-.335-.605.43-2.414.33-.079.174-.167.753-2.329 10.431-1.8 8.366-3.161-1.796 3.507-.01 1.577.416 1.03.235.213-.957 1.314-.012.186.184.16-.04.419-.34.162-.332.491-.283.107-.268.304-.21.337.12.184.67.684.318.082.104-.062.053.435.265.253.13-.001.149-.093.064.047.112-.006-.163.78.047.086.107.11.255.016-.235-.994-.185-.05-.276.095-.307-.683-.513-.148.334-.532v-.156l-1.026-.046 1.415-1.361.86-2.153.328.42.145.136.108.049-1.235-3.356.983-.64.777-2.347 5.02-2.055-.38 1.602-.004.162.22.416.12.162-.204.405.042.061.26.126.081.003.1-.05.076.023.032.113.134.08-.216.574.151.353.06.083.104.027-.01.202.131.227.056.04.044.232.07.053-.025.08.06.041-.414-1.923-.175-.194-.547-.15.202-.404-.328-.731.38-1.588 5.12-2.17 7.064 7.314 16.763 4.923 5.897 4.764-.64 1.076-.673.139.074.112-.692.485-.025.161-.075-.006-.13-.169-.259-.135-.176.316 1.222 1.765-.68-1.615 1.416-.94.477-.843 11.384-1.737-.674 5.054 2.358 5.557 3.805 2.817 6.66 1.107 1.215 1.91 6.192 1.23-.581.121-.408.36.047.215 1.802.226 3.196 3.813.197 6.092-2.034 7.446.045-.542-.28.058.027-.035.13-.049.059-.038-.056-.101-.96-.688.056-.175.257-.032.082-.17.047-1.687-.487-.384-.344.17-.2.175-.115.364-.157-.106-.085.022-.228.496.65 2.323-.45.021-.364.361-.877-.006-.498.131-.595.275-.493-.118-.323.01-.113.03-.258.144h-.289l-.328.11-.391.219-1.215-.388 1.087.374.127.02.248-.09-.12.13-.097.265-.143-.078-.148.02-.58.181-.104.146-.047-.302-.242-.18.089-.088.007-.082-3.926-2.095-.045.002-.066.053-.147-.112-.195-.079-.253-.018-.22.021-.065-.17-.052-.047-.922-.188-.365.148 6.414 3.158 4.519-1.064 1.46-.708.407-.968 1.688 2.451 1.755-.21.116-.265.167-.009.437-.01.012.004 1.518 4.695-1.333 1.537-22.3-2.6-1.345-1.453-5.798-.604-.035-.46.788-.085.362-.548-.049.002.004-.122.014.031.024.026.019-.003.005-.017-.123-.157-.666-.361-.023-.19-.803-.275 1.516 1.084-1.96-.063.95 1.383-1.727 1.04-2.779-.862-.148 1.096-2.6.342-.698-1.07-.588-.174.013-.31-.527.074 1.66 1.529-.035 1.702-2.084 1.533-.56 1.245.234.348.498-.104-.311.155-.007.104.15.092.14-.015.02.024-.047.043-.249-.046.02-.057-.1-.055.06-.087-.01-.01-.074-.014-.71.081.095-.102-.413.303-.218.082-.154-.073 1.242-2.898-1.333-.742-.027.45.454.678-.887-.07-.916-1.643-1.241 2.168-1.095-2.18.334 1.424-1.252-.912-4.164 2.802-.816-2.244-.5-.07-.406.844-.95-1.315-2.166-1.298.41-1.1-.125-.244-.322-.118.204-.187.272-.896-.382-.493.204-.1.12.16.171-.03.172-2.368.916-.058.349-.336.381.125.745-.471-.188-.025-.57.474-.406-.124-.376.33-.539-.146-.3.162-.091.14-.646 2.263.384.496-.512 1.025.093 1.706 3.018 2.734.848-.906.741 2.286 4.37.425.661.48-.068.028.06.102-.01-.04.069.026-.07.233-.286.152.039-.047-.24-.44-.475-.216.767 1.51.943.782 1.245.266.273-.213.009-.285.48.391.274-1.315 2.028.213.398 2.152-1.917 1.37-.822-.26.223.02-.138-.291.21-.029.004-.122.161-.009.02-.025.09-.028.19-.128.007.016.039-.028.276-.338.017-.068-.045-.052.035-.005-.01-.029.013-.019-.007-.01-.959.723-.215.674-.55.24-9.702.86-1.192-.892.203-1.165-.745-.078.237-.38-.076-.192.079-.06-.012-.093.052.017.019-.053-.007-.013-2.525-.976-4.951.573-.768 1.477-2.058-1.17-3.142 2.322-.152-2.429-1.006.456 1.133 2.045-1.06-.2-1.152.428-.622 1.82-2.095.878-3.612-1.677-2.37-.044-1.124.96.033-1.447-1.106-.475.162-.13-.224-.419-.101-.142-.06-.02-.716 2.804-2.155-.547-1.887.73-1.106-2.057-2.497-.496-.53-1.175-.732-.36.07-.286-1.68 1.061-.525 1.517-.796-.356-.222-.976-.482-.298-.62.246-.74 1.15-.54-.059-.71-.936-.682-.577-.026-.337.763-.649.178-.536-.33-.338-1.176-.498.633-1.148-.565.442-.178.457.011.187.248.391 1.301.638-1.28.65.238.95.909 1.086.796.421.614-.144 1.133-1.304.679 1.39.367.265.477.036 2.346-2.244.843 1.467 2.464.406 1.458 2.212 4.204-.175 1.117-2.016.224 1.679.825.236-.188.178.064.365-.134-.286-.13-.008-.626.835.066.656.506.346-.538-.989.886-.517.658-1.29 3.027.044 1.298 1.342-1.325 1.253-.87 2.831 2.333-4.13 3.647-.28 1.267-2.129 2.276-.132 2.944-2.235 2.31 1.06 2.007-1.978 4.164.918.65 3.346-.107.208-.437-.104-.154.147-.164.266.06.155-.396.464-.03.187-.003.081.035-.263.37-.4.03-.064.025-.274.023.009-.023-.037.077-.119.187-.012-.032-.129 1.132.606 4.737.508-1.104.343-.905 1.47.107.36-.18-.071.034-.3-.12.063.027-.241-.07.034-.689 2.142.755.365-.54-.939.385-.299-.179.19-.035.149.236.3.158.056.337-1.993 1.457.038.177.245.193.038-.061-.001.18 1.023-.032-.053-.044-.008.191.236 3.455-1.146 1.988.551 7.684-1.768 3.711 2.704-1.732.933-.53 1.499-.695-.369.799-.427-.094-.242-1.26-.044 1.126 1.74-5.143-1.198 2.27 1.388 3.606.843-2.333 1.039.442.368-.1.033.017.02-.063-.034-.016.022.04.09.099-.096-.17.343.036.037 3.994-1.98-.614 1.581 1.163-.42.086.595-4.92.242-.744 1.677-1.56-.591-4.392.445.107-.482-.078.086-.087-.075-.03-.002-.01-.04-.078-.054-.165-.032.07-.25-.01-.2-.145-.02-.05.016-.003.272-.02-.128-.213-.023-.029.046-.022.089.226-.026-.163.04.033.243.167.063-.561.158-1.731-.276-.606.25-.507-.784-.47.196-.202-.165-.215-.071-.13-.012-.108.04-.106-.947-.724.52 2.028 1.211.534.103.504-.236-.676.69.069 1.056.677-1.745 1.936.257.231.364-.911.064-.102.38 1.635-.336.034.496-.035.01-.047.043-.004.034-.44.204.127.202.27-.282-.09.186.09.09.237-.062.351-.502-.381.047.02-.471.113-.074.22.357 5.319.299 3.822-1.95 5.79.926.545 3.682-.43-.052-.111.025-.032-.022.033-.072-.01-.068-.006-.005-.028-.007.005.15.037.03-.014.017.004.02.013.019.4-.038.254.153-.065.074-.13-.085-.382-.088-.18.053.557.04.205.168-.714-.143-.117.304.955.364-.103.145-.533-.048-.285.14.824-.038.115 3.95-1.04 1.541-1.989-.305-.57-1.078-1.789-1.608-3.27.428.228-.91-1.446-.35.457-1.012-.108-.692-.606 1.587-.558-1.08-1.063-.316 1.745 1.9-3.227.46-.768.837-.008.03.046.014-.04.189.029.01.031-.045.037.002-.114.131.12-.028-.107.052h-.307l-1.432.959.119-.015-.112.08-.026-.007-.01.014-.005-.005h-.006l-.045.028-.138.39.016.053.086.024.028-.408.71-.404.763.084-.245-.227.266.131.096-.307-.037-.118.072.048.465-.245-.038.088.037.01.088-.11.113-.327.503.924-.16.099.033.113.043.004-.108.03.145.07 1.235-.731.112.345.084-.203.347-.007.357.16-.251-.074.135.24-.278-.104v.27l.859.542.39-.323.413.004-.104.078-.006-.044-.028.053-.026-.053-.064.03.061.199.271.191.102-.42.144-.102.416-.137.451.305-.232.037-.177-.258-.087-.036.072.038-.09-.032-.151.034-.053.044.47.636 2.737-.58.007.184.637.106-.339.251-.011.064.025.151.015.03 1.961.917-1.794-.06-.14.52.287.16-.304-.154-.913.648.306.34 1.155.107 1.466-1.011.066.527.092.105.067-.05-.032-.022v-.028l.02-.049-.024-.023.06.01-.024.003-.028.059.033.047.098-.041-.038-.064.028-.046.062.098-.223.112-.51.754-1.834.063-.54.38v.015l.022.079.256-.002-.007.171-.639.047.094.122 2.36-.52-.15.102.099.147h-.09l-.023-.056-.056-.009.069.068-.136-.021.001.05h-.058l-.032.014-.03.037.081.529.005-.405.644-.146.418-.576.372-.103.082 1.025.576 1.232.353-.056.025-.18.232-.016.357-.543-.03-.265-1.256-1.259 1.52-.474 4.35 2.105-2.103 1.102-2.323-1.325-.148.13-.206.315 1.06.608-.861-.173.21.396-.568.09-.01.062.068.135 2.973.119.577-.414.625-.082-2.657 1.343.496.99.533-.002.214-.947.916-.472-.879 1.083.497 1.566-.707.489-.398.17.105-.059-.128-.24-.07.11-.146-.12.095-.156-.376-.198-.193-.044-.081.03-.09-.038-.034.012-.07.132-.249-.19-.091-.046-.058-.02-.088.008-.08.053-.144-.058-.438.037-.073.031-.017.025-.059-.016-.072-.047-.012-.001.078.05.07.02.083-.055.587.02.168-.062.399.257.408-.1.06.204.508.33-.33.248-.148.968-1.119 1.312-.046.464-.432.1-.11.125-.077.145-.02.068.026.05.627-.488 1.321-1.85.057-.91.595-.114 1.001-.553.314-.798 1.991-.378-.572-.28-1.048.497-.432-.192 1.472-2.647 1.148-.062.866.541.062-.072.036-.086.042-.071.133.052-.09.038.008.102.024.015.11.005.072-.109-.012.049.056.032.16.08-.038-.028.08-.007-.031.024v.024l.077-.016-.081.081.154-.049.226.472-1.092.22.072.311.994-.422-.257.544.468-.28-.307-.982-.992-.63.296-.023.324-.4.506-.001.11-.11-.066-.09-2.654.447.702-.488.45-.703.167.063.173-.183.096-.127-.002-.006.027-.04.048-.108.028.017-.032-.022-.048.115-.109.156-.064-.005.042.031-.096.101-.08.063v-.012l.004.005.042-.032.044-.042.01-.01.005-.012-.226-.27.076.003.009.046.017.026-.01-.039.033.032.016.002.019.062.013.004.028.04.03.02.232-.283-.649.044.458-1.137.572-.106.13.235.076-.2.023.05.268.085.044.003.088.092.364-.03.04-.019.03-.043.07.062.197-.042-.27-.026-.427.086-.083-.17-.544-.098-.674.04.068-.067 4.038.162.93.348 5.788 3.955 2.815 3.603.196 1.332-1.52 1.089 1.26-.937-.165-.036-.22.033-.104.039-.317-.045-.211.132.402-1.998-.327-.285.044 1.067-2.087-.77-.335 1.537-.825-.52-1.86.458 1.907 1.706.883.016-.905.549.777.646.327.049.648-.372.04.107.048-.107.2.154.152.029.027-.002.006-.004.008-.01-.146-.192-.125.05-.24-.065.183-.363.346.492.307.976-.147-.336-.319.34.005.374 1.981 1.864.63-.115-.272 1.238-9.588-.834-3.207.533-.478.589 4.291.094.105.368 1.74 1.174-.022-.3 1.373-1.06 1.78-.241.438.448.287-.073-.118.076.157.159.219.134.195.01-.02-.051.064-.11.029.024-.042.032-.014.088.095.033 1.472-.64.501.418-.62 2.61-1.406.214-.841.594-.838-.028-1.645 1.093-1.847 2.295.547 1.418-.959.181-.376.377-.036.182.015.13.407-.669.737.016.3-.274-.043-1.517 1.51-1.496 5.2-2.04.13-2.439 1.84-1.327-.173-.071.366-1.649 4.026 5.15-3.011 3.167.322.254-.502.658.207 1.045.118-.083.051-.21.03-.074.023-.012-.026-.04-.016-.067.056-.063-.068-.055.012-.105.192-.006-.145.065.036.071-.076.1.046.1-.092.248.049-.036v.014l-.047.04-.05.077.104-.08-.428.331-.12.733.077.172.003-.076.056.052-.854.659-.058.961-1.28-.022 2.021 2.285.358.252.534-.09.296.877.13-.045-.318-.837-.645-.083-.09-.028-.141-.08.24.105.325.007-1.354-1.936 1.38-1.481.503-2.268-.452-.702 1.202-1-.012-.947-.008.125-.1-.06.1-.195 1.637-.811-.092-1.162 2.276 1.99 1.605 3.566-.238-.423-.3-.028-.11.033-.04.056.018-.075-.036.003.022.09 2.79 2.404-.438.05-.199.152-.033-.023-.031.02.064.913.392.39-.756 1.07-.1.48.222.068-.158.15.117.01-.045.209.13.047-.174.226.189.09-.166.03.159.013.01-.045-.063-.118.07-.228-.116-.097.135-.182-.21-.262.83-1.098.05-.459-.448-.537-.015-.626 1.096-.348 1.552 1.906 1.543.878.01 1.043 1.632 2.702-1.192-.03.019.1-.18.151-.083.196-.013-.02-.008.005-.014.034.046.449-.125-.042v.47l-3.177-.458-.886 1.29.806-.099.155-.217.018-.092-.075-.071.118-.09-.17-.258.146-.062-.015-.018-.002-.014.023-.047-.045-.018-.002-.013.007-.033.943 1.015 1.274.152 2.638-2.098-1.699-4.135-1.626-.926.123-.78 1.449 1.113.14.024.091-.019.027.013.043.001.03.018.042.01.04.002.025.024.008.048.02.022.092.035.033.001-.17-.133h-.04l-.08-.03-.045-.006.38.04-.044-.072.115.016.058-.108-.063-.139-.736.209-1.062-1.163-.239.088-1.376-1.05-1.574-.641-1.378-1.226 6.25 3.537.228.437.294 1.096 1.172 5.76.8 2.01.564 8.024 2.18 3.392-1.895 1.45-.342-.754-1.338-.573-.525.748-.634-.418-.38.196-.406.677-.867.35.776-.275.105-.077.197-.204.24-.467.28-.135.874.908.473-.909.863 1.347.401-.297.08.106.568-.308.375-.377.441-.005.85-1.025 4.53 14.397-.956-.052-.885.55-.351-.37-.333.176.659.26 1.757-.445.345.318-.217-.393.176.176.22.708-2.744 11.88-3.57-1.597.016-1.622-.347-.224-.491-.041-.078-1.133-.61-.78-.754-.218-.209-.593.207-.277.503.023.149-.093.544-1.073-.097-.53 1.193-.793.18-1.085.995.21.654-.815-.078-1.67 1.62.059-.074-.295-1.074-.37-.527.369.016 1.372-.589-1.216-.683-.722-.269-.021-.385.358-.234-.33-.358-.15-.086-.347-.407-.053-.495.078-.655.313-1.146 1.094-.186-.162-.813-.208-.094-.943-.243.083.05-.334-.19-.365-.131.01-.469.128-.26.361-.117-.107-.134.065-.33.414-.137-.195-.079.32-.454-.6-.767.003-.057.06-.29.08-.126.092-.111.099.027.09-.085-.061-.086.04.07.139-.11.006-.208.101-.099-.029-.038.01-.261.29-.198-.033.084.097.833-.427.66-.542.447.207.303-.19.11.274-.255.114-.267.477.115.006.173-.481.593.2 1.55-.974.544 1.527.699.518.167-.28.1.128.135.035.931-.647.185-.467 1.46-.348.152.38.366.157.02.351.325-.07-.076.178.619-.471 1.3 2.395-1.564.584-4.523 5.247-.657-.145-.37.21-.756-.617-.253-.074-.3.065-.012-.226-.366-.567-.044-.042-.172-.058-.06-.082-.278-.089-.154-.003-.257.055-.444-.217-.43-.088-.178.06-.051-.06.02.06-.37-.102.355.126.65.014.442.22.698.036.644.97.58.08-1.08.238-.25 1.8-.929-.466-.68.01-.075 1.32-1.016.119-.844.724-1.17 1.62.093.704-.278-.177-.83.278-.697-1.12-.54-.381-.255-.035-.388.206-.237.75v.279l-.19-.201-.114-.046-.075.804-3.177-.973.587.739-.336-.097-.267-.015-.295.104-.145.156-.075.324.305.746-.169-.023-.156.11-.353-.303-.227-.036-.088.017-.138.142.22-.144.585.34.34-.096.178-1.314.97.56 1.173-.441.886.374.301-.07.851-1.832 1.49 1.516 1.07.056 1.206-2.497 1.645-.585.248-.294-.023-.384.541-.868.95.489.193-.075 1.36-1.87.66.402 2.096-.126.825 1.443 1.62.713.13.499 1.077 1.52 2.055 1.295.85.102.213-.115.14-.14-.065-.316.422-.063-.085.377.024.311.23.469-.448.544-1.391-.88-.288.185-.026.384-.28.029-.176.136-.52-.055-.166.13-.374-.013-.25.073-.137.093-.187-.13-.61-.02-.262.117-.042.1-.217-.098-.16-.019-.116.04-.12.146-.297-.114.045-.306-.389-.374-.264-.076-.34.113-2.244 1.416.559.637-.085.126-.486.088-.147.15-.007.273.22.708-.133-.08-.385-.139.585.585-.496.695-.171.697-.197-.134-.184-.024-.281.168-.138.195-.26-.171-.173.007-.18.12-.088.236-.217.108-.071-.335-.072-.12-.495-.554.617 1.029-.473.296-.272-.135-.193.138-.077-.227-.103-.085-.295.04-.213.113-.075.426-.312-.011-.293-.326-.195-.016-.365.494.063.27-.17.133-.156.478-.034.065-.021.03-.019.014-.23-.261-.846-.119.068-.535-.19-.392-.296-.17-.139.05-.13.132-.22-.108-.365.132-.181.247.48.71-.426-.734.39-.294.338.077.247-.176.384 1.08 1.11.412.505-.76.226-.752.588.441 1.628-.4-.01.187.058.129-.011.347-.283.132-.222.356-.045.258-.382-.086-.107.078-.057.123-.004.131.096.232.625.485-.09.364-.025.366-.05.048-.001.073.227.304-.27.058-.212.298.061-.016-.163.246.042.017.57-.588-.07-1.19-.69-.912.517-.024.57-.756-.035-.616-.062-.087.535-.329.153-.299.573.098.403-.354.32.237-.257 1.041.03.177.224.28-.012.11-.548.326-.242.393 2.018-.553.518.769.863.382.552.124.37.014-.077.249-.172.064-.04.15 1.437.483-.54-.97-2.075-.367-.854-.957-1.402-.517.904-1.994.043-.784-.282-1.205.118-.178.496-.084.084-.092-.064-.953 2.063-1.255.587.753.33.105.63-.066.289-.217.8.15 1.445-.218.48-.173.285-.567.772.781.469.116.316-.066.336-.613-.25-.388.079-.568-.067-.174-.135-.068-.003-.08.857-3.401.535 4.927-2.65 8.897-2.551 3.386-12.336 11.273-7.18 4.616-18.158 4.39-.75-.332-.212-.64 2.206.573-.04-.519.243.042-.051.076.004.109.03.077.018.01.017-.28.318.324.383-.13.758-.317-.145-.225.232-.004.025.098.088-.028.022.063.005.005.013.002-.033-.074.327-.033.334-.106.127-.132.033.039.079-.563-.93.694-.706-.144-.013-.8-.125-.092-.152.142-.015-.086-.098-.091-7.847-.021-1.03.268-.717 1.884-4.462.043-.427-.182.784.002-.37-.667-1.46-.761-.092.183.05.139.259.343-.21.404 1.146-.004-.53.212-.247-.1-.2.07.019-.076-.08.047-.168-.13-.397-.109-.301-.004-.41.055-.362.082.012.068-.065-.026-.024.005-.025.02.099.143-.146.177.048-.243-.062.026-.074-.014-.143.039.172.21-.394.133-.05-.286-.775-.464.113-.143.702.399.38-.012-.855-.557.092.17-.071-.005-.076.074-.127-.255-.853-.06.018.095-.042.015-.067-.066-.457-.05-.08.057.441.165-.14.097-.934-.355.1.126-.202-.077-.064.005.087.057-.33.034-.005.005-.014.024-.01.024 2.208.518-.674.437-2.254-.456.342-.196-.143-.393-.685-.128.218.617-1.665.406.913-.57-.008-.257-.04-.216-1.744-.163-.162 1.046-1.856-.084-3.164-3.964-1.901-5.414.262-2.806-.923.985-4.2-3.77.037-.187.131.092.535.02.173.227.139-.146.064.048.196.083.023-.004.02-.024-1.279-.516 2.139-5.28-1.11-1.906-1.238-1.449.093-.69.88-1.2.076-.519-.677-1.919.307-1.1.119-1.302-.186-2.654-.295-.755-.356-.563-.677-.618.036-.601-4.546-6.625-6.633-8.179-.171-.14-.819-.502-.491-.437-1.186-1.773-2.72-3.503-2.015-1.548 2.248 1.921 3.687 4.944 8.046 9.179 4.463 6.544.062.737 1.307 1.913-.254 5.031.64 2.338-1.122 1.12.271 1.406 2.003 2.505-.228 1.169-1.996 4.603-.987.078.57.374-4.683-.403-1.746 1.283-.688-.28-.644-3.457-.543-1.62-1.348-2.664-.054-1.113-.725-1.458.128-3.86-.074-.157-.353-.16-.022-.217-1.169-1.721-3.81-3.34-.004.084-1.304-.42-6.788-1.778-.173.008-2.035-.56-.07.02 10.338 2.74 3.85 3.288 1.14 1.874.454.343-.182 3.796 3.273 10.383-.254-.123-.052.076-.031.07.31.094.065.365-.105-.083.024-.045-.002-.025-.045-.072-.052-.057-.033-.017-.118-.028-.039.003-.024-.029-.033-.01-.353.69.363.355-.253-.124.156.128-.247-.086-.048.004-.096.022-.011.007.274.338-.057-.01-.046.017-.076-.12-.171-.078-.037-.002-.037.02-.064.06.3.006.11.238-.227-.16.072.193-.093-.055-.072-.012-.056.009-.026-.031-.074-.04-.013-.002-.014.012.205.861-.245-.449-.149.237-.221-.006-.057.014-.013.01-.006.01.45.73-.499-.436-.566.31-.57 1.042.611-.638.446-.167.213.136-.153.347-.085-.163-.02-.019-.043-.008-.054-.05.127.146-.273-.15-.124.023-.099.06-.04.06.608.12-.728.376.341 1.003-1.667-.253.23 1.014-.813-.7-.506.86.557-.788.45.885-1.394.6.035-.995-.192.05.084-.002.064.716-.121.332-.022-1.03-.032.875-.086-.798-.188.089h-.145l-.06.014-.092.01-.027.008-.064-.01-.157.023-.018.013-.009.014.006.02.063.006-.138.887-.3-.664.246.717-.401-.62.044-.09.002-.063-.02-.052.05.001.027-.023.298-.07.01-.008v-.006l-.434.073-.96.936.197-.054.4.187.047.268-.478-.377-.005.217-.19-.242-.489.228.974.157-.51.599-2.876-1.135.44.483-3.178-2.224-2.323-.995-3.675-5.93 2.48 4.948 1.177 1.02 4.068 2.37-.29-.033.062.223.02.022.522.015.001.153-.12.02-.077-.12-.074-.004-.045.203-.186-.069h-.188l.047-.03-.053.03.043.044-.073.008-.045.022.6.504.27-.69 1.043.61-1.152-.066-.02.337 1.191-.245.348.261-1.036-.078-.26.093-.016.238-.039-.035-.044-.06-.048-.06-.018-.02.159.249.073.09.026.021.015.004.752-.309-.695.334.158.248.167-.375.11.093.28-.201-.014-.14.426-.017-.806.505.36.388.151-.652.382.26-.528.646-.518-.452-.354.46.917.122.455-.429.05-.355-.14-.225.082-.1.425.459-.25-.045-.148.15.355.275-.212-.068-.112.061-.078-.029-.015.001-.005.005.062.132-.103-.09-.02-.003-.028.003-.005.39-.064-.018-.001-.044-.02-.048-.014-.01-.028-.007-.013-.026-.019-.012.128.233.283-.508.408.07-.535.385.208.31-.647-.342.47.764.321-.162.001-.694.355-.1-.02.1-.019-.036-.134.016-.125.046-.007.007-.01.022.278-.062-.166.094-.206.825-.406.055-.046.25.892-.15-.416-.177.496-.97.172.305-.024.055-.06-.039-.027-.003.029.01-.011.02-.008-.013h-.007l-.039.02-.006.004-.005.013h-.014l-.025.013-.022.017-.002.008.09.658.002-.545.14-.18-.024-.11.076-.024-.033.456.033-.005.171.072.081.01.012-.005.015-.043.206-.073.13.163-.129.133-.073-.076-.182-.073-.128-.032-.017.017-.014-.015-.113.035.045.193.415.142-.024-.139.273-.142.566.53-1.156-.176-1.527.34-3.118 3.04-.21 1.371 3.084-3.874 1.517-.754 1.36.177.504 2.638 2.823 3.885 9.945 7.864-1.208-.062 1.409.312-.095.104-.07-.022h-.026l-.006.006.18.836-.076.052-.101-.047-.035-.003-.03.009-.323.351-.286.572 1.74-1.584-.063-.726.177 1.367.341.944-.012.074-.057-.032h-.023l-.018.01-.08.074.16.605.153-1.097-.43-.567.592.724.411 7.68-.86 3.842-6.205 16.095-2.182 1.052 1.2.007-1.104 1.87-.369-.164.127.21-.082-.116-.204-.182-.067-.057-.061-.013-.141.168-.082.114.838.122-2.404 5.077-.708-.718-1.578 1.885.84-1.994-.882-.1-1.167 1.566.214 1.454-3.43 1.376 1.913-1.618-1.144-.406-2.731 4.46.034-.395.182-.28.071-.128v-.016l-.008-.02-11.039 8.478-4.87 7.148-5.47-1.035-.162-1.215-.215 1.04-4.24-.197-2.947-1.996-3.492 1.536-1.358 1.986-1.606-.403-2.663-1.14-.225-.12-.195-.211.556-2.039-.553-1.834-.936-1.193.74-2.645-.437-.532-1.26-.086-.073-2.268-.862-1.161.486-2.235-.27-.822.273-.915-.258-1.431-.573-1.076-.848-.091-.212-1.852-.764-.368.054-1.028-.074-.2-1.341-1.75-.611-.277.25-.758-.098-.565 1.627-1.04.643-1.75-.041-.672-.376-.302-.32-.018.49-.22.35-.408-.006-.147-.872-1.315.915.125.868-.99.122-1.378-.299-.69-.244-.178.336-.475.468.045.166-.264.183-2.767-.72-.038-.254.612-.188-.69-.63-.775.733-.873.033-.168-.33-1.795-.463-.075.095-.409-.07-1.175-.289-.763.414-.822-.063-1.716-.198-.774-.192-.124-.371.01-.002-.666-.26-.154.48-.221.083-.146-.033-.131-.59.496.265.854.75.875-.377 2.271.364 1.387-.3.156.245 1.075.445.09.327 1.812-.897.828.931 1.677.295-.091.074-.525.37.1.042 2.757-.584.052-.343.529.417 2.234-1.783.886.869 1.34-.836.74.741 1.02-2.267 2.735-.157 1.346 1.986 2.105-.017 1.159.985 2.284 1.369 1.077-.28 5.304.85 3.468 1.802.773-.791 1.89.119 1.115 1.299 2.683-1.136 2.087.637.176-4.264-.285-2.022.91-2.075-1.827-.456.101-.744.984-4.218-1.612-2.5-.541.057-1.398-.108-.303.112-.241.078-.766.252-.696.142-1.262-.103-.342-.284-.45-.415-.34-2.075-.967-1.03-.006-.684-.491-.423-.174-.878.001-.21-.267.039-.127.239-.277.19-.348.093-1.131-.097-.442-.12-.105-.172-.024-.18-.178.067-.468-.157-.466.076.947.562.755-.556 1.823.012.104.183.204 5.82 2.478-.515 3.246.044 1.743 2.54.556 3.013 1.28 1.245.34.18-.04.127.672 1.066.602-.062 1.246-.469.688-.182-.62-.35-.225-2.288.5.12-.708-.04-.158-.097-.113-2.158-.409-.316.042-.273.168-.186-.013.048-.888-.31-.432-.212.005-.21.162.082.415-.637-.926-3.242-.287-.851.294-.418.913-.417-.239-.675.388-.217.652.011.178-.519-.392-.583.169-.018.076.337.346-.314-.055-.225.27-.051.159-.348-.34-.112.088-.176.595 2.05-.878.191-.85 1.064-.129 1.263-1.209 3.256.287-.035.757.72.171.29-.566.261.386-.198.243.127.213.006.351.08.127 3.015.449-.484.788.026.4-1.36-.1-1.409.41-.116.998-.744.398-.278.255-.371.725.093.312-2.147-.423-.477.524.499 1.031-.687.098-1.379.62-.262.253-.065-.046.132.186 1.045.187-.086.546.013.73.081.324.21.295-.61.115-.49.241-.357.387-.556.121-.236.19-.062.296.444 1.055-.667-.406-2.105.128-.93.66.073.337-.172.307.036.305-.248-.084-.151-.006-.213.112-.134.122-.24-.31-.151-.103-.08-.01-.072.059-.158.377-.065.371-.079.055-.57-.594-.133.04-.365.38-.28-.042-.178.14-.047-.083-.05-.02-.155.008-.084.055.34.062.454-.097.473-.42.591.59.097-.056.285-.805.465.446.758-.165-.03-.32.168-.269-.014-.4.457.57.412-.138-.09 1.881 1.704 2.764-1.68-2.789.539-.732-.575-2.067 2.902.178-.4-1.33.745-.291.471-.458 1.071-.351-.23-1.897-1.089-.338 2.278-.925-.041-1.527 2.173.465 2.407-3.01 5.26-.24.396-.693.014-1.266-1.242-.916.632-1.302 2.329 1.943 6.38-.261 4.32 2.473-1.052-.165.392.479 2.61-.696 1.837-1.642 5.716.449 6.62 2.88-.252.645.209.4-.277.141-.122.23.174.415.292.18-.69.505-.093.174.019.192-.278-.014-.08.044-.197.766.038.095.16.09.017.134-.1.11-.285.11-.173.157-.1.152.037.171-.243.113-.094.273-.02.458.205.169.284.061.149.217-.023.62-.524.365-.286.543-.43.062-.269.22-.193 1.12-.53.06-.29.374.012.17.367.89-.215.53-.173.553.04 1.051-.14.083-.097.153-.134.042-.047.042-.044-.027-.254.095-.058.042-.037.047 1.006 1.219-.437-.006-.307.156-.051.08-.405.359-.012.028-1.052.357 1.052-.346.775-.623.437.016.108.26.082.09.542.209.056.197-.152.195-.022.324.122.142-.283.13-.33.641-.957.518-.54.235-.053.042.54-.24 1.023-.55.614-.76 1.442 2.163-.573-1.931-2.287-2.948.1-.138.144-.047.24-.23.344-2.09-.001-.169-.169-.517-.194-.297.002-.166.829-.42 1.682-2.292.05-.537-.08-.215-.144-.136-.246-.035-.196-.18.066-.554.286-.237.09-.353.416-.233.12-.122-.013-1.088.351-.028.154-.422.383-.005.248-.482-.469-.547.362-.327.06-.24-.23-.221.317-.643-.235-.594 5.611-.433-.363-.669.544-1.702 6.943-6.905 2.7-.557 4.816 1.903 4.007-1.578 2.292-2.407-2.011-3.323 2.06 2.719-.004.764-.282 1.263-.966 2.906-14.17 20.632-4.602 12.797-.044 4.142.92 2.589 1.793 1.996 4.944 1.6-10.65 5.894-.991 2.336 1.11 1.295-5.43 2.66-1.846 2.8.64 1.369-1.264.5-.537 3.624-2.59 5.5-3.679 3.238.454 2.309-5.048 4.515.24-1.31-.42-.638-.409.053.029-.263.107-.05.008-.019-.012-.031-.733-.224.617.64.426.009.174.832-.08 1.01-3.184.625-2.372 3.157-1.756-.49-1.672 2.769-6.882 1.327-5.693 2.11-7.62 5.226.115-1.722-.94-.013-.115-.178 1.206-1.872-1.07.6.286-1.48-.765.507-2.335-2.303.458-.582-3.348 1.493-.413-1.91-.35-.261-.768-.203.33-.573.251-.17.045-.078v-.056l-.02-.088-.025-.08-.034-.08-.106-.126-.09-.048.039-.483-.164.005.094.544.3.402-.262.21-.144.178-.197.397-.259.012 1.335.717-.328.55-1.576.835-.047.042-.01.062-.041.017-.03.213 1.725-1.151.304-.495.223 1.58.693.423 2.488-.993 2.263 2.586-.28 1.723-.406-.656-2.483-.08.109.186-.478.087-.15.134-.012.17-.12-.165-.168.054-.108.31-.263-.084.09-.143-.2-.17-.536.054-.155.096-.058.068 1.018.648 1.964-1.03 2.216 1.132-.688-.109.866 1.406-2.308 3.116.159 1.733 1.246-.647-.221.703-6.913 6.681-1.047 6.673-1.93 3.668.151 4.22-1.108-.928-.816.016-.262.18-.18.49-.677-.362-.779.348-2.188-1.76-.174.036-.184.45-.285-.003-.506-.797-.307-.267-.377-.157-.138-.23-.254-.139-.3-.59-.668-.251-.034-.581-.912-.597-.299-.067-.13.036 3.862 3.673 2.541 1.389 4.197.319-.861 1.276.627 2.989-3.022 3.262.557 1.204-2.115-.655-.586-1.96-1.25.167-.002-.2.158-.3-.017-.086.187-.042.081-.044.085.049.25-.046.084-.034.012-.012.008-.014.008-.109-3.492.78-1.054-2.407-.936-.229-2.263 1.118-1.328-.891-1.007-.34-.007-.11.16-.042.106-.244-.014-.072-.138-.032.116-.033.019-.025-.005-.089.22-.153.095-.088-.011-.012-2.672 1.562-.51-.738-.596-.321-.151-.41-.046-.007.158.39.26.286.38.103.285.661-2.235.332-1.602 1.411-1.09-.13-.91.352 1.896-.067 1.743-1.465.532.624 4.06-1.383 2.458 1.559 2.27-1.578 1.15 2.536 1.6.224-.852.766 3.413-.758 1.484 2.398 1.506.122-1.357 1.155-1.353 4.241-1.498.835-1.224 4.791-3.808.29 1.94.652-.437.462-.453-.017-.121.069-.087.202-.327.135.029.033 2.064-.301 1.303-1.47.376-.704.283-.465-2.196 4.236-.786.16 2.3 2.32-3.9 8.416 1.096 4.926-1.201 1.654-.874-.286-1.245.808-.063.508-.195-.037.032-.372-.191-.13-.177.074-.176.289-.2.032-.044.062.967.126.97-.99-.19.383-.116.446.026.24.357-.932.556-.351.586.215-1.18.863-1.783 4.02 2.418 1.677.273 2.366-1.001.926.121 5.112-1.207.43.123 2.456-1.747 1.552 1.295 1.445-1.857 1.88.382 1.065-1.09.387-3.214 3.024-2.659-1.318-.86 1.348 1.743.622-1.875 3.285-1.122-2.201-1.843.85-2.455 4.122.843 1.289z" class="border"/>
        <path d="m-112.985 3760.128-3.128-1.465.025-2.999 2.23-.353-.208.198-.238-.015-.476.081-.064.028-.095.109 2.615 1.128.768-.905 1.12-.07-2.55 4.263z" class="border"/>
      </g>
    </g>
  </g>
</svg>
