<svg xmlns="http://www.w3.org/2000/svg" baseProfile="full" viewBox="0 0 327.986 481.236">
  <defs>
    <style>
      .polygon,path{fill:none;stroke:#000;stroke-width:1px;stroke-linejoin:round}
    </style>
  </defs>
  <g transform="matrix(1 0 0 -1 231.798 3738.674)">
    <g id="national-park" class="dataset end-date entity entry-date name organisation-entity prefix reference start-date typology">
      <path id="E26000001" fill-rule="evenodd" d="m-214.891 3285.679-3.683 2.129-5.66-1.137-2.707-3.078-2.297-5.677-2.56-2.053 2.396-4.338-.215-2.682-1.748-1.58 1.942.1 1.351-1.55-.932-1.74.385-1.688.952 1.033 3.054-2.089-.064 2.138 1.271-1.246.58.812 1.91-4.368 5.279-1.227 3.94 3.192 2.042 6.526 4.997 4.262-.29 2.36-1.482 1.359 4.293 1.912-.812 4.64-5.082 4.579-6.86-.59z" class="national-park"/>
      <path id="E26000002" fill-rule="evenodd" d="m-216.81 3324.622 1.853-3.294-.145-2.086 2.69-.364.185-1.57 1.71-1.246 11.153-1.388 3.074-2.187 4.918 2.682.128 3.04 7.624 1.728-3.024 3.798-3.048-.084-1.852 3.619-3.75.917 1.365 1.99-3.294 1.18-4.193-1.352-9.29 2.533-1.373-1.298-6.497-.003-6.433-2.14 3.297-.88 1.335-2.79 3.567-.805z" class="national-park"/>
      <path id="E26000004" fill-rule="evenodd" d="m-143.223 3682.499 4.1-3.488 7.73.986 5.185 1.59-.11 1.671 6.071.622-1.114 1.367-2.818-.115-.77 2.626-3.754.032 3.587 6.002-1.6 1.369.391 1.301 3.242-.339 1.362 1.643-.363 1.072.985-.002-2.512 6.569 2.225.136-.757-.957.532-.336 1.986 1.463 1.71-1.416.171-1.758 3.062-1.028 1.986 1.152-.457 1.916 7.457 1.999.205 2.943-2.26-.395-1.7 1.725-4.542-1.293-1.485 3.609-2.83 1.44.467 1.43 4.678 1.036 1.197 1.893-.447 1.07 2.888 2.504-.373 4.397-3.69 4.648 1.099 1.075-2.743 3.098-4.54.604-2.398 2.314-2.587-.626-.78-2.17 1.294-1.713.231-3.619 1.492-3.23 1.98-.675-3.65-3.91-5.812-1.984-.104-4.019-2.304-1.764-5.479.512 7.275-4.645 1.53-7.028-1.685-.536-.608-2.836-2.496-.579-.807-2.05-1.073.916-1.558.026 1.963-.442-.684-1.824 2.457.542-.106-1.13 2.243-.241-2.15-2.605-5.12-.882-.598-2.356.929-.957-.995-1.847 1.194-2.132-5.045-2.371z" class="national-park"/>
      <path id="E26000005" fill-rule="evenodd" d="m-74.038 3617.926 2.767-2.508-.947-1.033.927-.789-.044-2.52 1.574-.114 1.62-4.093-.796-1.03 2.743-3.394 8.213 2.043-1.088.763-.033 3.252 1.967.366-.439 3.348 1.772.293 1.514-1.697 1.215 2.875 4.598-3.876 2.028 3.498 4.47.906-.863-4.732 1.902.672.337-1.009-1.206-1.957 2.088-.56 4.517 4.725 2.982-.667 2.594-3.272 1.472.437 3.133 4.186-1.388 4.704 3.108-.008-2.88 6.113-2.943 2.021.156 2.812-2.89 3.385-1.088.64-.464-2.515-1.24.797-2.82-2.281 1.625 4.172-1.4.313-.504 2.432-1.972 1.498-1.724-.623-2 3.138-3.764.938-.645-3.855-2.252-.24-1.902-2.083-4.176 2.565-5.037-.473-1.602-2.49 2.217-3.922-1.242-.699.07-2.602-6.349 1.155-4.583-3.65-.959-3.46 1.332-.247-1.7-1.648z" class="national-park"/>
      <path id="E26000006" fill-rule="evenodd" d="m-105.745 3522.418 3.862-7.509-2.516.542-.678-2.117 3.146-2.303-.61-1.482-1.896 2.07-3.901 1.05-.306 4.212 2.902 2.632-3.926.927-.279-1.025-4.458 5.072-1.664-2.868.55-.959-1.142-.148 1.376-2.485-.186-3.578 1.487-2.087-3.347-3.126.595-1.86 1.874-.124.819-2.293 4.997-1.139.12-3.544 4.353-4.178 7.836-1.392 1.146.706 2.116 5.827 5.623.724-1.53 1.838 1.247-.109-.01 1.124-2.271 1.181.453 3.382 5.605.897-1.497.867.33 2.56-.94 2.63 1.03 1.416-1.418 1.42-.224 4.793-1.72 1.832 1.77 1.193-1.527.232-.388 1.437 1.506 1.223-.781 2.59 1.124 1.005-5.79 3.48-2.162 3.16-3.11-.379-.696 1.587-3.371 1.152.259 1.453-2.092 2.91-6.345-1.381-.535-3.56 1.414-.359-1.63-1.46 1.869-1.144-.812-2.845 2.123-1.143.794-2.31-1.054-1.258-2.13.58-.887-3.164 1.567-1.793 2.215-.004.457-.693-2.023-.214-.5-1.639 3.787-2.032z" class="national-park"/>
      <path id="E26000007" fill-rule="evenodd" d="m88.687 3465.719-2.233 1.99 2.884-.226-1.622 1.224.76.224 1.117-.253.08.361-2.387.894-.198 1.595.981-.436-.088-1.197 2.384.222.61-2.075 1.116 1.176 1.33-1.712-3.13-3.313-3.68-.938 1.93-2.085-.252-1.01 2.864.464-1.08 1.164 1.487.512-.502 1.108 2.318.07-1.459-1.574.635-.86-4.13-2.693 4.903-.14-1.036.722 2.061.6.44-.285-.97-.722 2.369-.78-.038-.832-.087-.285-.199-.151-.027-.326.107-.18-.016-.129-.6-1.189-3.144-.998-1.794-4.731 1.616-2.511 2.766-.488-.468-2.415.793-.688-3.295-1.411-4.757.865-1.696-1.257-6.82.213.552 1.721 13.772.965-2.875 1.96-1.656 3.137-1.566-.642-1.294 1.62-.32-1.227-2.65-.011 2.144 1.348-2.483 2.646-2.079.247-.813 2.945-2.01-1.234-1.257 2.047-2.762-.847.402.697-.597-.116-.445.26.231 1.069-.901-.251-.231.159.216-.145.589.34.346-.093.196-1.32 2.737.706 1.584-1.048 1.826.823 8.794-6.185-.605.623.917.555-.893 1.225.56 2.302-2.348.514 1.125 1.533-.584 2.812-2.059 1.107-1.93-.98-.167.264 1.712.852-2.8.406-.072.371.584.286-.871.886-1.019-1.268-1.436 1.081.78.726-.728.767-2.962-1.006 1.685 1.298-1.55 1.196 1.109.178.825-1.667 4.24.724-.456-.995 1.912-1.072-.519 2.697.837.338-1.642.584 1.367.574.076 1.393-2.209 1.246 1.447.974-1.607.69 1.271.183-.709.763.477 1.078.954-3.527 2.595-1.628-1.329-.582.985-1.457-.624-2.778 4.368 1.649zm7.335-8.612-1.417-.585.736-.151.68.736z" class="polygon national-park"/>
      <path id="E26000009" fill-rule="evenodd" d="m-94.706 3291.064-1.378-2.348-1.117 1.947 1.065 1.137-4.117 1.638 1.777 1.039.384 2.25-.845 3.99.588 3.843-.952.9 1.005 2.462 7.638 3.082-.49-1.995 5.667-2.425.584-3.126 1.256-1.422 5.419-2.536-1.685-.886 2.205-1.761 1.052-3.359 2.734 2.38 1.489-1.472-2.483-2.989-9.49-3.513-2.211-2.405.322-.794-1.366 1.642 2.854 2.491-1.417 1.785-2.05-.54 1.146-1.822-1.052.616-6.532 2.19zm20.876 3.248.282.213-.412.535.13-.748z" class="polygon national-park"/>
      <path id="E26000010" fill-rule="evenodd" d="m-47.575 3297.794 9.173 1.515.711-1.281.809.714 3.746-2.038 1.837 1.33 5.118-1.44-.092-1.19 1.599-.509 1.749 2.502.736-.644-.353.996.402.352.5-1.747 1.425-.296 13.118 3.213-.243-1.868.657-.259.881.917-.64.859.903-.833.603 1.411.547-1.117-1.802-1.56 2.46-.298.473-.88-2.321.385.358-2.161 2.022-.73-1.316 1.475.566.441.999-1.61 1.019.948.687-.222-.69-.68.818.145-.156-.974 1.72 1.416 1.389-1.995 1.174 1.42-.365.726.496.267.909-1.373-.754-.368.418-1.321 3.494.232.218-1.473-1.374-.397 6.11-2.48 2.123-.11.778 1.547-.987.539 1.087.756-1.225.073-.759 4.55-8.892 3.08 1.097 1.794-1.177 1.404-4.385.324-1.88 2.455-3.162.535-.103 1.578-1.36-.444-.568-1.971-2.758 1.286-4.948-1.92-1.551-2.864-1.732-.084-.434 1.9-3.796.619-.67 1.36-3.419-.57.591 2.457-3.418 2.08 1.513.93-1.81 3.294.78.995-3.885-1.294.466 1.199-2.242 5.639-4.224-1.482-3.65 1.245-1.812-1.732-.928 1.208-1.795-.626 1.015 1.014-.668 1.052-3.903.51 2.07 4.381h2.09l.358 2.573-1.146-.1.461 1.289-4.236-2.667-1.656-3.125.872-1.333-2.694-.4.677 2.128-1.133.351-2.356-1.67.611-2.206-1.24-.134.143-1.894-7.348-1.062-.716 2.525-5.944.967-1.143-2.1.896.506-.049-2.209-1.054.233-.787-1.519-.446-3.713 1.594.574 2.763-3.096 4.508-2.064.736-1.687-1.209-2.399 2.74.376-1.2 1.264 1.206 1.424.71-1.275 5.069-.502 1.423 3.14 1.198-.46-.766-2.058.456-1.62 2.134-.451 1.631-2.878 1.885 1.072 1.845-2.027z" class="national-park"/>
      <path id="E26000011" fill-rule="evenodd" d="m-170.273 3657.992-3.248-.6.882-1.577-1.662-.79-1.952.807-4.613-1.357-.487-1.61-2.62 1.117-2.65-3.059 1.53-2.345-.49-.954-3.181-2.756.858-.67-1.08-1.998 1.89-.333-3.176-2.335.778-2.599-5.066-2.426 2.47-2.271-1.58-5.141 2.503-2.656 1.039-3.198-3.179-2.024 1.849-1.885.871-5.457 4.29-7.205 6.321 7.336 4.152-2.86 4.43.472 3.024-3.94 2.228 1.219 1.378-.376.544-1.986 3.503.8 1.688-1.808 2.972 2.584.343 1.911-.92.302-.007 1.69 2.615 1.63.363 5.261-2.053 2.8.237 1.093 2.846.002 2.011 2.67 3.623-3.156 3.189.648-1.209 2.276.277 3.223-2.575 4.334-1.357-.63-.527 4.15-2.138 3.29 1.39.67-.181 2.537-2.104 3.844-2.128-1.2-.569 1.995-2.197 1.29-5.575-.303-2.807 3.488.756 1.367-.817 3.135-4.702 3.564z" class="national-park"/>
      <path id="E26000012" fill-rule="evenodd" d="m-126.695 3593.022-.504-4.299 1.714-2.091 6.811-1.061 4.824-3.593.602 1.529 1.642-1.05 3.395 1.852 2.924-.993 1.175-2.556 2.992 2.24-1.013 3.361-2.084 2.095 1.77 3.313-3.613 4.924-2.374.274-.863 2.546-1.588.275-.683 1.696 9.82 5.59.29 1.839 3.27.969-.87 1.668-5.418.399-.157 1.43-2.941.884-.19 2.634-.967.751 3.937.957 1.26 2.194 1.125-.377 4.387 2.963-2.277.376-.004 1.05-5.93-3.162-2.644 3.147.49 2.059-5.336 4.29-5.546-3.729-1.93 1.62-6.374-2.85-15.34 13.146-2.266-3.37-1.554.007.42-1.503-1.063-1.021.868-2.613 4.187-3.589-1.979-1.079-.649-2.456 1.335-2.447-.817-2.189.484-2.453-1.159-.71.723-1.546-1.726-3.043.664-6.564 6.493-4.787 2.119-.15 9.525-7.877.613 1.08z" class="national-park"/>
    </g>
  </g>
</svg>
